<svg width="41" height="40" viewBox="0 0 41 40" fill="none" xmlns="http://www.w3.org/2000/svg">
<g id="&#240;&#159;&#143;&#167; &#236;&#151;&#144;&#236;&#157;&#180;&#237;&#139;&#176;&#236;&#151;&#160;" clip-path="url(#clip0_161_2343)">
<g id="Group">
<path id="Vector" d="M28.75 3.5H11.75C7.33172 3.5 3.75 7.08172 3.75 11.5V28.5C3.75 32.9183 7.33172 36.5 11.75 36.5H28.75C33.1683 36.5 36.75 32.9183 36.75 28.5V11.5C36.75 7.08172 33.1683 3.5 28.75 3.5Z" fill="#007FF2"/>
<g id="Group_2">
<path id="Vector_2" d="M10.0921 22.321L9.37207 24.395H7.39307L10.7041 15.448H12.6231L15.9211 24.395H13.9421L13.2351 22.321H10.0921ZM12.6831 20.714L11.6751 17.776L10.6551 20.714H12.6831Z" fill="white"/>
<path id="Vector_3" d="M19.7151 24.396H17.8091V17.117H15.2051V15.449H22.3171V17.117H19.7141L19.7151 24.396Z" fill="white"/>
<path id="Vector_4" d="M25.2241 24.396H23.3291V15.449H25.4391L27.9581 22.094L30.4651 15.449H32.5761V24.396H30.6801L30.6681 19.155L28.6051 24.396H27.2981L25.2231 19.155V24.396H25.2241Z" fill="white"/>
</g>
</g>
</g>
<defs>
<clipPath id="clip0_161_2343">
<rect width="40" height="40" fill="white" transform="translate(0.25)"/>
</clipPath>
</defs>
</svg>
