<svg width="41" height="40" viewBox="0 0 41 40" fill="none" xmlns="http://www.w3.org/2000/svg">
<g id="&#226;&#152;&#142;&#239;&#184;&#143; &#236;&#160;&#132;&#237;&#153;&#148;&#234;&#184;&#176;" clip-path="url(#clip0_161_2441)">
<g id="Group">
<path id="Vector" d="M20.0171 3.511C11.0641 3.703 6.70109 6.174 4.71109 9.567C3.60609 11.451 3.54609 14.016 3.71109 15.925C3.83609 17.373 5.17509 18.405 6.61309 18.19L12.9391 17.245C13.5711 17.151 14.0341 16.601 14.0201 15.963L13.9391 12.165C13.9261 11.578 14.3091 11.06 14.8771 10.911C15.8571 10.654 17.6011 10.319 20.1611 10.264C22.7211 10.209 24.4771 10.469 25.4681 10.683C26.0411 10.807 26.4461 11.309 26.4591 11.895L26.5401 15.693C26.5541 16.332 27.0401 16.861 27.6751 16.928L34.0361 17.601C35.4821 17.754 36.7751 16.666 36.8381 15.214C36.9211 13.3 36.7511 10.74 35.5661 8.90499C33.4331 5.59999 28.9681 3.318 20.0151 3.51L20.0171 3.511Z" fill="#D12030"/>
<path id="Vector_2" d="M36.855 29.201H3.64502L8.27702 15.632C8.59002 14.467 9.61902 13.661 10.792 13.661H29.707C30.88 13.661 31.909 14.467 32.222 15.632L36.855 29.201Z" fill="#EF4452"/>
<path id="Vector_3" d="M3.64307 29.201H36.8581V32.054C36.8581 34.508 34.8661 36.5 32.4121 36.5H8.08907C5.63507 36.5 3.64307 34.508 3.64307 32.054V29.201Z" fill="#D12030"/>
<g id="Group_2">
<path id="Vector_4" d="M16.4492 9.44299H14.4732C14.0932 9.44299 13.7852 9.75102 13.7852 10.131V16.232C13.7852 16.612 14.0932 16.92 14.4732 16.92H16.4492C16.8291 16.92 17.1372 16.612 17.1372 16.232V10.131C17.1372 9.75102 16.8291 9.44299 16.4492 9.44299Z" fill="#EF4452"/>
<path id="Vector_5" d="M26.0261 9.44299H24.0501C23.6701 9.44299 23.3621 9.75102 23.3621 10.131V16.232C23.3621 16.612 23.6701 16.92 24.0501 16.92H26.0261C26.406 16.92 26.7141 16.612 26.7141 16.232V10.131C26.7141 9.75102 26.406 9.44299 26.0261 9.44299Z" fill="#EF4452"/>
</g>
<path id="Vector_6" d="M17.129 16.083H15.493C15.2202 16.083 14.999 16.3042 14.999 16.577V18.213C14.999 18.4858 15.2202 18.707 15.493 18.707H17.129C17.4019 18.707 17.623 18.4858 17.623 18.213V16.577C17.623 16.3042 17.4019 16.083 17.129 16.083Z" fill="#F6F6F6"/>
<path id="Vector_7" d="M21.068 16.083H19.432C19.1592 16.083 18.938 16.3042 18.938 16.577V18.213C18.938 18.4858 19.1592 18.707 19.432 18.707H21.068C21.3408 18.707 21.562 18.4858 21.562 18.213V16.577C21.562 16.3042 21.3408 16.083 21.068 16.083Z" fill="#F6F6F6"/>
<path id="Vector_8" d="M25.0092 16.083H23.3731C23.1003 16.083 22.8792 16.3042 22.8792 16.577V18.213C22.8792 18.4858 23.1003 18.707 23.3731 18.707H25.0092C25.282 18.707 25.5032 18.4858 25.5032 18.213V16.577C25.5032 16.3042 25.282 16.083 25.0092 16.083Z" fill="#F6F6F6"/>
<path id="Vector_9" d="M17.1271 20.119H15.4911C15.2182 20.119 14.9971 20.3402 14.9971 20.613V22.249C14.9971 22.5218 15.2182 22.743 15.4911 22.743H17.1271C17.3999 22.743 17.6211 22.5218 17.6211 22.249V20.613C17.6211 20.3402 17.3999 20.119 17.1271 20.119Z" fill="#F6F6F6"/>
<path id="Vector_10" d="M21.068 20.119H19.432C19.1592 20.119 18.938 20.3402 18.938 20.613V22.249C18.938 22.5218 19.1592 22.743 19.432 22.743H21.068C21.3408 22.743 21.562 22.5218 21.562 22.249V20.613C21.562 20.3402 21.3408 20.119 21.068 20.119Z" fill="#F6F6F6"/>
<path id="Vector_11" d="M25.0072 20.119H23.3712C23.0984 20.119 22.8772 20.3402 22.8772 20.613V22.249C22.8772 22.5218 23.0984 22.743 23.3712 22.743H25.0072C25.28 22.743 25.5012 22.5218 25.5012 22.249V20.613C25.5012 20.3402 25.28 20.119 25.0072 20.119Z" fill="#F6F6F6"/>
<path id="Vector_12" d="M17.129 24.155H15.493C15.2202 24.155 14.999 24.3762 14.999 24.649V26.285C14.999 26.5578 15.2202 26.779 15.493 26.779H17.129C17.4019 26.779 17.623 26.5578 17.623 26.285V24.649C17.623 24.3762 17.4019 24.155 17.129 24.155Z" fill="#F6F6F6"/>
<path id="Vector_13" d="M21.068 24.155H19.432C19.1592 24.155 18.938 24.3762 18.938 24.649V26.285C18.938 26.5578 19.1592 26.779 19.432 26.779H21.068C21.3408 26.779 21.562 26.5578 21.562 26.285V24.649C21.562 24.3762 21.3408 24.155 21.068 24.155Z" fill="#F6F6F6"/>
<path id="Vector_14" d="M25.0092 24.155H23.3731C23.1003 24.155 22.8792 24.3762 22.8792 24.649V26.285C22.8792 26.5578 23.1003 26.779 23.3731 26.779H25.0092C25.282 26.779 25.5032 26.5578 25.5032 26.285V24.649C25.5032 24.3762 25.282 24.155 25.0092 24.155Z" fill="#F6F6F6"/>
</g>
</g>
<defs>
<clipPath id="clip0_161_2441">
<rect width="40" height="40" fill="white" transform="translate(0.25)"/>
</clipPath>
</defs>
</svg>
