<svg width="41" height="40" viewBox="0 0 41 40" fill="none" xmlns="http://www.w3.org/2000/svg">
<g id="&#240;&#159;&#147;&#148; &#237;&#145;&#156;&#236;&#167;&#128;&#234;&#176;&#128; &#236;&#158;&#136;&#235;&#138;&#148; &#235;&#133;&#184;&#237;&#138;&#184;">
<path id="Vector" d="M31.921 3H9.57904C7.97004 3 6.66504 4.305 6.66504 5.914V6.885C6.66504 8.494 7.97004 9.799 9.57904 9.799H31.922C33.531 9.799 34.836 11.104 34.836 12.713V10.77C34.836 9.161 33.531 7.856 31.922 7.856H9.57904C9.04304 7.856 8.60804 7.421 8.60804 6.885V5.914C8.60804 5.378 9.04304 4.943 9.57904 4.943H31.922C33.532 4.943 34.836 6.248 34.836 7.857V5.914C34.836 4.304 33.53 3 31.921 3Z" fill="#FFA300"/>
<path id="Vector_2" d="M31.921 9.79999H9.57904C7.97004 9.79999 6.66504 8.49499 6.66504 6.88599V34.086C6.66504 35.695 7.97004 37 9.57904 37H31.922C33.531 37 34.836 35.695 34.836 34.086V12.714C34.836 11.104 33.53 9.79999 31.921 9.79999ZM11.914 15.58C11.914 15.028 12.362 14.58 12.914 14.58H28.584C29.136 14.58 29.584 15.028 29.584 15.58V19.306C29.584 19.858 29.136 20.306 28.584 20.306H12.914C12.362 20.306 11.914 19.858 11.914 19.306V15.58Z" fill="#FFC33A"/>
<path id="Vector_3" d="M31.9209 4.94299H9.57891C9.04291 4.94299 8.60791 5.37799 8.60791 5.91399V6.88499C8.60791 7.42199 9.04291 7.85599 9.57891 7.85599H31.9219C33.5319 7.85599 34.8359 9.16099 34.8359 10.77V7.85599C34.8359 6.24699 33.5309 4.94199 31.9219 4.94199L31.9209 4.94299Z" fill="#E5E8EB"/>
<path id="Vector_4" d="M28.585 14.58H12.915C12.3628 14.58 11.915 15.0277 11.915 15.58V19.306C11.915 19.8583 12.3628 20.306 12.915 20.306H28.585C29.1373 20.306 29.585 19.8583 29.585 19.306V15.58C29.585 15.0277 29.1373 14.58 28.585 14.58Z" fill="white"/>
</g>
</svg>
