<svg width="31" height="35" viewBox="0 0 31 35" fill="none" xmlns="http://www.w3.org/2000/svg">
<g id="Group">
<path id="Vector" d="M24.2089 15.793H7.27686V9.085C7.27686 4.417 11.0749 0.619003 15.7429 0.619003C20.4109 0.619003 24.2089 4.417 24.2089 9.085V15.793ZM10.2769 12.793H21.2089V9.085C21.2089 6.071 18.7569 3.619 15.7429 3.619C12.7289 3.619 10.2769 6.071 10.2769 9.085V12.793Z" fill="#6B7683"/>
<path id="Vector_2" d="M26.7429 11.085H4.74292C2.53378 11.085 0.74292 12.8759 0.74292 15.085V30.085C0.74292 32.2941 2.53378 34.085 4.74292 34.085H26.7429C28.9521 34.085 30.7429 32.2941 30.7429 30.085V15.085C30.7429 12.8759 28.9521 11.085 26.7429 11.085Z" fill="#AFB7C0"/>
<g id="Group_2">
<path id="Vector_3" d="M15.7429 23.127C17.3998 23.127 18.7429 21.7839 18.7429 20.127C18.7429 18.4701 17.3998 17.127 15.7429 17.127C14.0861 17.127 12.7429 18.4701 12.7429 20.127C12.7429 21.7839 14.0861 23.127 15.7429 23.127Z" fill="#313D4C"/>
<path id="Vector_4" d="M15.7429 27.877C14.9139 27.877 14.2429 27.205 14.2429 26.377V20.96C14.2429 20.132 14.9139 19.46 15.7429 19.46C16.5719 19.46 17.2429 20.132 17.2429 20.96V26.377C17.2429 27.205 16.5719 27.877 15.7429 27.877Z" fill="#313D4C"/>
</g>
</g>
</svg>
