<svg width="41" height="40" viewBox="0 0 41 40" fill="none" xmlns="http://www.w3.org/2000/svg">
<g id="&#240;&#159;&#147;&#157; &#235;&#169;&#148;&#235;&#170;&#168;" clip-path="url(#clip0_161_2323)">
<g id="Group">
<g id="Group_2">
<path id="Vector" fill-rule="evenodd" clip-rule="evenodd" d="M30.582 34.666V5.334C30.582 4.229 29.687 3.334 28.582 3.334H12.249L2.25 13.334V34.666C2.25 35.771 3.145 36.666 4.25 36.666H28.582C29.687 36.666 30.582 35.771 30.582 34.666Z" fill="#E5E9EE"/>
<path id="Vector_2" fill-rule="evenodd" clip-rule="evenodd" d="M10.25 13.334H2.25L12.249 3.334V11.334C12.249 12.439 11.354 13.334 10.249 13.334H10.25Z" fill="#C0C7D1"/>
</g>
<g id="Group_3">
<path id="Vector_3" d="M31.2078 14.8385L17.0396 29.0068L22.4136 34.3808L36.5819 20.2125L31.2078 14.8385Z" fill="#FFAA00"/>
<path id="Vector_4" fill-rule="evenodd" clip-rule="evenodd" d="M38.7998 17.994L36.5818 20.212L31.2078 14.838L33.4248 12.621C34.0248 12.021 34.9968 12.021 35.5968 12.621L38.7988 15.823C39.3988 16.423 39.3988 17.395 38.7988 17.995L38.7998 17.994Z" fill="#FF9000"/>
<path id="Vector_5" fill-rule="evenodd" clip-rule="evenodd" d="M15.7959 36.154L18.4219 35.45L15.9699 32.997L15.2659 35.624C15.1799 35.946 15.4739 36.24 15.7959 36.154Z" fill="#313D4C"/>
<path id="Vector_6" fill-rule="evenodd" clip-rule="evenodd" d="M15.97 32.997L18.423 35.45L22.414 34.38L17.04 29.007L15.97 32.997Z" fill="#FFCCA8"/>
</g>
</g>
</g>
<defs>
<clipPath id="clip0_161_2323">
<rect width="40" height="40" fill="white" transform="translate(0.75)"/>
</clipPath>
</defs>
</svg>
