<svg width="41" height="40" viewBox="0 0 41 40" fill="none" xmlns="http://www.w3.org/2000/svg">
<g id="&#240;&#159;&#146;&#172; &#235;&#167;&#144;&#237;&#146;&#141;&#236;&#132;&#160;" clip-path="url(#clip0_161_2484)">
<g id="Group">
<path id="Vector" d="M20.25 2.82199C10.585 2.82199 2.75 9.83599 2.75 18.488C2.75 21.942 4.009 25.127 6.128 27.715C6.904 28.663 7.259 29.886 7.025 31.088L6.07 35.985C5.91 36.807 6.77 37.45 7.513 37.063L13.326 34.037C14.147 33.61 15.092 33.471 15.995 33.676C17.357 33.985 18.781 34.154 20.25 34.154C29.915 34.154 37.75 27.14 37.75 18.488C37.75 9.83599 29.915 2.82199 20.25 2.82199Z" fill="#E2E5E8"/>
<g id="Group_2">
<path id="Vector_2" d="M13.0039 17.03C14.0859 17.03 14.9619 17.907 14.9619 18.988C14.9619 19.507 14.7559 20.005 14.3879 20.373C14.0209 20.74 13.5229 20.947 13.0029 20.947C11.9209 20.947 11.0449 20.07 11.0449 18.989C11.0449 17.908 11.9219 17.031 13.0029 17.031L13.0039 17.03Z" fill="#333D4B"/>
<path id="Vector_3" d="M27.4958 20.946C28.5772 20.946 29.4538 20.0694 29.4538 18.988C29.4538 17.9066 28.5772 17.03 27.4958 17.03C26.4145 17.03 25.5378 17.9066 25.5378 18.988C25.5378 20.0694 26.4145 20.946 27.4958 20.946Z" fill="#333D4B"/>
<path id="Vector_4" d="M20.25 20.946C21.3314 20.946 22.208 20.0694 22.208 18.988C22.208 17.9066 21.3314 17.03 20.25 17.03C19.1686 17.03 18.292 17.9066 18.292 18.988C18.292 20.0694 19.1686 20.946 20.25 20.946Z" fill="#333D4B"/>
</g>
</g>
</g>
<defs>
<clipPath id="clip0_161_2484">
<rect width="40" height="40" fill="white" transform="translate(0.25)"/>
</clipPath>
</defs>
</svg>
