<svg width="41" height="40" viewBox="0 0 41 40" fill="none" xmlns="http://www.w3.org/2000/svg">
<g id="&#240;&#159;&#146;&#184; &#235;&#130;&#160;&#234;&#176;&#156; &#235;&#139;&#172;&#235;&#166;&#176; &#235;&#143;&#136;" clip-path="url(#clip0_161_2369)">
<g id="Group">
<path id="Vector" d="M38.1589 17.718L6.47095 25.418V22.303L38.1589 14.603V17.718Z" fill="#03905A"/>
<path id="Vector_2" d="M25.0903 6.24637L6.91626 24.4204C6.29103 25.0457 6.29103 26.0594 6.91626 26.6846L17.2824 37.0508C17.9077 37.676 18.9214 37.676 19.5466 37.0508L37.7207 18.8767C38.3459 18.2515 38.3459 17.2378 37.7207 16.6126L27.3545 6.24637C26.7292 5.62114 25.7155 5.62114 25.0903 6.24637Z" fill="#03905A"/>
<path id="Vector_3" d="M25.0896 2.94975L6.91553 21.1238C6.2903 21.749 6.2903 22.7627 6.91553 23.388L17.2817 33.7541C17.9069 34.3794 18.9206 34.3794 19.5459 33.7541L37.7199 15.5801C38.3452 14.9549 38.3452 13.9412 37.7199 13.3159L27.3537 2.94975C26.7285 2.32452 25.7148 2.32452 25.0896 2.94975Z" fill="#4FC578"/>
<path id="Vector_4" d="M18.0871 9.95222L13.9187 14.1206L26.549 26.751L30.7174 22.5826L18.0871 9.95222Z" fill="#7BD58F"/>
<g id="Group_2">
<path id="Vector_5" d="M37.209 26.782V37.051C37.209 37.278 37.025 37.461 36.799 37.461C35.247 37.461 33.988 36.203 33.988 34.65V26.782H37.209Z" fill="#E5E8EB"/>
<path id="Vector_6" d="M29.0911 26.782V34.123C29.0911 34.342 28.9131 34.52 28.6941 34.52C27.1921 34.52 25.9741 33.302 25.9741 31.8V26.782H29.0911Z" fill="#E5E8EB"/>
<path id="Vector_7" d="M37.2091 26.782V30.651H25.9741V26.782C25.9741 23.679 28.4891 21.164 31.5921 21.164C34.6951 21.164 37.2091 23.679 37.2091 26.782Z" fill="#E5E8EB"/>
<path id="Vector_8" d="M31.5912 25.9C32.4812 25.9 33.2032 26.622 33.2032 27.512V36.253C33.2032 36.48 33.0192 36.663 32.7932 36.663C31.2402 36.663 29.9802 35.404 29.9802 33.85V27.511C29.9802 26.621 30.7022 25.899 31.5922 25.899L31.5912 25.9Z" fill="#E5E8EB"/>
</g>
<g id="Group_3">
<path id="Vector_9" d="M13.9891 3.563H3.72006C3.49306 3.563 3.31006 3.747 3.31006 3.973C3.31006 5.525 4.56806 6.784 6.12106 6.784H13.9891V3.563Z" fill="#E5E8EB"/>
<path id="Vector_10" d="M13.989 11.681H6.64798C6.42898 11.681 6.25098 11.859 6.25098 12.078C6.25098 13.58 7.46898 14.798 8.97098 14.798H13.989V11.681Z" fill="#E5E8EB"/>
<path id="Vector_11" d="M13.9891 3.563H10.1201V14.798H13.9891C17.0921 14.798 19.6071 12.283 19.6071 9.18C19.6071 6.077 17.0921 3.563 13.9891 3.563Z" fill="#E5E8EB"/>
<path id="Vector_12" d="M14.8721 9.18C14.8721 8.29 14.1501 7.568 13.2601 7.568H4.51913C4.29213 7.568 4.10913 7.752 4.10913 7.978C4.10913 9.531 5.36813 10.791 6.92213 10.791H13.2611C14.1511 10.791 14.8731 10.069 14.8731 9.179L14.8721 9.18Z" fill="#E5E8EB"/>
</g>
</g>
</g>
<defs>
<clipPath id="clip0_161_2369">
<rect width="40" height="40" fill="white" transform="translate(0.75)"/>
</clipPath>
</defs>
</svg>
