<svg width="41" height="40" viewBox="0 0 41 40" fill="none" xmlns="http://www.w3.org/2000/svg">
<g id="&#240;&#159;&#167;&#190; &#236;&#152;&#129;&#236;&#136;&#152;&#236;&#166;&#157;" clip-path="url(#clip0_161_2296)">
<path id="Vector" d="M34.438 33.536V5.155C34.438 4.241 33.697 3.5 32.783 3.5H7.71701C6.80301 3.5 6.06201 4.241 6.06201 5.155V33.536C6.06201 34.079 6.32801 34.588 6.77501 34.897L8.66701 36.207C9.23401 36.599 9.98401 36.599 10.55 36.207L12.214 35.056C12.781 34.664 13.531 34.664 14.097 35.056L15.761 36.207C16.328 36.599 17.078 36.599 17.644 36.207L19.307 35.056C19.874 34.664 20.624 34.664 21.19 35.056L22.854 36.207C23.421 36.599 24.171 36.599 24.737 36.207L26.401 35.056C26.968 34.664 27.718 34.664 28.284 35.056L29.948 36.207C30.515 36.599 31.265 36.599 31.831 36.207L33.723 34.897C34.17 34.588 34.436 34.079 34.436 33.536H34.438Z" fill="#E5E8EB"/>
<path id="Vector_2" d="M30.6191 27.383H9.8811V28.383H30.6191V27.383Z" fill="#AFB7C0"/>
<path id="Vector_3" d="M30.6191 23.756H27.8811V24.756H30.6191V23.756Z" fill="#AFB7C0"/>
<path id="Vector_4" d="M30.6191 20.128H27.8811V21.128H30.6191V20.128Z" fill="#AFB7C0"/>
<path id="Vector_5" d="M30.6191 16.5H27.8811V17.5H30.6191V16.5Z" fill="#AFB7C0"/>
<path id="Vector_6" d="M20.6191 23.756H9.8811V24.756H20.6191V23.756Z" fill="#AFB7C0"/>
<path id="Vector_7" d="M20.6191 20.128H9.8811V21.128H20.6191V20.128Z" fill="#AFB7C0"/>
<path id="Vector_8" d="M20.6191 16.5H9.8811V17.5H20.6191V16.5Z" fill="#AFB7C0"/>
<path id="Vector_9" d="M30.6191 9.245H9.8811V10.245H30.6191V9.245Z" fill="#AFB7C0"/>
<g id="Vector_10">
<circle id="Ellipse 1" cx="29" cy="29" r="11" fill="white"/>
<path id="Vector_11" fill-rule="evenodd" clip-rule="evenodd" d="M35 30.247H32.989L32.269 32.866C32.2062 33.1002 32.0674 33.307 31.8746 33.4539C31.6817 33.6008 31.4455 33.6796 31.203 33.678H31.202C30.698 33.678 30.27 33.351 30.137 32.866L29 28.738L27.864 32.866C27.8012 33.1002 27.6624 33.307 27.4696 33.4539C27.2767 33.6008 27.0405 33.6796 26.798 33.678C26.294 33.678 25.866 33.352 25.732 32.867L25.011 30.247H23C22.7613 30.247 22.5324 30.1522 22.3636 29.9834C22.1948 29.8146 22.1 29.5857 22.1 29.347C22.1 29.1083 22.1948 28.8794 22.3636 28.7106C22.5324 28.5418 22.7613 28.447 23 28.447H24.516L23.885 26.155C23.8501 26.04 23.8386 25.9192 23.8511 25.7996C23.8637 25.6801 23.9001 25.5643 23.9581 25.4591C24.0161 25.3538 24.0947 25.2613 24.189 25.1869C24.2834 25.1125 24.3918 25.0577 24.5076 25.0259C24.6235 24.994 24.7446 24.9857 24.8638 25.0014C24.9829 25.0171 25.0977 25.0565 25.2014 25.1172C25.3051 25.178 25.3955 25.259 25.4674 25.3553C25.5393 25.4516 25.5912 25.5613 25.62 25.678L26.798 29.956L27.934 25.829C27.9965 25.5945 28.1351 25.3874 28.328 25.2403C28.521 25.0931 28.7573 25.0142 29 25.016C29.504 25.016 29.933 25.343 30.066 25.829L31.203 29.956L32.38 25.678C32.4113 25.564 32.4648 25.4573 32.5373 25.364C32.6099 25.2707 32.7001 25.1925 32.8029 25.1341C32.9056 25.0756 33.0189 25.038 33.1362 25.0233C33.2535 25.0086 33.3725 25.0172 33.4865 25.0485C33.6005 25.0798 33.7072 25.1333 33.8005 25.2058C33.8938 25.2784 33.972 25.3686 34.0304 25.4714C34.0889 25.5741 34.1265 25.6874 34.1412 25.8047C34.1559 25.922 34.1473 26.041 34.116 26.155L33.484 28.447H35C35.2387 28.447 35.4676 28.5418 35.6364 28.7106C35.8052 28.8794 35.9 29.1083 35.9 29.347C35.9 29.5857 35.8052 29.8146 35.6364 29.9834C35.4676 30.1522 35.2387 30.247 35 30.247ZM29 18C22.925 18 18 22.925 18 29C18 35.076 22.925 40 29 40C35.075 40 40 35.076 40 29C40 22.925 35.075 18 29 18Z" fill="#F6C74C"/>
</g>
</g>
<defs>
<clipPath id="clip0_161_2296">
<rect width="40" height="40" fill="white" transform="translate(0.25)"/>
</clipPath>
</defs>
</svg>
