<svg width="41" height="40" viewBox="0 0 41 40" fill="none" xmlns="http://www.w3.org/2000/svg">
<g id="&#240;&#159;&#148;&#141;&#239;&#184;&#143; &#236;&#153;&#188;&#236;&#170;&#189;&#236;&#156;&#188;&#235;&#161;&#156; &#237;&#150;&#165;&#237;&#149;&#156; &#235;&#143;&#139;&#235;&#179;&#180;&#234;&#184;&#176;" clip-path="url(#clip0_161_2237)">
<g id="Group">
<path id="Vector" d="M35.75 37C35.238 37 34.727 36.805 34.336 36.414L25.355 27.433C24.574 26.652 24.574 25.386 25.355 24.605C26.136 23.824 27.402 23.824 28.183 24.605L37.164 33.586C37.945 34.367 37.945 35.633 37.164 36.414C36.773 36.805 36.262 37 35.75 37Z" fill="#4E5968"/>
<g id="Group_2">
<path id="Vector_2" d="M30.3801 17.315C30.3801 10.525 24.8561 5 18.0651 5C14.6701 5 11.5911 6.381 9.36108 8.611L26.7681 26.019C28.9981 23.789 30.3801 20.71 30.3801 17.315Z" fill="#E5E9EE"/>
<path id="Vector_3" d="M26.769 26.019L9.361 8.61099C7.131 10.841 5.75 13.92 5.75 17.315C5.75 24.105 11.275 29.63 18.065 29.63C21.46 29.63 24.539 28.249 26.769 26.019Z" fill="#F0F3F6"/>
</g>
<path id="Vector_4" d="M18.064 31.129C10.447 31.129 4.25 24.932 4.25 17.315C4.25 9.698 10.447 3.5 18.064 3.5C25.681 3.5 31.879 9.697 31.879 17.315C31.879 24.933 25.682 31.129 18.064 31.129ZM18.064 6.5C12.101 6.5 7.25 11.352 7.25 17.315C7.25 23.278 12.102 28.129 18.064 28.129C24.026 28.129 28.879 23.277 28.879 17.315C28.879 11.353 24.027 6.5 18.064 6.5Z" fill="#A3ADB7"/>
</g>
</g>
<defs>
<clipPath id="clip0_161_2237">
<rect width="40" height="40" fill="white" transform="translate(0.75)"/>
</clipPath>
</defs>
</svg>
