<svg width="40" height="41" viewBox="0 0 40 41" fill="none" xmlns="http://www.w3.org/2000/svg">
<g id="Icon">
<circle id="Ellipse 2" cx="20" cy="20.5" r="20" fill="#6C6053"/>
<path id="Vector" d="M31.6106 20.7645L31.4018 20.6319C30.6935 19.9264 29.7086 19.6188 28.3908 19.6978C27.2931 19.7655 26.424 20.2001 25.758 20.6036C25.758 20.5923 25.758 20.5839 25.758 20.5726C25.758 20.2283 25.7975 19.8558 25.8342 19.4946C25.8709 19.1278 25.9132 18.7525 25.9132 18.3998C25.9132 18.047 25.8737 17.6943 25.7467 17.4008C25.7157 17.3246 25.6451 17.2823 25.5577 17.2823C25.2021 17.2908 24.5108 17.5334 24.3414 17.6802L24.2511 17.8805C24.2455 18.2728 24.158 19.3705 24.0705 19.5031C24.0734 19.4975 24.0254 19.6357 24.0254 19.6357C23.8758 21.2019 23.873 22.5761 24.0113 23.7585C24.0282 23.877 24.254 24.0548 24.4317 24.1197C24.6236 24.1902 25.2275 24.0294 25.5746 23.8996C25.569 23.8996 25.7044 23.8798 25.7044 23.8798C25.8145 23.8685 25.8794 23.7754 25.8737 23.6513L25.8822 23.3126C26.1333 22.2939 27.1492 21.0749 28.3485 20.8915C29.0286 20.7842 29.5647 20.9592 29.988 21.4192C30.0444 21.501 30.1686 22.2375 29.7227 23.0784C29.3898 23.702 28.7238 24.2297 27.8462 24.5571C27.0166 24.8731 26.1023 25.0001 24.9764 24.9606C24.9284 24.9296 23.921 24.2467 23.921 24.2467C23.0265 23.6174 21.9146 22.8357 20.9072 22.4548C20.7295 22.3871 20.4134 22.1218 20.2215 21.9666L20.1171 21.8819C19.5358 21.4163 18.4296 20.6798 17.5436 20.0872C17.5436 20.0872 17.1429 19.8192 17.0667 19.7655C17.0667 19.7317 17.0667 19.664 17.0667 19.664C17.0921 19.6357 17.6508 19.3028 17.6508 19.3028C18.4325 18.8456 18.7936 18.6227 18.8698 18.507C18.8529 18.5267 18.9742 18.4449 18.9742 18.4449C18.9827 18.4421 20.9101 17.35 20.9101 17.35C22.7697 16.3285 24.8748 15.1687 25.981 14.0259L26.0346 13.8509L26.06 13.6957C26.1333 13.4502 26.1362 13.264 26.0769 13.0467C26.06 12.9846 26.0035 12.9112 25.9273 12.8999C25.0638 12.8125 23.9492 13.3317 22.9362 14.2826C22.7076 14.4971 22.5157 14.6015 22.3125 14.7116L22.1573 14.799C21.0399 15.434 18.5228 16.9973 17.2021 17.841C17.2896 16.4244 17.552 14.4068 17.8737 12.7278L17.837 12.5274L17.7016 12.2735L17.6 12.0929L17.5718 12.0844C17.3093 11.9518 17.0949 12.0054 16.9369 12.0449L16.6744 12.1408L16.3217 12.2678C16.2511 12.2819 16.2032 12.3243 16.1778 12.392C15.5485 13.913 15.0236 16.416 14.8995 18.4167C13.6409 17.6181 12.4783 17.0424 11.9083 16.7631L11.8914 16.7546L11.8236 16.7405C11.6176 16.7151 11.3693 16.5627 11.1295 16.416C11.1041 16.4019 10.6497 16.1056 10.6497 16.1056L9.91887 15.6371L9.72698 15.592C9.41376 15.6456 8.80988 16.052 8.6321 16.3285C8.60952 16.3652 8.59824 16.4047 8.59824 16.4442C8.59824 16.5035 8.61517 16.5599 8.6321 16.6192L8.66314 16.7687L8.697 16.859C9.04691 17.2174 9.93298 17.8156 10.7993 18.2812L11.8039 18.8146L13.3418 19.6555L13.6042 19.8643L13.7848 19.9687C13.7848 19.9687 13.8046 19.98 13.8187 19.9885C13.4095 20.2622 11.0194 21.8565 11.0194 21.8565L9.54921 22.8329C9.41093 22.9289 8.82963 23.1885 8.69982 23.2393C8.38095 23.3691 8.13827 23.5694 8.03951 23.7839L8 23.8685L8.03951 23.925L8.15238 24.0096L8.30194 24.1084L8.46561 24.2184L8.61799 24.2438C8.8776 24.2523 9.25855 24.1056 9.97531 23.7923C10.6328 23.5017 12.419 22.4237 13.1838 21.9638L13.5083 21.7691C13.6437 21.7804 13.7905 21.6675 13.9231 21.5659C14.0755 21.4446 14.4085 21.2386 14.6116 21.1483C14.6173 21.1483 14.733 21.0805 14.843 21.0213C14.843 21.0551 14.843 21.1087 14.843 21.1087C14.8769 23.4453 15.0095 25.144 15.2663 26.4534V26.4759L15.2945 26.5296C15.4187 26.713 15.5626 27.2689 15.6896 27.7571L15.9802 28.7334L16.0621 28.8237C16.2286 28.9366 16.7337 29.1313 17.0723 29.0918L17.157 29.0805L17.2106 28.962C17.2388 28.8153 17.2501 28.6714 17.2501 28.5133C17.2501 28.3356 17.236 28.138 17.2219 27.8982L17.1993 27.5454C17.0921 25.9144 16.9848 23.5581 16.9848 21.992V21.8678C17.2642 22.04 18.4748 22.8047 18.4748 22.8047C20.5376 24.1423 23.6557 26.1655 25.5379 26.6989C25.6367 26.7271 25.7383 26.7045 25.8116 26.6368C25.8116 26.634 26.1023 26.4505 26.1023 26.4505L26.1559 26.428C26.2631 26.3772 26.3365 26.1938 26.3478 25.9962C27.9365 25.9172 30.1489 25.3049 31.334 23.8149C31.7912 23.2364 32 22.531 32 21.9271C32 21.4304 31.8617 21.0015 31.6134 20.7673" fill="#F8B500"/>
</g>
</svg>
