<svg width="40" height="41" viewBox="0 0 40 41" fill="none" xmlns="http://www.w3.org/2000/svg">
<g id="Icon">
<circle id="Ellipse 2" cx="20" cy="20.5" r="20" fill="#0046FF"/>
<g id="Vector">
<path d="M32 19.9995C32 26.6269 26.6269 32 20.0005 32C13.3741 32 8 26.6269 8 19.9995C8 13.372 13.3731 8 19.9995 8C26.6259 8 31.999 13.372 31.999 19.9995H32Z" fill="white"/>
<path d="M18.9804 29.573C18.9804 29.573 19.7147 30.1113 18.8825 30.2588C18.8825 30.2588 10.7077 31.0415 10.2674 22.1336C10.2674 22.1336 10.2674 21.7427 10.5613 21.6932C10.5613 21.6932 10.8057 21.5953 11.0016 21.9871C11.0016 21.9871 11.4915 23.3577 12.2742 24.4343C12.2742 24.4343 12.6166 24.7767 12.9105 24.3363C12.9105 24.3363 13.5468 23.3092 13.9871 23.1132C13.9871 23.1132 14.6729 22.5204 14.6729 23.4556C14.6729 23.6031 14.6234 25.0221 14.8688 26.1482C14.8688 26.1482 16.4353 25.6584 17.8543 25.7079C17.8543 25.7079 19.3228 25.8058 16.5817 27.9106C16.5817 27.9106 15.5536 28.4974 18.9804 29.5751V29.573Z" fill="#0046FF"/>
<path d="M19.1279 10.2876C19.1279 10.2876 19.4804 10.3583 19.4703 9.89572C19.4703 9.89572 19.5036 9.54829 19.0299 9.45537C19.0299 9.45537 13.5963 8.62315 12.7156 13.9094C12.7156 13.9094 11.9934 17.0574 16.3373 20.5661C16.3373 20.5661 19.2248 23.3556 20.7913 24.5302C20.7913 24.5302 23.8505 26.9269 23.5809 28.7398C23.5809 28.7398 23.3364 29.8114 21.0842 30.3548C21.0842 30.3548 20.8883 30.3548 20.9378 30.6487C20.9378 30.6487 21.0357 30.991 21.5246 30.991C21.5246 30.991 25.5796 31.1577 26.6148 27.8096C26.6148 27.8096 27.8228 25.517 23.3839 21.8871C23.3839 21.8871 20.4469 19.2925 18.1957 17.3352C18.1957 17.3352 14.4265 14.1538 15.9445 11.853C15.9445 11.853 16.5807 10.3845 19.1259 10.2866L19.1279 10.2876Z" fill="#0046FF"/>
<path d="M21.469 10.5199C21.469 10.5199 21.0297 10.1502 20.66 10.428C20.66 10.428 20.3136 10.6815 20.6368 11.1683C20.6368 11.1683 20.7984 11.3531 21.1448 11.8389C21.1448 11.8389 21.7225 12.9943 20.9832 13.8962C20.9832 13.8962 19.642 15.9768 20.359 18.0573C20.359 18.0573 21.0761 19.7682 23.0173 18.936C23.0173 18.936 24.3121 18.2189 23.2486 16.4626C23.2486 16.4626 22.3234 14.7981 23.2253 14.5204C23.2253 14.5204 23.7798 14.2659 24.1727 14.7739C24.1727 14.7739 24.404 15.0749 24.612 15.8142C24.612 15.8142 24.9362 17.016 25.9533 17.1786C25.9533 17.1786 27.04 17.4099 27.7329 16.5312C27.7329 16.5312 28.7964 15.4677 27.6864 14.3346C27.6864 14.3346 27.3622 14.0104 26.022 13.6639C26.022 13.6639 25.0736 13.3872 25.4443 12.7853C25.4443 12.7853 25.722 12.3924 26.3694 12.7388C26.3694 12.7388 27.2248 13.2246 27.5945 12.8317C27.5945 12.8317 28.149 12.1379 27.04 11.5137C27.04 11.5137 26.1149 10.936 23.8263 10.9814C23.8263 10.9814 22.3467 11.1208 21.468 10.5189L21.469 10.5199Z" fill="#0046FF"/>
</g>
</g>
</svg>
