<svg width="22" height="22" viewBox="0 0 22 22" fill="none" xmlns="http://www.w3.org/2000/svg">
<g id="Text">
<path id="Vector" d="M12.0483 16.508C11.5535 16.508 11.1304 16.3951 10.7788 16.1694C10.4272 15.9437 10.1603 15.6291 9.97803 15.2254C9.79574 14.8218 9.70459 14.3552 9.70459 13.8257C9.70459 13.2918 9.79791 12.8231 9.98454 12.4194C10.1712 12.0114 10.4403 11.6946 10.7918 11.4689C11.1434 11.2432 11.5622 11.1304 12.0483 11.1304C12.5562 11.1304 12.988 11.2432 13.3439 11.4689C13.6998 11.6946 13.9689 12.0093 14.1512 12.4129C14.3335 12.8166 14.4268 13.2875 14.4312 13.8257C14.4268 14.3639 14.3313 14.8348 14.1447 15.2384C13.9624 15.6421 13.6911 15.9546 13.3309 16.1759C12.975 16.3973 12.5475 16.508 12.0483 16.508ZM11.2931 13.7996C11.2931 14.1989 11.3582 14.518 11.4884 14.7567C11.623 14.991 11.8096 15.1104 12.0483 15.1147C12.3044 15.1104 12.4997 14.9932 12.6343 14.7632C12.7732 14.5331 12.8426 14.2206 12.8426 13.8257C12.8426 13.4264 12.7753 13.1095 12.6408 12.8752C12.5106 12.6408 12.3131 12.5236 12.0483 12.5236C11.8096 12.5236 11.623 12.643 11.4884 12.8817C11.3582 13.116 11.2931 13.422 11.2931 13.7996ZM17.8166 11.5731H19.5483L13.064 21.0002H11.3322L17.8166 11.5731ZM16.4884 18.7476C16.4841 18.2137 16.5752 17.745 16.7619 17.3413C16.9485 16.9333 17.2176 16.6165 17.5692 16.3908C17.9251 16.1651 18.3461 16.0522 18.8322 16.0522C19.34 16.0522 19.7697 16.1651 20.1213 16.3908C20.4772 16.6165 20.7463 16.9312 20.9285 17.3348C21.1108 17.7384 21.202 18.2094 21.202 18.7476C21.202 19.2858 21.1087 19.7567 20.922 20.1603C20.7397 20.564 20.4706 20.8765 20.1147 21.0978C19.7588 21.3192 19.3313 21.4298 18.8322 21.4298C18.3331 21.4298 17.9077 21.317 17.5562 21.0913C17.2046 20.8656 16.9377 20.5509 16.7554 20.1473C16.5731 19.7437 16.4841 19.2771 16.4884 18.7476ZM18.064 18.7476C18.0683 19.1425 18.1377 19.455 18.2723 19.6851C18.4112 19.9151 18.5978 20.0323 18.8322 20.0366C19.0883 20.0323 19.2836 19.9173 19.4181 19.6916C19.5527 19.4615 19.6221 19.1469 19.6265 18.7476C19.6221 18.3439 19.5549 18.0271 19.4246 17.797C19.2944 17.567 19.097 17.4542 18.8322 17.4585C18.5891 17.4542 18.4003 17.5713 18.2658 17.8101C18.1356 18.0488 18.0683 18.3613 18.064 18.7476Z" fill="black"/>
<path id="Vector_2" d="M4.17057 21.1304C3.42405 21.1304 2.7513 21.0132 2.15234 20.7788C1.55773 20.5444 1.08898 20.2233 0.746094 19.8153C0.407552 19.4073 0.238281 18.9516 0.238281 18.4481C0.238281 18.0661 0.333767 17.7124 0.52474 17.3869C0.720052 17.057 0.982639 16.7858 1.3125 16.5731C1.64236 16.3561 2.00911 16.2172 2.41276 16.1564V16.0783C2.0612 16.0175 1.74653 15.8895 1.46875 15.6942C1.19531 15.4989 0.980469 15.2536 0.824219 14.9585C0.667969 14.6634 0.589844 14.3422 0.589844 13.995C0.589844 13.5088 0.743924 13.0726 1.05208 12.6864C1.36458 12.3001 1.7921 11.9963 2.33464 11.7749C2.88151 11.5535 3.49349 11.4429 4.17057 11.4429C4.84766 11.4429 5.45747 11.5535 6 11.7749C6.54253 11.9963 6.96788 12.3022 7.27604 12.6929C7.5842 13.0792 7.73828 13.5132 7.73828 13.995C7.73828 14.3422 7.66016 14.6634 7.50391 14.9585C7.34766 15.2536 7.13064 15.4989 6.85286 15.6942C6.57509 15.8895 6.26259 16.0175 5.91536 16.0783V16.1564C6.31467 16.2172 6.67925 16.3561 7.00911 16.5731C7.34332 16.7858 7.6059 17.057 7.79688 17.3869C7.99219 17.7124 8.08984 18.0661 8.08984 18.4481C8.08984 18.9516 7.92057 19.4073 7.58203 19.8153C7.24349 20.2233 6.77474 20.5444 6.17578 20.7788C5.58116 21.0132 4.91276 21.1304 4.17057 21.1304ZM2.86849 18.1616C2.86849 18.383 2.92274 18.5826 3.03125 18.7606C3.1441 18.9385 3.29818 19.0796 3.49349 19.1838C3.69314 19.2836 3.91884 19.3335 4.17057 19.3335C4.41797 19.3335 4.63932 19.2836 4.83464 19.1838C5.03429 19.0796 5.19054 18.9385 5.30339 18.7606C5.41623 18.5826 5.47266 18.383 5.47266 18.1616C5.47266 17.9403 5.41623 17.7428 5.30339 17.5692C5.19054 17.3912 5.03429 17.2523 4.83464 17.1525C4.63932 17.0527 4.41797 17.0028 4.17057 17.0028C3.92318 17.0028 3.69965 17.0527 3.5 17.1525C3.30035 17.2523 3.1441 17.3912 3.03125 17.5692C2.92274 17.7428 2.86849 17.9403 2.86849 18.1616ZM3.02474 14.2814C3.02474 14.4811 3.07248 14.6634 3.16797 14.8283C3.2678 14.9889 3.40451 15.1169 3.57812 15.2124C3.75174 15.3035 3.94922 15.3491 4.17057 15.3491C4.38759 15.3491 4.5829 15.3035 4.75651 15.2124C4.93446 15.1169 5.07118 14.9889 5.16667 14.8283C5.26649 14.6634 5.31641 14.4811 5.31641 14.2814C5.31641 14.0818 5.26649 13.9038 5.16667 13.7476C5.07118 13.587 4.93446 13.4633 4.75651 13.3765C4.5829 13.2853 4.38759 13.2397 4.17057 13.2397C3.94922 13.2397 3.74957 13.2853 3.57161 13.3765C3.398 13.4633 3.26345 13.587 3.16797 13.7476C3.07248 13.9038 3.02474 14.0818 3.02474 14.2814Z" fill="black"/>
<path id="Vector_3" d="M17.3965 2.28739C17.3965 2.71328 17.3911 3.08628 17.3802 3.40637C17.3721 3.72375 17.3449 4.09403 17.2988 4.51721C17.2554 4.94039 17.1876 5.40154 17.0954 5.90068L15.9072 5.7786C16.032 5.17097 16.1134 4.62165 16.1514 4.13066C16.1921 3.63966 16.2165 3.1012 16.2246 2.51526H11.8952V1.58752H17.3965V2.28739ZM11.1953 6.6331H13.5635V4.09403H14.7272V6.6331H18.0068V7.57711H11.1953V6.6331Z" fill="black"/>
<path id="Vector_4" d="M7.03695 6.08785C7.68528 6.04716 8.25494 5.99019 8.74593 5.91695L8.83545 6.77144C8.11117 6.9125 7.37196 7.00338 6.61784 7.04407C5.86643 7.08476 5.04584 7.1051 4.15609 7.1051L4.02588 6.16923C4.72032 6.16923 5.3361 6.16109 5.87321 6.14482V5.04618H7.03695V6.08785ZM4.14795 4.39514C4.67963 4.25951 5.08382 4.04656 5.36051 3.75631C5.63721 3.46605 5.7959 3.13646 5.83659 2.76754H4.40023V1.83167H5.87321V1.05042H7.03695V1.83167H8.51807V2.76754H7.06543C7.10612 3.11747 7.26617 3.4335 7.54557 3.71562C7.82769 3.99502 8.23324 4.19712 8.76221 4.3219L8.23324 5.21708C7.81548 5.11671 7.45877 4.95938 7.16309 4.74508C6.8674 4.53078 6.63276 4.27443 6.45915 3.97603C6.28825 4.29342 6.05631 4.56333 5.76335 4.78577C5.47038 5.00821 5.11366 5.17097 4.6932 5.27405L4.14795 4.39514ZM9.14469 0.977173H10.3084V8.46415H9.14469V0.977173Z" fill="black"/>
</g>
</svg>
