<?xml version="1.0" encoding="UTF-8"?>
<svg version="1.1" xmlns="http://www.w3.org/2000/svg" width="current" height="current">
<path d="M0 0 C3.5625 0.4375 3.5625 0.4375 5.625 2.5625 C6.81919488 6.22469764 6.09138746 7.97738627 4.5625 11.4375 C5.305 11.045625 6.0475 10.65375 6.8125 10.25 C9.5625 9.4375 9.5625 9.4375 11.875 10.4375 C13.5625 12.4375 13.5625 12.4375 13.9375 15.25 C13.5625 18.4375 13.5625 18.4375 11.5625 24.4375 C4.3025 24.4375 -2.9575 24.4375 -10.4375 24.4375 C-10.4375 16.4375 -10.4375 16.4375 -7.9375 13.5625 C-6.7 12.510625 -6.7 12.510625 -5.4375 11.4375 C-5.4375 9.60369324 -5.49704863 7.77013836 -5.5625 5.9375 C-5.3924606 1.17639692 -4.69593572 0.59766455 0 0 Z M2.5625 13.4375 C3.5625 16.4375 3.5625 16.4375 3.5625 16.4375 Z " fill="current" transform="translate(10.4375,-0.4375)"/>
</svg>
