<svg width="80" height="48" viewBox="0 0 80 48" fill="none" xmlns="http://www.w3.org/2000/svg">
<g id="Img_Banner Logo">
<g id="Vector">
<path id="Vector_2" d="M73.4957 32.7495V42.066C73.4957 43.1281 72.634 43.9898 71.572 43.9898H8.77134C7.70929 43.9898 6.84756 43.1281 6.84756 42.066V32.7495H3V46.0761C3 47.1382 3.86173 47.9999 4.92378 47.9999H75.4195C76.4816 47.9999 77.3433 47.1382 77.3433 46.0761V32.7495H73.4957Z" fill="#1D3370"/>
<path id="Vector_3" d="M75.4195 0H4.92378C3.86173 0 3 0.861732 3 1.92378V15.2542H6.84756V5.86205C6.88535 4.83401 7.72819 4.01008 8.76756 4.01008H71.5682C72.6302 4.01008 73.492 4.87181 73.492 5.93386V15.2542H77.3395V1.92378C77.3395 0.861732 76.4778 0 75.4157 0H75.4195Z" fill="#D51124"/>
<path id="Vector_4" d="M9.94667 21.2182H14.4897V18.4629H16.1375V25.5382H13.1215V27.0613H17.5246V28.1725H6.88525V27.0613H11.2846V25.5382H9.65565C9.29281 25.5382 8.97533 25.3983 8.70321 25.1149C8.43108 24.8314 8.29502 24.4799 8.29502 24.0566V18.4629H9.94289V21.2182H9.94667ZM9.94667 22.3558V23.8071C9.94667 23.9848 10.0109 24.1246 10.1394 24.2304C10.2717 24.3363 10.4191 24.3892 10.5892 24.3892H14.4897V22.3558H9.94667Z" fill="#203A8F"/>
<path id="Vector_5" d="M36.3694 22.8738C36.4715 22.5677 36.5471 22.2237 36.6 21.8344C36.6491 21.4451 36.6756 21.0521 36.6756 20.6439V19.6234H30.4809V18.5273H38.3234V20.6552C38.3234 21.0634 38.2932 21.4603 38.2403 21.8458C38.1836 22.2313 38.1118 22.579 38.0286 22.8738H39.7068V23.9699H29.0674V22.8738H36.3694Z" fill="#203A8F"/>
<path id="Vector_6" d="M30.4697 24.9373V28.0516C30.4697 28.4749 30.5869 28.8302 30.825 29.1174C31.0631 29.4047 31.3504 29.5483 31.6867 29.5483H38.3085V24.9373H30.4697ZM36.6606 28.456H32.7715C32.5976 28.456 32.4426 28.4144 32.3104 28.3275C32.1819 28.2481 32.1176 28.1234 32.1176 27.9647V26.0295H36.6644V28.4522L36.6606 28.456Z" fill="#203A8F"/>
<path id="Vector_7" d="M63.0111 23.4935H73.6505V24.5896H69.2473V25.4173H72.2483V29.5408H65.6265C65.2902 29.5408 65.0029 29.3971 64.761 29.1099C64.5267 28.8264 64.4057 28.4674 64.4057 28.0478V25.4173H67.4067V24.5896H63.0073V23.4935H63.0111ZM64.2848 19.6195V18.5234H72.3919V19.6195H71.0124V20.2998C71.0124 20.519 70.9859 20.7647 70.933 21.0406C70.8801 21.3127 70.812 21.5508 70.7289 21.7134H72.3881V22.8056H64.281V21.7134H65.6492V19.6195H64.281H64.2848ZM66.0574 26.5134V27.9534C66.0574 28.1121 66.1254 28.2368 66.2539 28.32C66.3824 28.4031 66.5374 28.4485 66.715 28.4485H70.6042V26.5134H66.0574ZM67.3009 21.7134H69.081C69.1944 21.5319 69.27 21.2938 69.3078 21.0293C69.3456 20.7609 69.3645 20.5228 69.3645 20.2998V19.6195H67.3009V21.7134Z" fill="#203A8F"/>
<path id="Vector_8" d="M45.7425 18.002C43.2858 18.002 41.9932 19.2227 41.9932 20.4813C41.9932 21.7399 43.2858 22.9607 45.7425 22.9607C48.1991 22.9607 49.4955 21.7361 49.4955 20.4813C49.4955 19.2265 48.2029 18.002 45.7425 18.002ZM45.7425 22.0309C44.3365 22.0309 43.641 21.2334 43.641 20.4813C43.641 19.7292 44.3365 18.9317 45.7425 18.9317C47.0502 18.9317 47.8477 19.733 47.8477 20.4813C47.8477 21.2297 47.0502 22.0309 45.7425 22.0309Z" fill="#203A8F"/>
<path id="Vector_9" d="M45.7425 25.1377C43.2858 25.1377 41.9932 26.3131 41.9932 27.5301C41.9932 28.7471 43.2858 29.9188 45.7425 29.9188C48.1991 29.9188 49.4955 28.7358 49.4955 27.5301C49.4955 26.3245 48.2029 25.1377 45.7425 25.1377ZM45.7425 28.9739C44.3365 28.9739 43.641 28.2331 43.641 27.5301C43.641 26.8271 44.3365 26.0826 45.7425 26.0826C47.0502 26.0826 47.8477 26.8271 47.8477 27.5301C47.8477 28.2331 47.0502 28.9739 45.7425 28.9739Z" fill="#203A8F"/>
<path id="Vector_10" d="M43.4484 23.2593H40.4248V24.3553H43.1914V25.9238H44.7221V24.3553H46.7291V25.9238H48.2976V24.3553H51.0642V23.2593H48.0406H43.4484Z" fill="#203A8F"/>
<path id="Vector_11" d="M57.5538 24.3552C55.6414 24.3552 54.0918 25.6025 54.0918 27.1407C54.0918 28.679 55.6414 29.93 57.5538 29.93C59.4663 29.93 61.0159 28.6828 61.0159 27.1407C61.0159 25.5987 59.4663 24.3552 57.5538 24.3552ZM57.5538 28.8869C56.5258 28.8869 55.6981 28.1083 55.6981 27.1445C55.6981 26.1807 56.5258 25.4022 57.5538 25.4022C58.5819 25.4022 59.4096 26.1807 59.4096 27.1445C59.4096 28.1083 58.5781 28.8869 57.5538 28.8869Z" fill="#203A8F"/>
<path id="Vector_12" d="M60.8798 20.4283V18.2739H59.2319V21.838V24.4837V25.1527H60.8798V21.5205H62.5617V20.4283H60.8798Z" fill="#203A8F"/>
<path id="Vector_13" d="M55.8568 19.1623V18.5273H54.0199V19.1623C54.0199 21.6114 53.0599 22.5299 51.7446 22.7377V23.8338C53.9897 23.6373 54.9346 21.7588 54.9346 21.7588C54.9346 21.7588 55.8794 23.3916 58.1282 23.5919V22.4958C56.8168 22.288 55.853 21.6077 55.853 19.1585L55.8568 19.1623Z" fill="#203A8F"/>
<path id="Vector_14" d="M23.5871 20.3188C21.7389 20.3188 20.2422 21.6114 20.2422 23.2064C20.2422 24.8014 21.7389 26.0977 23.5871 26.0977C25.4353 26.0977 26.9282 24.8014 26.9282 23.2064C26.9282 21.6114 25.4315 20.3188 23.5871 20.3188ZM23.5871 25.1793C22.5779 25.1793 21.7616 24.2949 21.7616 23.2064C21.7616 22.1179 22.5779 21.2335 23.5871 21.2335C24.5962 21.2335 25.4126 22.1179 25.4126 23.2064C25.4126 24.2949 24.5962 25.1793 23.5871 25.1793Z" fill="#203A8F"/>
<path id="Vector_15" d="M24.5056 27.0651V25.3152H22.6688V27.0651H18.2656V28.1763H28.9088V27.0651H24.5056Z" fill="#203A8F"/>
<path id="Vector_16" d="M24.5321 19.5137V18.1379H22.6386V19.5137H19.373V19.5326V20.6286H21.4291H25.7567H27.8014V19.5326V19.5137H24.5321Z" fill="#203A8F"/>
<path id="Vector_17" d="M35.209 38.2601C35.1296 38.3017 35.0313 38.3319 34.9104 38.3508C34.7894 38.3735 34.6723 38.381 34.5589 38.381H31.3198V37.8935H32.6729V37.0317H33.3797V37.8935H34.5438C34.676 37.8935 34.797 37.8821 34.9104 37.8595C35.0238 37.8368 35.122 37.8028 35.209 37.7574V34.0043H35.9157V39.4771H35.209V38.2563V38.2601ZM34.5664 35.0475H33.4515V35.0966C33.4515 35.5615 33.5535 35.947 33.7576 36.2494C33.9617 36.5517 34.2565 36.7521 34.6345 36.8465V37.3606C34.4493 37.3417 34.2679 37.2963 34.094 37.2245C33.9201 37.1527 33.7576 37.0695 33.614 36.9713C33.4628 36.8768 33.3419 36.771 33.2436 36.6613C33.1453 36.5517 33.0886 36.4421 33.066 36.3363C33.0357 36.4384 32.9677 36.5442 32.8694 36.6576C32.7712 36.7672 32.6464 36.873 32.5028 36.9713C32.363 37.0658 32.208 37.1527 32.0342 37.2207C31.8641 37.2925 31.6902 37.3417 31.5201 37.3643V36.8503C31.8754 36.7445 32.1627 36.5404 32.3781 36.2456C32.5935 35.947 32.7031 35.5615 32.7031 35.0928V35.055H31.5882V34.5675H32.7031V33.959H33.4477V34.5675H34.5627V35.055L34.5664 35.0475Z" fill="#203A8F"/>
<path id="Vector_18" d="M40.1149 38.2148C40.232 37.9994 40.3114 37.7537 40.3568 37.474C40.4021 37.1943 40.4248 36.8995 40.4248 36.5858V34.8132H37.3407V34.3257H41.1278V36.5934C41.1278 36.9373 41.1051 37.2473 41.056 37.5269C41.0068 37.8028 40.9388 38.0334 40.8481 38.2148H41.793V38.7024H36.6528V38.2148H38.467V36.0869H39.1776V38.2148H40.1111H40.1149Z" fill="#203A8F"/>
<path id="Vector_19" d="M50.6524 35.0324H49.5942V35.1042C49.5942 35.5615 49.7076 35.9357 49.9268 36.2229C50.1498 36.514 50.4332 36.6954 50.7885 36.771V37.2585C50.6298 37.2548 50.4672 37.2207 50.2934 37.1603C50.1233 37.0998 49.9646 37.0242 49.8134 36.9373C49.6622 36.8466 49.5337 36.7407 49.4241 36.6274C49.3107 36.514 49.2389 36.4044 49.2087 36.2985C49.1671 36.4119 49.0953 36.5215 48.9857 36.6274C48.8761 36.737 48.7513 36.839 48.6077 36.9297C48.4641 37.0166 48.3054 37.0885 48.1391 37.1527C47.969 37.2132 47.8102 37.251 47.6553 37.2585V36.771C47.8216 36.7332 47.9728 36.6689 48.1164 36.5782C48.2562 36.4799 48.3847 36.3666 48.4943 36.2229C48.6002 36.0793 48.6871 35.913 48.7513 35.7203C48.8156 35.5313 48.8496 35.3196 48.8496 35.0891V35.0286H47.7573V34.5486H48.8496V33.9741H49.5979V34.5486H50.6562V35.0286L50.6524 35.0324ZM49.6887 39.0047H52.357V39.4885H49.2918C49.1104 39.4885 48.9668 39.4204 48.8496 39.2881C48.7324 39.1521 48.672 38.9896 48.672 38.8044V37.6251H49.3901V38.7439C49.3901 38.8157 49.4203 38.8799 49.477 38.9329C49.5375 38.9858 49.6093 39.0122 49.6887 39.0122V39.0047ZM50.4483 35.5124H51.6427V34.0119H52.357V37.9199H51.6427V35.9962H50.4483V35.5124Z" fill="#203A8F"/>
<path id="Vector_20" d="M53.313 34.2197V36.3211C53.313 36.5215 53.3772 36.6878 53.5133 36.82C53.6494 36.9561 53.8119 37.0166 54.0009 37.0166H56.1098V34.2197H53.313ZM55.3917 36.5328H54.3372C54.2503 36.5328 54.1747 36.5101 54.118 36.4648C54.0576 36.4194 54.0311 36.3552 54.0311 36.2758V34.6997H55.3917V36.5328Z" fill="#203A8F"/>
<path id="Vector_21" d="M55.0816 39.0047H57.818V39.4885H54.6772C54.5034 39.4885 54.356 39.4204 54.2388 39.2882C54.1254 39.1521 54.0649 38.9896 54.0649 38.8044V37.5647H54.7793V38.7439C54.7793 38.8157 54.8095 38.88 54.87 38.9329C54.9267 38.9858 54.9985 39.0123 55.0816 39.0123V39.0047Z" fill="#203A8F"/>
<path id="Vector_22" d="M57.7503 35.8147V37.9199H57.0322V34.0081H57.7503V35.3309H58.5667V35.8147H57.7503Z" fill="#203A8F"/>
<path id="Vector_23" d="M45.2968 36.2418C45.516 36.2418 45.7314 36.2796 45.9469 36.3438C46.151 36.4156 46.3362 36.5064 46.5062 36.6349C46.665 36.7634 46.7973 36.9297 46.8993 37.1111C46.9976 37.3038 47.0505 37.523 47.0505 37.7649C47.0505 38.0257 47.0089 38.2714 46.9295 38.483C46.8426 38.7136 46.7217 38.9063 46.5667 39.0613C46.408 39.22 46.219 39.3448 45.9922 39.4317C45.7541 39.5186 45.4933 39.5678 45.1947 39.5678C44.9944 39.5602 44.8168 39.5413 44.6618 39.5111C44.4993 39.4733 44.3557 39.4393 44.2423 39.4052C44.1176 39.3637 44.0155 39.3221 43.9362 39.2805C43.8454 39.2389 43.7774 39.2012 43.7358 39.1747L44.0004 38.6758C44.0571 38.7325 44.1365 38.7741 44.2347 38.8119C44.333 38.8534 44.4388 38.8837 44.556 38.9139C44.6618 38.9404 44.7714 38.963 44.8848 38.9782C44.9944 38.9971 45.0851 39.0046 45.1683 39.0046C45.4404 39.0008 45.6483 38.9517 45.8032 38.8497C45.9469 38.7552 46.0602 38.6418 46.1396 38.5171C46.2114 38.3961 46.2606 38.2752 46.2832 38.1467C46.2984 38.0257 46.3021 37.935 46.3021 37.8632C46.2908 37.6213 46.2454 37.4286 46.1623 37.2849C46.0754 37.1489 45.9695 37.043 45.8562 36.9712C45.7277 36.9032 45.6067 36.8578 45.4782 36.8352C45.3459 36.8201 45.2288 36.8125 45.1305 36.8125C44.9377 36.8125 44.745 36.8427 44.5484 36.8843C44.3443 36.9334 44.1554 36.9977 43.9853 37.0695V34.2273H46.8804V34.8812H44.6921V36.3098C44.7828 36.2985 44.8848 36.2834 44.9906 36.272C45.0889 36.2569 45.1985 36.2493 45.3119 36.2493L45.2968 36.2418Z" fill="#203A8F"/>
<path id="Vector_24" d="M60.8796 39.0046H63.548V39.4884H60.479C60.3013 39.4884 60.1539 39.4203 60.0406 39.2881C59.9234 39.152 59.8667 38.9933 59.8667 38.8005V37.9766H60.5848V38.7438C60.5848 38.8156 60.615 38.8761 60.6717 38.929C60.7322 38.9819 60.8002 39.0084 60.8834 39.0084L60.8796 39.0046Z" fill="#203A8F"/>
<path id="Vector_25" d="M63.5479 34.0081V38.3243H62.8297V37.7876H61.5674V37.3076H62.8297V34.0081H63.5479Z" fill="#203A8F"/>
<path id="Vector_26" d="M60.6304 33.959C59.8026 33.959 59.1299 34.4919 59.1299 35.1533C59.1299 35.8147 59.8026 36.3476 60.6304 36.3476C61.4581 36.3476 62.1346 35.811 62.1346 35.1533C62.1346 34.4957 61.4619 33.959 60.6304 33.959ZM60.6304 35.9319C60.1995 35.9319 59.8442 35.5804 59.8442 35.1533C59.8442 34.7262 60.1957 34.371 60.6304 34.371C61.065 34.371 61.4165 34.7225 61.4165 35.1533C61.4165 35.5842 61.065 35.9319 60.6304 35.9319Z" fill="#203A8F"/>
<path id="Vector_27" d="M59.379 36.5063H58.7705V36.9863H60.2672V37.7876H60.9929V36.9863H62.4896V36.5063H61.454H59.379Z" fill="#203A8F"/>
<path id="Vector_28" d="M17.9481 34.2842V39.413H17.2413V34.9532L16.3267 35.3878V34.802L17.4378 34.2842H17.9519H17.9481Z" fill="#203A8F"/>
<path id="Vector_29" d="M23.6814 33.9932H22.9897V37.9201H23.6814V33.9932Z" fill="#203A8F"/>
<path id="Vector_30" d="M22.0829 34.9379C21.9922 34.7451 21.875 34.5826 21.7238 34.4465C21.5726 34.3142 21.4025 34.216 21.206 34.1442C21.0133 34.0723 20.8129 34.0383 20.6088 34.0383C20.4048 34.0383 20.1931 34.0761 19.9966 34.1517C19.8 34.2311 19.6299 34.3369 19.4788 34.473C19.3276 34.609 19.2104 34.7716 19.1235 34.9568C19.0366 35.1495 18.9912 35.3574 18.9912 35.5804C18.9912 35.8298 19.0328 36.049 19.1197 36.2418C19.2066 36.4346 19.3238 36.5933 19.4712 36.7256C19.6224 36.8616 19.7925 36.9599 19.989 37.0279C20.1855 37.096 20.3896 37.13 20.6088 37.13C20.8281 37.13 21.017 37.0922 21.2136 37.0242C21.4063 36.9561 21.5802 36.8541 21.7276 36.718C21.875 36.5895 21.9922 36.427 22.0829 36.2342C22.1736 36.0415 22.2189 35.826 22.2189 35.5804C22.2189 35.3347 22.1736 35.1231 22.0829 34.9379ZM19.7169 35.5804C19.7169 35.4216 19.7396 35.278 19.7925 35.1457C19.8416 35.0172 19.9096 34.9114 19.9928 34.8245C20.0759 34.7375 20.1704 34.6695 20.2762 34.6242C20.3821 34.575 20.4917 34.5523 20.6088 34.5523C20.8356 34.5523 21.0397 34.6393 21.2211 34.8169C21.4025 34.9946 21.4933 35.2478 21.4933 35.5804C21.4895 35.9016 21.395 36.1511 21.2136 36.3363C21.0322 36.5215 20.8281 36.6122 20.6013 36.6122C20.4841 36.6122 20.3745 36.5895 20.2687 36.5442C20.1629 36.4988 20.0684 36.427 19.9852 36.3363C19.9059 36.2494 19.8378 36.1435 19.7925 36.015C19.7433 35.8903 19.7169 35.7429 19.7169 35.5804Z" fill="#203A8F"/>
<path id="Vector_31" d="M20.9379 38.9481C20.8623 38.9481 20.7943 38.9217 20.7376 38.8688C20.6809 38.8158 20.6544 38.7554 20.6544 38.6836V37.561H19.9741V38.744C19.9741 38.933 20.0308 39.0955 20.1404 39.2278C20.25 39.3639 20.3899 39.4319 20.5599 39.4319H23.7536V38.9481H20.9417H20.9379Z" fill="#203A8F"/>
<path id="Vector_32" d="M28.8521 35.0212V33.9932H28.1453V35.9585C28.066 36.0001 27.9904 36.0303 27.9072 36.0492C27.8278 36.0719 27.7447 36.0832 27.6578 36.0946C27.5671 36.1021 27.4763 36.1059 27.3819 36.1059H25.4656C25.3712 36.1059 25.2918 36.0832 25.2351 36.0379C25.1784 35.9888 25.1482 35.9321 25.1482 35.8565V34.6773H27.0719V34.1935H24.4263V35.8678C24.4263 36.0681 24.4867 36.2382 24.6077 36.378C24.7286 36.5179 24.8836 36.5859 25.0688 36.5859H27.0871C27.2723 36.5859 27.4612 36.5746 27.6464 36.5519C27.8316 36.5292 27.9979 36.4839 28.1378 36.4158V37.0962C28.0508 37.0508 27.9563 37.013 27.8581 36.9828C27.7334 36.9412 27.6049 36.9223 27.4763 36.9072C27.4688 36.9072 27.4612 36.9072 27.4537 36.9072C27.3932 36.9034 27.3327 36.8958 27.2685 36.8958H27.2496C27.1626 36.8958 27.0795 36.9034 26.9963 36.9185H26.9888C26.9019 36.9299 26.8187 36.9525 26.7356 36.979C26.7242 36.979 26.7167 36.979 26.7091 36.9865C26.7091 36.9865 26.7091 36.9865 26.7053 36.9865C26.6902 36.9903 26.6751 36.9903 26.66 36.9979C26.6033 37.0206 26.5504 37.047 26.4975 37.0697C26.4748 37.081 26.4521 37.0886 26.4332 37.0999C26.3349 37.1528 26.2404 37.2095 26.1573 37.2738C26.0061 37.3947 25.8852 37.5384 25.7982 37.7009C25.7264 37.8294 25.6886 37.973 25.6773 38.1204C25.6773 38.1431 25.6697 38.1582 25.6697 38.1847V38.2262C25.666 38.4303 25.7075 38.6155 25.7982 38.778C25.8889 38.9406 26.0061 39.0804 26.1535 39.1938C26.3009 39.311 26.471 39.4017 26.66 39.4584C26.7847 39.4962 26.9132 39.5188 27.0417 39.5339C27.0493 39.5339 27.0568 39.5339 27.0644 39.5339C27.1249 39.5415 27.1891 39.5491 27.2496 39.5491H27.2571C27.2571 39.5491 27.2647 39.5491 27.2685 39.5491C27.3554 39.5491 27.4386 39.5377 27.5217 39.5264H27.5293C27.6162 39.5151 27.6993 39.4886 27.7825 39.4659C27.79 39.4659 27.8014 39.4621 27.8089 39.4584H27.8127C27.8278 39.4546 27.843 39.4508 27.8581 39.447C27.9148 39.4243 27.9677 39.3979 28.0206 39.3714C28.0395 39.3601 28.066 39.3525 28.0849 39.3412C28.1831 39.2921 28.2738 39.2354 28.3608 39.1636C28.5119 39.0426 28.6329 38.9028 28.7198 38.7402C28.7916 38.608 28.8294 38.4681 28.8408 38.3207C28.8408 38.298 28.8445 38.2829 28.8445 38.2565V38.2149C28.8483 38.0108 28.8067 37.8256 28.716 37.6669C28.6329 37.5081 28.5233 37.3834 28.3872 37.27H28.8445V35.5352H29.7289V35.0212H28.8445H28.8521ZM28.0622 38.5891C28.0093 38.6949 27.9375 38.7856 27.8505 38.865C27.7674 38.9406 27.6729 38.9973 27.5633 39.0388C27.4612 39.0804 27.3592 39.0993 27.2609 39.0993C27.1626 39.0993 27.053 39.0804 26.9548 39.0426C26.8527 39.001 26.7545 38.9443 26.6675 38.8688C26.5844 38.7932 26.5163 38.7025 26.4672 38.5928C26.4143 38.4832 26.3878 38.3585 26.3841 38.2187C26.3841 38.0864 26.4105 37.9654 26.4634 37.8596C26.5163 37.7538 26.5882 37.6593 26.6751 37.5837C26.7582 37.5081 26.8527 37.4514 26.9623 37.4099C27.0644 37.3683 27.1664 37.3494 27.2647 37.3494C27.3667 37.3494 27.4688 37.3683 27.5708 37.4061C27.6729 37.4477 27.7712 37.5043 27.8543 37.5799C27.9375 37.6555 28.0055 37.75 28.0546 37.8596C28.1038 37.9654 28.1302 38.0826 28.1378 38.2149V38.2376C28.1378 38.3699 28.1113 38.4832 28.0584 38.5928L28.0622 38.5891Z" fill="#203A8F"/>
<path id="Vector_33" d="M51.5407 12.567L51.4651 12.4536C51.3631 12.3062 51.2308 12.1777 51.0758 12.0718C50.8869 11.932 50.6563 11.8262 50.3993 11.7468C50.1423 11.6712 49.8588 11.6296 49.5678 11.6296C49.2768 11.6296 48.9858 11.6674 48.7288 11.7468C48.4718 11.8262 48.245 11.9396 48.056 12.0794C47.8595 12.2155 47.7083 12.3855 47.6025 12.5783C47.4966 12.7711 47.4399 12.9827 47.4399 13.2057C47.4399 13.4287 47.4966 13.6479 47.6025 13.8407C47.7083 14.0334 47.8632 14.2035 48.0598 14.3396C48.2488 14.4794 48.4755 14.5928 48.7325 14.6722C48.9895 14.7515 49.2692 14.7893 49.5716 14.7893C49.874 14.7893 50.1461 14.7515 50.4031 14.6722C50.6601 14.5966 50.8906 14.487 51.0796 14.3471C51.2308 14.2413 51.3631 14.1128 51.4689 13.9654L51.5445 13.8482L51.6201 13.697C51.6806 13.5459 51.7146 13.3796 51.7146 13.2095C51.7146 13.0394 51.6806 12.8693 51.6201 12.7181L51.5445 12.5632L51.5407 12.567ZM50.8264 13.2057V13.2133V13.2208C50.8264 13.3644 50.7924 13.5005 50.7243 13.629C50.6563 13.7575 50.5656 13.8709 50.4522 13.9654C50.3426 14.0599 50.2103 14.1355 50.0554 14.1922C49.9004 14.2451 49.7379 14.2715 49.5678 14.2715C49.3977 14.2715 49.2239 14.2451 49.0727 14.1922C48.9177 14.1392 48.7855 14.0637 48.6758 13.9654C48.5662 13.8709 48.4755 13.7575 48.4075 13.629C48.3432 13.5005 48.3092 13.3644 48.3092 13.2208V13.2133V13.2057C48.3092 13.0583 48.3432 12.926 48.4075 12.7975C48.4718 12.669 48.5625 12.5556 48.6758 12.4611C48.7855 12.3666 48.9177 12.2911 49.0727 12.2344C49.2277 12.1814 49.3902 12.155 49.5678 12.155C49.7455 12.155 49.9004 12.1814 50.0554 12.2344C50.2103 12.2911 50.3426 12.3629 50.4522 12.4611C50.5656 12.5556 50.6525 12.669 50.7243 12.7975C50.7924 12.926 50.8264 13.0621 50.8264 13.2057Z" fill="#203A8F"/>
<path id="Vector_34" d="M27.0605 8.18262H26.2139V14.468H27.0605V8.18262Z" fill="#203A8F"/>
<path id="Vector_35" d="M51.6688 10.2124C51.7029 9.99696 51.718 9.77775 51.718 9.55475V8.31885H47.3602V8.87822H50.8676V9.54719C50.8676 9.77019 50.8525 9.9894 50.8222 10.2048C50.792 10.4203 50.7504 10.6092 50.6899 10.7755H49.5032V9.70215H48.6717V10.7755H46.627V11.3349H52.5117V10.7755H51.5441C51.5933 10.613 51.631 10.424 51.6651 10.2086L51.6688 10.2124Z" fill="#203A8F"/>
<path id="Vector_36" d="M32.7754 10.1519C32.8057 9.94026 32.8246 9.72105 32.8246 9.49428V8.31885H28.4668V8.87822H31.9779V9.48672C31.9779 9.70971 31.9628 9.92893 31.9326 10.1444C31.9023 10.3598 31.8608 10.5488 31.8003 10.7188H27.7373V11.2782H33.622V10.7188H32.6545C32.7036 10.5563 32.7414 10.3674 32.7754 10.1519Z" fill="#203A8F"/>
<path id="Vector_37" d="M37.4275 12.0264H39.2643V8.32251H38.4177V9.64534H35.5982V8.32251H34.7516V11.2101C34.7516 11.4444 34.8309 11.6372 34.9859 11.7959C35.1409 11.9509 35.3223 12.0302 35.5339 12.0302H36.5733V13.1641H33.939V13.7235H40.0656V13.1641H37.4312V12.0302L37.4275 12.0264ZM35.9686 11.4671C35.8703 11.4671 35.7872 11.4368 35.7116 11.3801C35.636 11.3197 35.5982 11.2441 35.5982 11.1458V10.2047H38.4177V11.4671H35.9686Z" fill="#203A8F"/>
<path id="Vector_38" d="M41.438 13.6442C41.438 13.8785 41.5098 14.0713 41.6459 14.23C41.7819 14.3888 41.9482 14.4681 42.141 14.4681H45.7126V12.2798H41.438V13.6442ZM42.2846 12.8392H44.866V13.9125H42.6626C42.5605 13.9125 42.4736 13.8899 42.398 13.8445C42.3224 13.7954 42.2846 13.7273 42.2846 13.6404V12.8429V12.8392Z" fill="#203A8F"/>
<path id="Vector_39" d="M28.542 13.6441C28.542 13.8785 28.61 14.0712 28.7499 14.23C28.8859 14.3887 29.0522 14.4681 29.245 14.4681H32.8166V12.0454H28.542V13.6441ZM29.3886 12.6048H31.97V13.9087H29.7703C29.6683 13.9087 29.5776 13.886 29.502 13.8407C29.4264 13.7916 29.3886 13.7235 29.3886 13.6366V12.6048Z" fill="#203A8F"/>
<path id="Vector_40" d="M55.6035 11.1648C55.3541 10.7302 55.2331 10.2313 55.2369 9.66058V8.31885H54.3487V9.64924C54.3449 9.92893 54.3072 10.1973 54.2391 10.4543C54.1711 10.7113 54.0766 10.9456 53.9519 11.1611C53.8347 11.3727 53.6873 11.5541 53.5134 11.7129C53.3396 11.8716 53.1468 11.9888 52.939 12.0681V12.6577C53.1279 12.6351 53.3207 12.5746 53.5248 12.4839C53.7251 12.3894 53.9141 12.2798 54.0842 12.1475C54.2542 12.019 54.4054 11.8716 54.5264 11.7129C54.6511 11.5541 54.7342 11.3954 54.7758 11.2366C54.8136 11.3916 54.8968 11.5466 55.0215 11.7053C55.1462 11.864 55.3012 12.0077 55.475 12.1437C55.6451 12.276 55.8379 12.3856 56.042 12.4801C56.2498 12.5746 56.4501 12.6313 56.6429 12.654V12.0644C56.1969 11.8981 55.8492 11.5957 55.5997 11.1611L55.6035 11.1648Z" fill="#203A8F"/>
<path id="Vector_41" d="M58.2569 10.1593V8.18262H57.4141V14.468H58.2569V10.7187H59.2245V10.1593H58.2569Z" fill="#203A8F"/>
<path id="Vector_42" d="M24.7925 9.19565H23.9762C23.9384 9.12384 23.893 9.05581 23.8477 8.99155C23.7078 8.80258 23.5415 8.65518 23.345 8.54935C23.1484 8.44352 22.933 8.39061 22.6949 8.39061C22.4568 8.39061 22.2414 8.44352 22.0448 8.54935C21.8483 8.65518 21.682 8.80258 21.5421 8.99155C21.4023 9.17675 21.2927 9.40352 21.2209 9.67187C21.1453 9.94021 21.1113 10.235 21.1151 10.5563C21.1113 10.87 21.1415 11.1572 21.2171 11.4218C21.2889 11.6864 21.3947 11.9169 21.5346 12.1059C21.6706 12.3024 21.8369 12.4536 22.0373 12.5594C22.2338 12.6653 22.453 12.7182 22.6987 12.7182C22.9443 12.7182 23.1636 12.6653 23.3601 12.5594C23.5604 12.4536 23.7267 12.2986 23.859 12.1059C23.9006 12.0454 23.9421 11.9849 23.9762 11.9169H24.7925V14.4643H25.6392V8.17896H24.7925V9.19187V9.19565ZM23.2203 11.7393C23.0804 12.0227 22.9066 12.1664 22.6987 12.1664C22.4908 12.1664 22.3132 12.0227 22.1771 11.7393C22.0373 11.452 21.9655 11.059 21.9655 10.5563C21.9655 10.0536 22.041 9.68699 22.1847 9.39218C22.3283 9.09738 22.5021 8.94998 22.7025 8.94998C22.9028 8.94998 23.0729 9.09738 23.2203 9.39218C23.3639 9.68699 23.4357 10.0763 23.4357 10.5563C23.4357 11.0363 23.3677 11.452 23.224 11.7393H23.2203ZM24.7925 11.3613H24.1916C24.2521 11.1119 24.2823 10.8473 24.2785 10.5563C24.2823 10.2653 24.2521 10.0007 24.1916 9.75124H24.7925V11.3575V11.3613Z" fill="#203A8F"/>
<path id="Vector_43" d="M44.8658 9.92876H43.7773C43.7622 9.88718 43.7471 9.84939 43.7282 9.81159C43.645 9.6264 43.5278 9.46766 43.3729 9.33537C43.3389 9.30514 43.3011 9.2749 43.2633 9.24844H44.0532V8.68907H42.6586V8.18262H41.7628V8.68907H40.3682V9.24844H41.1354C41.0976 9.2749 41.0598 9.30514 41.0258 9.33537C40.8746 9.46766 40.7575 9.62262 40.6705 9.81159C40.5836 9.99679 40.542 10.2009 40.542 10.4277C40.542 10.6544 40.5836 10.8547 40.6705 11.0437C40.7575 11.2327 40.8746 11.3877 41.0258 11.5199C41.1732 11.6522 41.3508 11.7543 41.5512 11.8261C41.7515 11.8979 41.9669 11.9357 42.1975 11.9357C42.428 11.9357 42.6397 11.8979 42.8438 11.8261C43.0441 11.7543 43.2217 11.6522 43.3691 11.5199C43.5203 11.3914 43.6375 11.2327 43.7244 11.0437C43.8 10.8774 43.8415 10.6922 43.8491 10.4919H44.8582V11.9319H45.7049V8.1864H44.8582V9.93254L44.8658 9.92876ZM42.7795 11.108C42.6245 11.2856 42.4318 11.3763 42.205 11.3763C41.9782 11.3763 41.7855 11.2856 41.6305 11.108C41.4756 10.9303 41.3962 10.7036 41.3962 10.4239C41.3962 10.1442 41.4756 9.91742 41.6305 9.73978C41.7855 9.56214 41.9782 9.47522 42.205 9.47522C42.4318 9.47522 42.6245 9.56214 42.7795 9.73978C42.9345 9.91742 43.0138 10.1442 43.0138 10.4239C43.0138 10.7036 42.9345 10.9303 42.7795 11.108Z" fill="#203A8F"/>
</g>
</g>
</svg>
