<svg width="24" height="24" viewBox="0 0 24 24" fill="none" xmlns="http://www.w3.org/2000/svg">
<g id="Solid / bill">
<path id="Subtract" fill-rule="evenodd" clip-rule="evenodd" d="M4 2H20C20.2652 2 20.5196 2.10536 20.7071 2.29289C20.8946 2.48043 21 2.73478 21 3V21C20.9994 21.1847 20.9478 21.3656 20.8507 21.5227C20.7536 21.6798 20.6149 21.8069 20.45 21.89C20.284 21.9742 20.0977 22.0104 19.9122 21.9945C19.7267 21.9786 19.5493 21.9113 19.4 21.8L17.33 20.25L15.27 21.8C15.0969 21.9298 14.8864 22 14.67 22C14.4536 22 14.2431 21.9298 14.07 21.8L12 20.25L9.93 21.8C9.7569 21.9298 9.54637 22 9.33 22C9.11363 22 8.9031 21.9298 8.73 21.8L6.67 20.25L4.6 21.8C4.45143 21.9114 4.27477 21.9793 4.08981 21.996C3.90484 22.0126 3.71889 21.9775 3.55279 21.8944C3.38668 21.8114 3.24698 21.6837 3.14935 21.5257C3.05171 21.3678 3 21.1857 3 21V3C3 2.73478 3.10536 2.48043 3.29289 2.29289C3.48043 2.10536 3.73478 2 4 2ZM17.9 13.2533H15.889L15.169 15.8723C15.1062 16.1066 14.9674 16.3133 14.7746 16.4602C14.5817 16.6072 14.3455 16.686 14.103 16.6843H14.102C13.598 16.6843 13.17 16.3573 13.037 15.8723L11.9 11.7443L10.764 15.8723C10.7012 16.1066 10.5624 16.3133 10.3696 16.4602C10.1767 16.6072 9.94048 16.686 9.698 16.6843C9.194 16.6843 8.766 16.3583 8.632 15.8733L7.911 13.2533H5.9C5.66131 13.2533 5.43239 13.1585 5.2636 12.9897C5.09482 12.821 5 12.592 5 12.3533C5 12.1147 5.09482 11.8857 5.2636 11.717C5.43239 11.5482 5.66131 11.4533 5.9 11.4533H7.416L6.785 9.16135C6.7501 9.04634 6.73859 8.92551 6.75114 8.80599C6.7637 8.68646 6.80006 8.57066 6.8581 8.46541C6.91613 8.36017 6.99466 8.26762 7.08904 8.19321C7.18342 8.11881 7.29175 8.06406 7.40764 8.0322C7.52352 8.00034 7.64461 7.99201 7.76377 8.00771C7.88292 8.02341 7.99772 8.06281 8.1014 8.12359C8.20508 8.18438 8.29554 8.26531 8.36743 8.36162C8.43933 8.45793 8.4912 8.56767 8.52 8.68435L9.698 12.9623L10.834 8.83535C10.8965 8.60087 11.0351 8.3938 11.228 8.24664C11.421 8.09949 11.6573 8.02059 11.9 8.02235C12.404 8.02235 12.833 8.34935 12.966 8.83535L14.103 12.9623L15.28 8.68435C15.3113 8.57036 15.3648 8.46366 15.4373 8.37033C15.5099 8.27701 15.6001 8.19889 15.7029 8.14044C15.8056 8.08198 15.9189 8.04434 16.0362 8.02965C16.1535 8.01497 16.2725 8.02353 16.3865 8.05485C16.5005 8.08617 16.6072 8.13963 16.7005 8.21219C16.7938 8.28475 16.872 8.37498 16.9304 8.47773C16.9889 8.58047 17.0265 8.69373 17.0412 8.81102C17.0559 8.92832 17.0473 9.04736 17.016 9.16135L16.384 11.4533H17.9C18.1387 11.4533 18.3676 11.5482 18.5364 11.717C18.7052 11.8857 18.8 12.1147 18.8 12.3533C18.8 12.592 18.7052 12.821 18.5364 12.9897C18.3676 13.1585 18.1387 13.2533 17.9 13.2533Z" fill="white"/>
</g>
</svg>
