<svg width="19" height="18" viewBox="0 0 19 18" fill="none" xmlns="http://www.w3.org/2000/svg">
<g id="call-solid" clip-path="url(#clip0_652_2105)">
<path id="Vector" d="M6.04952 12.6476C9.4331 16.0312 11.9995 16.8014 14.0441 16.3148C15.1793 16.0445 16.1911 15.1198 16.8671 14.3504C17.3795 13.7666 17.2827 12.8689 16.6682 12.3935L13.9652 10.3017C13.6953 10.0928 13.312 10.1169 13.0704 10.3586L11.635 11.7939C11.4133 12.0157 11.0715 12.0597 10.8046 11.8957C10.3433 11.6125 9.56929 11.0636 8.60184 10.0957C7.63439 9.12827 7.08548 8.35431 6.80189 7.893C6.63788 7.62602 6.68189 7.2843 6.90361 7.06257L8.33901 5.62717C8.58025 5.38593 8.60475 5.00269 8.3959 4.73239L6.30404 2.02934C5.82862 1.41482 4.93051 1.31807 4.34713 1.83045C3.57774 2.506 2.65306 3.51788 2.38275 4.65349C1.89612 6.69843 2.66593 9.26404 6.04952 12.6476Z" fill="#007BFF"/>
</g>
<defs>
<clipPath id="clip0_652_2105">
<rect width="18" height="18" fill="white" transform="translate(0.75)"/>
</clipPath>
</defs>
</svg>
