<svg width="29" height="28" viewBox="0 0 29 28" fill="none" xmlns="http://www.w3.org/2000/svg">
<g id="Chat / chat">
<path id="Vector" d="M14.5001 2.33331C12.968 2.33331 11.4509 2.63508 10.0354 3.22139C8.61998 3.80769 7.33386 4.66705 6.25051 5.7504C4.06258 7.93832 2.83342 10.9058 2.83342 14C2.82322 16.694 3.75601 19.3066 5.47009 21.385L3.13675 23.7183C2.97487 23.8824 2.86521 24.0907 2.82161 24.317C2.778 24.5434 2.80241 24.7775 2.89175 24.99C2.98866 25.1999 3.14574 25.3763 3.34308 25.4968C3.54041 25.6172 3.76909 25.6764 4.00009 25.6666H14.5001C17.5943 25.6666 20.5617 24.4375 22.7497 22.2496C24.9376 20.0616 26.1668 17.0942 26.1668 14C26.1668 10.9058 24.9376 7.93832 22.7497 5.7504C20.5617 3.56248 17.5943 2.33331 14.5001 2.33331ZM14.5001 23.3333H6.81175L7.89676 22.2483C8.11405 22.0297 8.23601 21.734 8.23601 21.4258C8.23601 21.1176 8.11405 20.8219 7.89676 20.6033C6.3691 19.0774 5.41779 17.0689 5.20489 14.9202C4.992 12.7715 5.53069 10.6155 6.72919 8.81942C7.92769 7.02336 9.71184 5.6984 11.7777 5.07028C13.8435 4.44216 16.0633 4.54975 18.0587 5.37471C20.0541 6.19967 21.7017 7.69097 22.7209 9.59452C23.7401 11.4981 24.0678 13.6961 23.6481 15.8142C23.2284 17.9322 22.0873 19.8392 20.4192 21.2103C18.7512 22.5813 16.6593 23.3316 14.5001 23.3333Z" fill="#007BFF"/>
</g>
</svg>
