<svg width="19" height="18" viewBox="0 0 19 18" fill="none" xmlns="http://www.w3.org/2000/svg">
<g id="chat-solid" clip-path="url(#clip0_652_1708)">
<path id="Vector" d="M9.25 1.5C5.125 1.5 1.75 4.875 1.75 9C1.75 10.725 2.35 12.375 3.475 13.725L1.975 15.225C1.675 15.525 1.675 15.975 1.975 16.275C2.125 16.425 2.275 16.5 2.5 16.5H9.25C13.375 16.5 16.75 13.125 16.75 9C16.75 4.875 13.375 1.5 9.25 1.5ZM6.25 9.75C5.8 9.75 5.5 9.45 5.5 9C5.5 8.55 5.8 8.25 6.25 8.25C6.7 8.25 7 8.55 7 9C7 9.45 6.7 9.75 6.25 9.75ZM9.25 9.75C8.8 9.75 8.5 9.45 8.5 9C8.5 8.55 8.8 8.25 9.25 8.25C9.7 8.25 10 8.55 10 9C10 9.45 9.7 9.75 9.25 9.75ZM12.25 9.75C11.8 9.75 11.5 9.45 11.5 9C11.5 8.55 11.8 8.25 12.25 8.25C12.7 8.25 13 8.55 13 9C13 9.45 12.7 9.75 12.25 9.75Z" fill="white"/>
</g>
<defs>
<clipPath id="clip0_652_1708">
<rect width="18" height="18" fill="white" transform="translate(0.25)"/>
</clipPath>
</defs>
</svg>
