<svg width="29" height="28" viewBox="0 0 29 28" fill="none" xmlns="http://www.w3.org/2000/svg">
<g id="File and Folder / documents">
<path id="Vector" d="M19.1667 23.3333H9.83333C8.90508 23.3333 8.01484 22.9646 7.35846 22.3082C6.70208 21.6518 6.33333 20.7616 6.33333 19.8333V8.16665C6.33333 7.85723 6.21042 7.56048 5.99162 7.34169C5.77283 7.1229 5.47609 6.99998 5.16667 6.99998C4.85725 6.99998 4.5605 7.1229 4.34171 7.34169C4.12292 7.56048 4 7.85723 4 8.16665V19.8333C4 21.3804 4.61458 22.8641 5.70854 23.9581C6.80251 25.0521 8.28624 25.6666 9.83333 25.6666H19.1667C19.4761 25.6666 19.7728 25.5437 19.9916 25.3249C20.2104 25.1061 20.3333 24.8094 20.3333 24.5C20.3333 24.1906 20.2104 23.8938 19.9916 23.675C19.7728 23.4562 19.4761 23.3333 19.1667 23.3333ZM25 10.43C24.9878 10.3228 24.9644 10.2172 24.93 10.115V10.01C24.8739 9.89002 24.7991 9.77976 24.7083 9.68331L17.7083 2.68331C17.6119 2.59257 17.5016 2.51774 17.3817 2.46165H17.2767L16.9033 2.33331H12.1667C11.2384 2.33331 10.3482 2.70206 9.69179 3.35844C9.03542 4.01482 8.66667 4.90506 8.66667 5.83331V17.5C8.66667 18.4282 9.03542 19.3185 9.69179 19.9749C10.3482 20.6312 11.2384 21 12.1667 21H21.5C22.4283 21 23.3185 20.6312 23.9749 19.9749C24.6313 19.3185 25 18.4282 25 17.5V10.5C25 10.5 25 10.5 25 10.43ZM18 6.31165L21.0217 9.33331H19.1667C18.8572 9.33331 18.5605 9.2104 18.3417 8.9916C18.1229 8.77281 18 8.47607 18 8.16665V6.31165ZM22.6667 17.5C22.6667 17.8094 22.5438 18.1061 22.325 18.3249C22.1062 18.5437 21.8094 18.6666 21.5 18.6666H12.1667C11.8572 18.6666 11.5605 18.5437 11.3417 18.3249C11.1229 18.1061 11 17.8094 11 17.5V5.83331C11 5.52389 11.1229 5.22715 11.3417 5.00836C11.5605 4.78956 11.8572 4.66665 12.1667 4.66665H15.6667V8.16665C15.6667 9.0949 16.0354 9.98514 16.6918 10.6415C17.3482 11.2979 18.2384 11.6666 19.1667 11.6666H22.6667V17.5Z" fill="#007BFF"/>
</g>
</svg>
