<svg width="180" height="160" viewBox="0 0 180 160" fill="none" xmlns="http://www.w3.org/2000/svg">
<g id="Vector">
<g id="Group">
<path id="Vector_2" d="M85.1447 88.0711C94.9101 78.8377 87.7244 55.3804 69.0951 35.6776C50.4657 15.9749 27.4472 7.48774 17.6818 16.7211C7.91641 25.9545 15.1021 49.4119 33.7315 69.1146C52.3608 88.8174 75.3793 97.3045 85.1447 88.0711Z" fill="#88D7D7"/>
<path id="Vector_3" d="M69.2211 111.633C85.6672 98.1795 93.5938 80.6654 86.9258 72.5141C80.2578 64.3627 61.5201 68.6607 45.0741 82.114C28.628 95.5672 20.7014 113.081 27.3694 121.233C34.0374 129.384 52.7751 125.086 69.2211 111.633Z" fill="#88D7D7"/>
</g>
<g id="Group_2">
<path id="Vector_4" d="M145.297 69.112C163.926 49.4092 171.112 25.9519 161.346 16.7185C151.581 7.48511 128.562 15.9722 109.933 35.675C91.3037 55.3777 84.1181 78.8351 93.8835 88.0685C103.649 97.3019 126.667 88.8148 145.297 69.112Z" fill="#88D7D7"/>
<path id="Vector_5" d="M151.659 121.236C158.327 113.085 150.4 95.5705 133.954 82.1173C117.508 68.664 98.7704 64.366 92.1023 72.5174C85.4343 80.6687 93.361 98.1828 109.807 111.636C126.253 125.089 144.991 129.387 151.659 121.236Z" fill="#88D7D7"/>
</g>
<path id="Vector_6" d="M88.9023 69.1726C95.4474 69.1726 100.753 63.8667 100.753 57.3216C100.753 50.7765 95.4474 45.4706 88.9023 45.4706C82.3572 45.4706 77.0513 50.7765 77.0513 57.3216C77.0513 63.8667 82.3572 69.1726 88.9023 69.1726Z" fill="#FFC84D"/>
<path id="Vector_7" d="M92.7607 67.2292H87.9702V72.9956H92.7607V67.2292Z" fill="#FFC84D"/>
<path id="Vector_8" d="M81.3008 73.6067L51.5142 96.2606L56.207 102.218L79.2217 88.7715V102.218H101.243L102.508 83.7137L111.575 88.7333C114.418 90.3075 117.999 89.1152 119.336 86.1535L124.984 73.6067L118.305 71.5318L114.427 78.0662C113.765 79.1779 112.297 79.4749 111.274 78.6857C107.527 75.7834 99.0327 69.72 93.487 69.72C86.1973 69.72 81.3008 73.6067 81.3008 73.6067Z" fill="#FFC84D"/>
<path id="Vector_9" d="M77.7065 75.5754L78.0799 102.85H102.516L103.309 72.3591L97.3224 69.8557L90.5292 81.9316L83.8421 71.4299L77.7065 75.5754Z" fill="#076565"/>
<path id="Vector_10" d="M78.0158 63.7244C80.2796 63.7244 82.1147 61.8893 82.1147 59.6256C82.1147 57.3618 80.2796 55.5267 78.0158 55.5267C75.7521 55.5267 73.917 57.3618 73.917 59.6256C73.917 61.8893 75.7521 63.7244 78.0158 63.7244Z" fill="#FFC84D"/>
<path id="Vector_11" d="M99.9734 60.9961C102.237 60.9961 104.072 59.161 104.072 56.8973C104.072 54.6336 102.237 52.7985 99.9734 52.7985C97.7096 52.7985 95.8745 54.6336 95.8745 56.8973C95.8745 59.161 97.7096 60.9961 99.9734 60.9961Z" fill="#FFC84D"/>
<path id="Vector_12" d="M77.0597 59.2098C77.0597 59.2098 84.8119 57.1519 88.3379 51.8565L79.8729 48.9584C79.8729 48.9584 76.3129 54.1902 77.0555 59.2055L77.0597 59.2098Z" fill="#EC6700"/>
<path id="Vector_13" d="M100.865 57.4234C100.865 57.4234 92.8369 56.4348 88.5811 51.6231L96.643 47.5624C96.643 47.5624 100.92 52.3105 100.865 57.4234Z" fill="#EC6700"/>
<path id="Vector_14" d="M85.4163 33.8827L77.6641 52.1068C77.452 52.6075 77.8593 53.1549 78.4024 53.087L98.2687 50.6429C98.8288 50.5751 99.0876 49.9089 98.7227 49.4803L85.4121 33.8784L85.4163 33.8827Z" fill="#076565"/>
<path id="Vector_15" d="M85.2459 36.6152C87.266 36.6152 88.9035 34.9777 88.9035 32.9577C88.9035 30.9377 87.266 29.3001 85.2459 29.3001C83.2259 29.3001 81.5884 30.9377 81.5884 32.9577C81.5884 34.9777 83.2259 36.6152 85.2459 36.6152Z" fill="#EF4452"/>
<path id="Vector_16" d="M123.141 75.3463C126.551 75.3463 129.315 72.5822 129.315 69.1726C129.315 65.7629 126.551 62.9988 123.141 62.9988C119.731 62.9988 116.967 65.7629 116.967 69.1726C116.967 72.5822 119.731 75.3463 123.141 75.3463Z" fill="#FFC84D"/>
<path id="Vector_17" d="M56.1984 104.297C53.5422 106.431 50.3429 107.174 48.5056 105.337C46.6684 103.499 47.1351 100.054 49.5452 97.6438C51.9553 95.2337 55.4007 94.767 57.2379 96.6043C59.0752 98.4415 59.0667 101.989 56.1984 104.297Z" fill="#FFC84D"/>
<path id="Vector_18" d="M124.135 51.5085H122.238V66.4146H124.135V51.5085Z" fill="#EF4452"/>
<path id="Vector_19" d="M128.223 55.0049L123.454 53.2822L119.33 56.2311L119.499 51.1649L115.417 48.1565L120.289 46.7478L121.888 41.9361L124.735 46.1325L129.806 46.1707L126.691 50.172L128.223 55.0049Z" fill="#EF4452"/>
<path id="Vector_20" d="M60.8204 103.576C61.7351 102.662 61.4865 100.93 60.2653 99.7088C59.0441 98.4876 57.3126 98.2391 56.3979 99.1538C55.4832 100.068 55.7317 101.8 56.9529 103.021C58.1742 104.242 59.9057 104.491 60.8204 103.576Z" fill="#FFC84D"/>
<path id="Vector_21" d="M87.1254 60.3106C87.7827 60.2706 88.2728 59.5366 88.2202 58.6712C88.1675 57.8057 87.592 57.1365 86.9347 57.1765C86.2775 57.2165 85.7873 57.9505 85.84 58.816C85.8926 59.6814 86.4681 60.3506 87.1254 60.3106Z" fill="#17202C"/>
<path id="Vector_22" d="M91.6342 59.7283C92.2915 59.6884 92.7816 58.9544 92.729 58.0889C92.6763 57.2234 92.1008 56.5542 91.4435 56.5942C90.7863 56.6342 90.2961 57.3682 90.3487 58.2337C90.4014 59.0991 90.9769 59.7683 91.6342 59.7283Z" fill="#17202C"/>
<path id="Vector_23" d="M73.5481 113.779L84.0134 115.992L75.8123 154.765C75.2012 157.654 72.3596 159.504 69.4703 158.893C66.5811 158.282 64.7317 155.44 65.3428 152.551L73.5481 113.779Z" fill="#FFC84D"/>
<path id="Vector_24" d="M88.3514 102.649L98.9241 104.274L93.9407 136.693C93.4921 139.612 90.7583 141.617 87.8394 141.168C84.9205 140.72 82.9152 137.986 83.3639 135.067L88.3514 102.649Z" fill="#FFC84D"/>
<path id="Vector_25" d="M77.9975 96.9989L66.2568 116.611L102.675 127.617L102.514 102.85L77.9975 96.9989Z" fill="#076565"/>
<path id="Vector_26" d="M67.2166 143.732L77.6819 145.945L75.8169 154.762C75.2058 157.652 72.3642 159.501 69.4749 158.89C66.5856 158.279 64.7363 155.437 65.3474 152.548L67.2166 143.732Z" fill="#F56570"/>
</g>
</svg>
