<svg width="88" height="69" viewBox="0 0 88 69" fill="none" xmlns="http://www.w3.org/2000/svg">
<g id="Vector">
<g id="Group">
<path id="Vector_2" d="M44.4853 27.8048L82.2519 5.94754C65.4846 -5.64526 42.7887 7.49036 44.4853 27.8048Z" fill="#FFCD00"/>
<path id="Vector_3" d="M68.2917 25.3797C78.9298 19.2509 85.712 11.0857 83.44 7.14213C81.1681 3.19859 70.7024 4.9701 60.0643 11.0989C49.4262 17.2277 42.644 25.393 44.916 29.3365C47.1879 33.2801 57.6536 31.5085 68.2917 25.3797Z" fill="#FFAD00"/>
</g>
<g id="Group_2">
<path id="Vector_4" d="M43.0986 27.8049L5.33203 5.94973C22.0993 -5.64307 44.7952 7.49039 43.0986 27.8049Z" fill="#FFCD00"/>
<path id="Vector_5" d="M42.6666 29.3348C44.9385 25.3913 38.1564 17.226 27.5183 11.0972C16.8801 4.96838 6.41447 3.19687 4.14252 7.14041C1.87058 11.084 8.65271 19.2492 19.2908 25.378C29.929 31.5068 40.3946 33.2783 42.6666 29.3348Z" fill="#FFAD00"/>
</g>
<path id="Vector_6" d="M78.6155 50.4509C80.7217 50.4509 82.4292 48.7434 82.4292 46.6372C82.4292 44.5309 80.7217 42.8235 78.6155 42.8235C76.5092 42.8235 74.8018 44.5309 74.8018 46.6372C74.8018 48.7434 76.5092 50.4509 78.6155 50.4509Z" fill="#EDCCF8"/>
<path id="Vector_7" d="M67.2657 48.9514C66.8366 48.9514 66.4033 48.8518 65.9959 48.6394C61.1139 46.102 57.1268 42.2341 54.4659 37.4561C53.7248 36.1257 54.2037 34.4464 55.5342 33.7053C56.8625 32.9664 58.5418 33.4409 59.2851 34.7735C61.4173 38.6068 64.6177 41.7076 68.5398 43.7466C69.8919 44.4487 70.4163 46.1128 69.7142 47.465C69.2224 48.4097 68.2624 48.9514 67.2657 48.9514Z" fill="#B44BD7"/>
<path id="Vector_8" d="M24.5926 56.62C23.7649 56.62 22.9436 56.2495 22.4019 55.5387C21.4766 54.3296 21.7063 52.5983 22.9133 51.673C27.4031 48.2342 30.7487 43.6101 32.5841 38.3034C33.0824 36.8624 34.6578 36.1018 36.0922 36.5981C37.5311 37.0964 38.2938 38.6674 37.7976 40.1062C35.6047 46.44 31.6176 51.9526 26.2676 56.0523C25.7671 56.4358 25.1777 56.62 24.5926 56.62Z" fill="#EF4452"/>
<path id="Vector_9" d="M12.0493 43.7964C10.7839 43.7964 9.64409 42.921 9.35806 41.6339C9.03086 40.1474 9.96912 38.6739 11.4556 38.3467C13.2563 37.948 15.0223 37.376 16.7103 36.6457C21.9758 34.364 26.3962 30.5936 29.4927 25.7377C30.3118 24.4527 32.0149 24.0778 33.2999 24.8969C34.5827 25.716 34.9597 27.4213 34.1407 28.7041C30.4483 34.4897 25.1784 38.986 18.901 41.7054C16.8923 42.5765 14.7883 43.2569 12.6452 43.7314C12.4437 43.7748 12.2465 43.7964 12.0493 43.7964Z" fill="#7896FF"/>
<path id="Vector_10" d="M51.489 64.9452C50.6613 64.9452 49.8444 64.5746 49.3005 63.8682C43.7251 56.6135 41.3112 47.6231 42.5073 38.5569C42.7067 37.0488 44.0891 35.9957 45.6016 36.1842C47.1119 36.3835 48.1737 37.7682 47.9744 39.2785C46.9711 46.8821 48.995 54.4228 53.6711 60.5074C54.5985 61.7143 54.3731 63.4457 53.1662 64.3731C52.6656 64.7588 52.0741 64.9452 51.489 64.9452Z" fill="#FFAD00"/>
<path id="Vector_11" d="M49.1003 25.2176L51.8089 27.9241C52.3723 28.4875 52.3723 29.3997 51.8089 29.9631L49.0981 32.6674C48.5347 33.2308 47.6203 33.2308 47.0569 32.6674L44.3483 29.9609C43.7849 29.3976 43.7849 28.4853 44.3483 27.9219L47.0591 25.2176C47.6225 24.6543 48.5369 24.6543 49.1003 25.2176Z" fill="#EF4452"/>
<path id="Vector_12" d="M64.7801 60.7141L65.9309 57.2262C66.2069 56.3897 65.7526 55.4879 64.9162 55.2119L61.42 54.0583C60.5836 53.7824 59.6818 54.2367 59.4058 55.0731L58.2549 58.561C57.9789 59.3974 58.4333 60.2993 59.2697 60.5752L62.7658 61.7288C63.6023 62.0048 64.5041 61.5505 64.7801 60.7141Z" fill="#7896FF"/>
<path id="Vector_13" d="M7.26358 52.4271L9.06426 55.9028C9.43913 56.6266 10.3297 56.9083 11.0556 56.5334L14.5356 54.7349C15.2594 54.36 15.5432 53.4716 15.1684 52.7478L13.3677 49.2722C12.9928 48.5484 12.1022 48.2667 11.3763 48.6416L7.89631 50.4401C7.17257 50.815 6.88871 51.7034 7.26358 52.4271Z" fill="#A8BFFF"/>
<path id="Vector_14" d="M32.0868 68.046C33.7838 68.046 35.1594 66.6703 35.1594 64.9733C35.1594 63.2764 33.7838 61.9007 32.0868 61.9007C30.3898 61.9007 29.0142 63.2764 29.0142 64.9733C29.0142 66.6703 30.3898 68.046 32.0868 68.046Z" fill="#FFC84D"/>
<path id="Vector_15" d="M59.9066 25.5491C61.6036 25.5491 62.9793 24.1735 62.9793 22.4765C62.9793 20.7795 61.6036 19.4039 59.9066 19.4039C58.2097 19.4039 56.834 20.7795 56.834 22.4765C56.834 24.1735 58.2097 25.5491 59.9066 25.5491Z" fill="white"/>
<path id="Vector_16" d="M23.9991 22.3898C25.9785 22.3898 27.5831 20.7852 27.5831 18.8058C27.5831 16.8264 25.9785 15.2218 23.9991 15.2218C22.0197 15.2218 20.415 16.8264 20.415 18.8058C20.415 20.7852 22.0197 22.3898 23.9991 22.3898Z" fill="#FFC84D"/>
</g>
</svg>
