<svg width="49" height="48" viewBox="0 0 49 48" fill="none" xmlns="http://www.w3.org/2000/svg">
<g id="Icon" clip-path="url(#clip0_212_2513)">
<g id="Group">
<g id="Group_2">
<path id="Vector" d="M38.75 9.80237H26.75V43.802H38.75C40.9592 43.802 42.7496 42.0116 42.7496 39.8024V13.802C42.7496 11.5928 40.9592 9.80237 38.75 9.80237Z" fill="#EF4452"/>
<path id="Vector_2" d="M20.7501 9.80237H8.75009C6.54089 9.80237 4.75049 11.5928 4.75049 13.802V39.8024C4.75049 42.0116 6.54089 43.802 8.75009 43.802H20.7501V9.80237Z" fill="#EF4452"/>
</g>
<path id="Vector_3" d="M35.1019 4.19601V9.80001H26.7499V43.808H20.7499V9.80001H12.3979V4.19601C12.3979 2.78001 13.8499 1.80801 15.1579 2.34801L23.7499 5.87601L32.3419 2.34801C33.6499 1.80801 35.1019 2.78001 35.1019 4.19601Z" fill="#FFCD00"/>
</g>
<g id="Vector_4">
<circle id="Ellipse 1" cx="39" cy="38" r="10.5" fill="white" stroke="white"/>
<path id="Vector_5" fill-rule="evenodd" clip-rule="evenodd" d="M44.4545 39.1336H42.6264L41.9718 41.5145C41.9147 41.7275 41.7886 41.9154 41.6132 42.049C41.4379 42.1826 41.2232 42.2542 41.0027 42.2527H41.0018C40.5436 42.2527 40.1545 41.9555 40.0336 41.5145L39 37.7618L37.9673 41.5145C37.9102 41.7275 37.784 41.9154 37.6087 42.049C37.4333 42.1826 37.2186 42.2542 36.9982 42.2527C36.54 42.2527 36.1509 41.9564 36.0291 41.5155L35.3736 39.1336H33.5455C33.3285 39.1336 33.1204 39.0474 32.9669 38.894C32.8135 38.7406 32.7273 38.5325 32.7273 38.3155C32.7273 38.0985 32.8135 37.8904 32.9669 37.7369C33.1204 37.5835 33.3285 37.4973 33.5455 37.4973H34.9236L34.35 35.4136C34.3183 35.3091 34.3078 35.1992 34.3192 35.0906C34.3306 34.9819 34.3637 34.8766 34.4165 34.781C34.4692 34.6853 34.5406 34.6012 34.6264 34.5335C34.7122 34.4659 34.8107 34.4161 34.916 34.3871C35.0214 34.3582 35.1315 34.3506 35.2398 34.3649C35.3481 34.3791 35.4525 34.415 35.5467 34.4702C35.641 34.5255 35.7232 34.5991 35.7886 34.6866C35.8539 34.7742 35.9011 34.8739 35.9273 34.98L36.9982 38.8691L38.0309 35.1173C38.0877 34.9041 38.2137 34.7159 38.3891 34.5821C38.5645 34.4483 38.7794 34.3766 39 34.3782C39.4582 34.3782 39.8482 34.6755 39.9691 35.1173L41.0027 38.8691L42.0727 34.98C42.1012 34.8764 42.1498 34.7794 42.2158 34.6945C42.2817 34.6097 42.3638 34.5387 42.4572 34.4855C42.5506 34.4324 42.6535 34.3982 42.7602 34.3848C42.8668 34.3715 42.975 34.3793 43.0786 34.4077C43.1823 34.4362 43.2793 34.4848 43.3641 34.5508C43.4489 34.6167 43.52 34.6988 43.5731 34.7922C43.6262 34.8856 43.6605 34.9885 43.6738 35.0952C43.6872 35.2018 43.6794 35.31 43.6509 35.4136L43.0764 37.4973H44.4545C44.6715 37.4973 44.8796 37.5835 45.0331 37.7369C45.1865 37.8904 45.2727 38.0985 45.2727 38.3155C45.2727 38.5325 45.1865 38.7406 45.0331 38.894C44.8796 39.0474 44.6715 39.1336 44.4545 39.1336ZM39 28C33.4773 28 29 32.4773 29 38C29 43.5236 33.4773 48 39 48C44.5227 48 49 43.5236 49 38C49 32.4773 44.5227 28 39 28Z" fill="#FFD700"/>
</g>
</g>
<defs>
<clipPath id="clip0_212_2513">
<rect width="48" height="48" fill="white" transform="translate(0.75)"/>
</clipPath>
</defs>
</svg>
