<svg width="18" height="21" viewBox="0 0 18 21" fill="none" xmlns="http://www.w3.org/2000/svg">
<g id="Vector">
<path id="Vector_2" d="M17 6.51673L11 1.26302C10.45 0.771652 9.73796 0.5 9.00003 0.5C8.2621 0.5 7.55006 0.771652 7.00005 1.26302L1.00009 6.51673C0.682458 6.80047 0.428992 7.14853 0.256565 7.53776C0.0841379 7.92698 -0.00329254 8.34842 9.47934e-05 8.77403V17.5036C9.47934e-05 18.2983 0.316163 19.0604 0.878768 19.6224C1.44137 20.1843 2.20443 20.5 3.00007 20.5H15C15.7956 20.5 16.5587 20.1843 17.1213 19.6224C17.6839 19.0604 18 18.2983 18 17.5036V8.76404C18.0019 8.34011 17.9138 7.92059 17.7414 7.5332C17.5691 7.1458 17.3163 6.79935 17 6.51673ZM11 18.5024H7.00005V13.5084C7.00005 13.2435 7.1054 12.9894 7.29294 12.8021C7.48047 12.6148 7.73482 12.5096 8.00004 12.5096H10C10.2652 12.5096 10.5196 12.6148 10.7071 12.8021C10.8947 12.9894 11 13.2435 11 13.5084V18.5024ZM16 17.5036C16 17.7685 15.8946 18.0225 15.7071 18.2098C15.5196 18.3972 15.2652 18.5024 15 18.5024H13V13.5084C13 12.7137 12.6839 11.9515 12.1213 11.3896C11.5587 10.8276 10.7957 10.512 10 10.512H8.00004C7.20439 10.512 6.44134 10.8276 5.87873 11.3896C5.31613 11.9515 5.00006 12.7137 5.00006 13.5084V18.5024H3.00007C2.73486 18.5024 2.48051 18.3972 2.29297 18.2098C2.10544 18.0225 2.00008 17.7685 2.00008 17.5036V8.76404C2.00026 8.62223 2.03067 8.48208 2.0893 8.35291C2.14792 8.22375 2.23341 8.10854 2.34008 8.01494L8.34004 2.77121C8.52252 2.61109 8.75712 2.52278 9.00003 2.52278C9.24294 2.52278 9.47754 2.61109 9.66003 2.77121L15.66 8.01494C15.7667 8.10854 15.8521 8.22375 15.9108 8.35291C15.9694 8.48208 15.9998 8.62223 16 8.76404V17.5036Z" fill="black"/>
</g>
</svg>
