<svg width="56" height="56" viewBox="0 0 56 56" fill="none" xmlns="http://www.w3.org/2000/svg">
<g id="Vector">
<path id="Vector_2" d="M13.853 24.9117C13.853 23.3493 20.188 22.0823 28 22.0823C35.812 22.0823 42.147 23.3493 42.147 24.9117V44.5943C42.147 46.1567 35.812 47.4237 28 47.4237C20.188 47.4237 13.853 46.1567 13.853 44.5943" fill="#6B7683"/>
<path id="Vector_3" d="M25.1704 24.9117C25.1704 23.3493 26.4374 22.0823 27.9998 22.0823C29.5622 22.0823 30.8292 23.3493 30.8292 24.9117V44.5943C30.8292 46.1567 29.5622 47.4237 27.9998 47.4237C26.4374 47.4237 25.1704 46.1567 25.1704 44.5943" fill="#AFB7C0"/>
<path id="Vector_4" d="M42.1483 47.4222C40.5859 47.4222 39.3188 46.1552 39.3188 44.5928V24.9102C39.3188 23.3478 40.5859 22.0808 42.1483 22.0808C43.7106 22.0808 44.9776 23.3478 44.9776 24.9102V44.5928C44.9776 46.1552 43.7106 47.4222 42.1483 47.4222Z" fill="#AFB7C0"/>
<path id="Vector_5" d="M13.8528 47.4222C12.2904 47.4222 11.0234 46.1552 11.0234 44.5928V24.9102C11.0234 23.3478 12.2904 22.0808 13.8528 22.0808C15.4152 22.0808 16.6822 23.3478 16.6822 24.9102V44.5928C16.6822 46.1552 15.4152 47.4222 13.8528 47.4222Z" fill="#AFB7C0"/>
<path id="Vector_6" d="M30.8306 20.3239H25.1704V28.6679H30.8306V20.3239Z" fill="#8A94A0"/>
<path id="Vector_7" d="M44.9776 20.3239H39.3174V28.6679H44.9776V20.3239Z" fill="#8A94A0"/>
<path id="Vector_8" d="M16.6836 20.3239H11.0234V28.6679H16.6836V20.3239Z" fill="#8A94A0"/>
<path id="Vector_9" fill-rule="evenodd" clip-rule="evenodd" d="M47.338 18.8931L29.7148 5.24166C28.7054 4.46046 27.2942 4.46046 26.2848 5.24166L8.66162 18.8931V21.5741H47.338V18.8931Z" fill="#AFB7C0"/>
<path id="Vector_10" d="M48.9847 44.2708H7.0155C6.23379 44.2708 5.6001 44.9044 5.6001 45.6862V49.9296C5.6001 50.7113 6.23379 51.345 7.0155 51.345H48.9847C49.7664 51.345 50.4001 50.7113 50.4001 49.9296V45.6862C50.4001 44.9044 49.7664 44.2708 48.9847 44.2708Z" fill="#D0D5DA"/>
<path id="Vector_11" fill-rule="evenodd" clip-rule="evenodd" d="M28.0001 16.8042C26.1451 16.8042 24.6401 15.2992 24.6401 13.4442C24.6401 11.5892 26.1451 10.0842 28.0001 10.0842C29.8551 10.0842 31.3601 11.5892 31.3601 13.4442C31.3601 15.2992 29.8551 16.8042 28.0001 16.8042Z" fill="#FFCD00"/>
<path id="Vector_12" d="M48.9847 19.0302H7.0155C6.23379 19.0302 5.6001 19.6638 5.6001 20.4456V24.689C5.6001 25.4707 6.23379 26.1044 7.0155 26.1044H48.9847C49.7664 26.1044 50.4001 25.4707 50.4001 24.689V20.4456C50.4001 19.6638 49.7664 19.0302 48.9847 19.0302Z" fill="#D0D5DA"/>
</g>
</svg>
