<svg width="24" height="25" viewBox="0 0 24 25" fill="none" xmlns="http://www.w3.org/2000/svg">
<g id="Solid / house user">
<path id="Vector" d="M21.7001 10.8L12.7 2.80001C12.3 2.50001 11.8 2.50001 11.4 2.80001L2.40005 10.8C2.00005 11.2 1.90005 11.8 2.30005 12.2C2.70005 12.6 3.30005 12.7 3.70005 12.3L4.00005 11.9V21.5C4.00005 22.1 4.40005 22.5 5.00005 22.5H19C19.6 22.5 20 22.1 20 21.5V11.9L20.3 12.2C20.7 12.6 21.3001 12.5 21.7001 12.1C22.1 11.8 22.1 11.1 21.7001 10.8ZM12 11.5C13.5 11.5 14.7 12.7 14.7 14.2C14.7 15.7 13.5 16.9 12 16.9C10.5 16.9 9.30005 15.7 9.30005 14.2C9.30005 12.7 10.5 11.5 12 11.5ZM7.00005 20.5C7.00005 20.4 7.00005 20.4 7.10005 20.3C9.30005 17.6 13.3 17.1 16 19.3C16.4 19.6 16.7 19.9 17 20.3C17 20.3 17 20.4 17.1 20.5H7.00005Z" fill="white"/>
</g>
</svg>
