<svg width="40" height="31" viewBox="0 0 40 31" fill="none" xmlns="http://www.w3.org/2000/svg">
<g id="Icon">
<circle id="Ellipse 2" cx="20" cy="20" r="20" fill="black"/>
<g id="Vector">
<path d="M5.73581 17C4.77902 17 4 17.779 4 18.7358V23.3681H4.57773V18.7358C4.57773 18.0953 5.09534 17.5777 5.73581 17.5777H34.2642C34.9047 17.5777 35.4223 18.0953 35.4223 18.7358V23.3681H36V18.7358C36 17.779 35.221 17 34.2642 17H5.73581Z" fill="white"/>
<path d="M9.3329 22.1473C9.3329 22.1917 9.30414 22.21 9.25447 22.21H8.82575C8.77608 22.21 8.7604 22.1943 8.7604 22.1447V20.9761C8.7604 20.9239 8.7238 20.8925 8.6689 20.8925H7.54219C7.49253 20.8925 7.46377 20.9212 7.46377 20.9761V22.1447C7.46377 22.1943 7.43501 22.21 7.39057 22.21H6.95401C6.91218 22.21 6.8965 22.1943 6.8965 22.1473V19.2456C6.8965 19.2011 6.91218 19.175 6.95401 19.175H7.39057C7.43501 19.175 7.46377 19.1985 7.46377 19.2456V20.367C7.46377 20.4219 7.49253 20.4455 7.54219 20.4455H8.6689C8.7238 20.4455 8.7604 20.4219 8.7604 20.367V19.2456C8.7604 19.2011 8.77608 19.175 8.82575 19.175H9.25447C9.30414 19.175 9.3329 19.1985 9.3329 19.2456V22.1473Z" fill="white"/>
<path d="M10.3707 22.2519C10.0518 22.2519 9.8871 21.9957 9.8871 21.7761V19.9723C9.8871 19.9174 9.90801 19.8939 9.95768 19.8939H10.3707C10.4125 19.8939 10.4413 19.9174 10.4413 19.9723V21.7133C10.4413 21.763 10.4622 21.7865 10.5197 21.7865H11.2752C11.3249 21.7865 11.3589 21.763 11.3589 21.7133V19.9723C11.3589 19.9174 11.3798 19.8939 11.4295 19.8939H11.8425C11.8869 19.8939 11.9157 19.9174 11.9157 19.9723V22.6022C11.9157 22.6675 11.8948 22.7303 11.866 22.793L11.5863 23.2505C11.5628 23.2923 11.5236 23.3158 11.4844 23.3158H11.4295C11.3798 23.3158 11.3589 23.2871 11.3589 23.2426V22.0793C11.3589 22.0297 11.3301 22.0087 11.2857 22.0218L10.4936 22.244C10.457 22.2519 10.4099 22.2519 10.3733 22.2519H10.3707Z" fill="white"/>
<path d="M12.9431 22.2466C12.6921 22.2466 12.4673 22.0401 12.4673 21.7709V19.9723C12.4673 19.9174 12.4882 19.8939 12.5379 19.8939H12.9535C12.9901 19.8939 13.0189 19.9174 13.0189 19.9723V21.7133C13.0189 21.763 13.0424 21.7839 13.1025 21.7839H13.858C13.9077 21.7839 13.9417 21.763 13.9417 21.7133V19.9723C13.9417 19.9174 13.9574 19.8939 14.007 19.8939H14.4201C14.4645 19.8939 14.4959 19.9174 14.4959 19.9723V22.1473C14.4959 22.1917 14.4671 22.21 14.4201 22.21H14.007C13.9574 22.21 13.9417 22.1943 13.9417 22.1447V22.0793C13.9417 22.0244 13.9077 22.0061 13.8632 22.0218L13.0712 22.2362C13.0293 22.2492 12.9849 22.2492 12.9431 22.2492V22.2466Z" fill="white"/>
<path d="M17.0734 20.3409V22.1499C17.0734 22.1943 17.0447 22.2126 17.0002 22.2126H16.5872C16.5375 22.2126 16.5219 22.197 16.5219 22.1473V20.4063C16.5219 20.354 16.4879 20.3226 16.4382 20.3226H15.6827C15.6252 20.3226 15.5991 20.3514 15.5991 20.4063V22.1473C15.5991 22.197 15.5703 22.2126 15.5337 22.2126H15.118C15.0684 22.2126 15.0475 22.197 15.0475 22.1499V19.9749C15.0475 19.92 15.0684 19.8965 15.118 19.8965H15.5337C15.5703 19.8965 15.5991 19.92 15.5991 19.9749V20.0455C15.5991 20.0899 15.62 20.1109 15.6827 20.0952L16.4722 19.8808C16.514 19.873 16.5506 19.8599 16.5924 19.8599C16.8643 19.8599 17.0761 20.0873 17.0761 20.3435L17.0734 20.3409Z" fill="white"/>
<path d="M17.544 21.7735V20.733C17.544 20.5108 17.6381 20.3409 17.8368 20.2337L18.2733 19.9775C18.3648 19.92 18.4537 19.8939 18.5635 19.8939H18.9426C18.9975 19.8939 19.021 19.873 19.021 19.8233V18.9685C19.021 18.924 19.0419 18.89 19.0837 18.89H19.5046C19.5543 18.89 19.5752 18.924 19.5752 18.9685V22.1473C19.5752 22.1917 19.5543 22.21 19.5046 22.21H19.0837C19.0419 22.21 19.021 22.1943 19.021 22.1447V22.0793C19.021 22.0244 18.9975 22.0061 18.9426 22.0218L18.1453 22.2362C18.1008 22.2492 18.0616 22.2492 18.0224 22.2492C17.808 22.2571 17.544 22.0584 17.544 21.7735ZM19.021 21.716V20.4089C19.021 20.3514 18.9975 20.3226 18.9373 20.3226H18.174C18.1165 20.3226 18.0956 20.3514 18.0956 20.4089V21.716C18.0956 21.7656 18.1165 21.7865 18.174 21.7865H18.9373C18.9949 21.7865 19.021 21.7656 19.021 21.716Z" fill="white"/>
<path d="M20.5241 22.2466C20.2653 22.2466 20.0457 22.0375 20.0457 21.7709V20.7304C20.0457 20.5082 20.1399 20.3383 20.3359 20.2311L20.7777 19.9749C20.8692 19.9174 20.9581 19.8913 21.0627 19.8913H22.009C22.0534 19.8913 22.0796 19.9148 22.0796 19.9697V22.1447C22.0796 22.1891 22.056 22.2074 22.009 22.2074H21.5881C21.5437 22.2074 21.5254 22.1917 21.5254 22.1421V22.0767C21.5254 22.0218 21.4966 22.0035 21.4417 22.0192L20.6496 22.2336C20.6052 22.2466 20.566 22.2466 20.5268 22.2466H20.5241ZM21.5228 21.716V20.4089C21.5228 20.3514 21.494 20.3226 21.4391 20.3226H20.6758C20.6182 20.3226 20.5973 20.3514 20.5973 20.4089V21.716C20.5973 21.7656 20.6182 21.7865 20.6758 21.7865H21.4391C21.494 21.7865 21.5228 21.7656 21.5228 21.716Z" fill="white"/>
<path d="M23.1827 19.3083C23.1827 19.358 23.154 19.3737 23.1122 19.3737H22.6991C22.6468 19.3737 22.6285 19.358 22.6285 19.3083V18.9711C22.6285 18.9266 22.6442 18.8927 22.6991 18.8927H23.1122C23.154 18.8927 23.1827 18.9266 23.1827 18.9711V19.3083ZM23.1827 22.1473C23.1827 22.1917 23.154 22.21 23.1122 22.21H22.6991C22.6468 22.21 22.6285 22.1943 22.6285 22.1473V19.9723C22.6285 19.9174 22.6442 19.8939 22.6991 19.8939H23.1122C23.154 19.8939 23.1827 19.9174 23.1827 19.9723V22.1473Z" fill="white"/>
<path d="M24.3408 21.6166V20.0533C24.3408 19.8233 24.4402 19.6455 24.6415 19.5253L25.1251 19.256C25.2113 19.2011 25.3159 19.1776 25.41 19.1776H26.4348C26.4844 19.1776 26.5106 19.2011 26.5106 19.2508V19.5514C26.5106 19.5959 26.4844 19.6168 26.4348 19.6168H25.0022C24.9525 19.6168 24.9316 19.6455 24.9316 19.7004V21.6898C24.9316 21.7447 24.9525 21.7682 25.0022 21.7682H26.4766C26.521 21.7682 26.5498 21.7892 26.5498 21.831C26.5498 21.8754 26.5289 21.9146 26.4844 21.9382L26.1289 22.1368C26.0348 22.1917 25.9355 22.2126 25.8361 22.2126H24.9447C24.6519 22.2126 24.3434 22.0009 24.3434 21.6192L24.3408 21.6166Z" fill="white"/>
<path d="M27.3706 22.2466C27.1092 22.2466 26.8922 22.0375 26.8922 21.7709V20.7304C26.8922 20.5082 26.9864 20.3383 27.1824 20.2311L27.6242 19.9749C27.7157 19.9174 27.8072 19.8913 27.9092 19.8913H28.8555C28.8999 19.8913 28.9261 19.9148 28.9261 19.9697V22.1447C28.9261 22.1891 28.8999 22.2074 28.8555 22.2074H28.4346C28.3902 22.2074 28.3719 22.1917 28.3719 22.1421V22.0767C28.3719 22.0218 28.3431 22.0035 28.2882 22.0192L27.4961 22.2336C27.4517 22.2466 27.4125 22.2466 27.3733 22.2466H27.3706ZM28.3693 21.716V20.4089C28.3693 20.3514 28.3405 20.3226 28.2856 20.3226H27.5223C27.4648 20.3226 27.4438 20.3514 27.4438 20.4089V21.716C27.4438 21.7656 27.4648 21.7865 27.5223 21.7865H28.2856C28.3405 21.7865 28.3693 21.7656 28.3693 21.716Z" fill="white"/>
<path d="M30.9939 20.2572C30.9939 20.2991 30.9651 20.32 30.9207 20.32H30.1077C30.0554 20.32 30.0345 20.3487 30.0345 20.4036V22.1447C30.0345 22.1943 30.0005 22.21 29.9613 22.21H29.5456C29.496 22.21 29.4803 22.1943 29.4803 22.1473V19.9723C29.4803 19.9174 29.496 19.8939 29.5456 19.8939H29.9613C30.0031 19.8939 30.0345 19.9174 30.0345 19.9723V20.0377C30.0345 20.0821 30.0554 20.103 30.1077 20.103C30.1207 20.103 30.1364 20.103 30.1521 20.0952L30.39 19.9383C30.4763 19.8939 30.5678 19.8677 30.6749 19.8677H30.9181C30.9625 19.8677 30.9913 19.8913 30.9913 19.9383V20.2572H30.9939Z" fill="white"/>
<path d="M31.0775 21.7735V20.733C31.0775 20.5108 31.1716 20.3409 31.3703 20.2337L31.8069 19.9775C31.8984 19.92 31.9899 19.8939 32.0971 19.8939H32.4761C32.5284 19.8939 32.5545 19.873 32.5545 19.8233V18.9685C32.5545 18.924 32.5754 18.89 32.6173 18.89H33.0382C33.0878 18.89 33.1087 18.924 33.1087 18.9685V22.1473C33.1087 22.1917 33.0878 22.21 33.0382 22.21H32.6173C32.5754 22.21 32.5545 22.1943 32.5545 22.1447V22.0793C32.5545 22.0244 32.531 22.0061 32.4761 22.0218L31.6788 22.2362C31.6343 22.2492 31.5951 22.2492 31.5559 22.2492C31.3416 22.2571 31.0775 22.0584 31.0775 21.7735ZM32.5545 21.716V20.4089C32.5545 20.3514 32.531 20.3226 32.4709 20.3226H31.7075C31.65 20.3226 31.6291 20.3514 31.6291 20.4089V21.716C31.6291 21.7656 31.65 21.7865 31.7075 21.7865H32.4709C32.5284 21.7865 32.5545 21.7656 32.5545 21.716Z" fill="white"/>
</g>
</g>
</svg>
