<?xml version="1.0" encoding="UTF-8"?>
<svg version="1.1" xmlns="http://www.w3.org/2000/svg" width="current" height="current">
<path d="M0 0 C2.35400289 1.93859062 3.25827966 2.83466794 4.125 5.75 C4.54656214 11.06168294 4.6463641 14.47405788 1.125 18.75 C-1.90745311 21.10857464 -5.13565814 21.10933916 -8.91015625 21.00390625 C-12.60093739 20.52696634 -14.93520299 18.95831044 -17.1875 16.0625 C-18.58325988 11.36767132 -18.5509863 7.30476848 -16.625 2.875 C-12.31101611 -2.363409 -5.99219711 -2.60530309 0 0 Z M-13.875 3.75 C-15.80363839 6.29229606 -15.88402291 7.53345018 -15.75 10.75 C-14.72586454 14.26132158 -13.82048102 15.60059493 -10.875 17.75 C-7.28119396 18.89695938 -5.60753748 19.066323 -2.125 17.5625 C0.2619064 15.63971429 1.28683001 14.68359496 2.125 11.75 C1.97813845 8.22532271 1.52448011 6.2974357 -0.5625 3.4375 C-5.39128795 -0.08621013 -9.25486049 0.02822095 -13.875 3.75 Z " fill="current" transform="translate(18.875,2.25)"/>
<path d="M0 0 C0.66 0 1.32 0 2 0 C2 2.64 2 5.28 2 8 C1.34 8 0.68 8 0 8 C0 5.36 0 2.72 0 0 Z " fill="current" transform="translate(11,10)"/>
<path d="M0 0 C0.66 0 1.32 0 2 0 C2 0.66 2 1.32 2 2 C1.34 2 0.68 2 0 2 C0 1.34 0 0.68 0 0 Z " fill="current" transform="translate(11,7)"/>
</svg>
