<svg width="28" height="26" viewBox="0 0 28 26" fill="none" xmlns="http://www.w3.org/2000/svg">
<g id="Group 316">
<path id="Vector" d="M14.0709 0.583069C6.44842 0.583069 0.30127 5.40037 0.30127 11.2486C0.30127 15.0447 2.85848 18.3687 6.6943 20.2667L5.39603 25.0167C5.37155 25.0879 5.36778 25.1643 5.38515 25.2374C5.40252 25.3106 5.44034 25.3776 5.49438 25.4309C5.57317 25.499 5.67455 25.5366 5.77961 25.5369C5.86671 25.53 5.94936 25.4963 6.01566 25.4406L11.6022 21.7505C12.4268 21.862 13.2581 21.9199 14.0905 21.9239C21.7032 21.9239 27.8602 17.1065 27.8602 11.2486C27.8602 5.39074 21.6835 0.583069 14.0709 0.583069Z" fill="#392020"/>
<path id="Vector_2" d="M5.12021 9.56257H3.61539C3.42887 9.56787 3.24466 9.52108 3.08427 9.42767C3.01306 9.38397 2.95184 9.32629 2.90445 9.25831C2.85706 9.19033 2.82452 9.11349 2.80888 9.03262C2.8041 8.98134 2.8041 8.92982 2.80888 8.87855C2.80421 8.7826 2.82322 8.6869 2.86431 8.59969C2.9054 8.51247 2.96736 8.43629 3.04493 8.37752C3.2164 8.25587 3.42336 8.19161 3.63505 8.1944H8.16919C8.35719 8.18793 8.54265 8.23842 8.70031 8.33894C8.77319 8.38072 8.83571 8.43788 8.88333 8.50619C8.93096 8.5745 8.9625 8.65229 8.9757 8.734C8.9805 8.78206 8.9805 8.83049 8.9757 8.87855C8.98033 8.97588 8.96136 9.07287 8.92033 9.16164C8.8793 9.2504 8.81738 9.3283 8.73965 9.3891C8.57235 9.5106 8.36739 9.5719 8.15935 9.56257H6.70371V14.6304C6.70963 14.7384 6.69257 14.8463 6.65363 14.9475C6.61468 15.0487 6.55471 15.1409 6.4775 15.2181C6.40346 15.292 6.31446 15.3499 6.21621 15.3881C6.11796 15.4263 6.01264 15.4438 5.90704 15.4397C5.72233 15.4449 5.54153 15.3871 5.3956 15.276C5.25667 15.1675 5.16238 15.0135 5.13005 14.8424C5.12033 14.772 5.12033 14.7008 5.13005 14.6304L5.12021 9.56257Z" fill="#FEE500"/>
<path id="Vector_3" d="M9.40983 8.57015C9.45309 8.4116 9.55468 8.27431 9.69506 8.18474C9.84463 8.10169 10.0151 8.06163 10.1868 8.06913H10.5606C10.7428 8.06273 10.9233 8.1061 11.0819 8.19438C11.2499 8.30505 11.3692 8.47357 11.4163 8.66647L13.3833 14.1101C13.4343 14.2521 13.477 14.397 13.5112 14.5437C13.5146 14.6047 13.5146 14.6658 13.5112 14.7267C13.5145 14.8206 13.4969 14.9141 13.4595 15.0007C13.4221 15.0872 13.3659 15.1647 13.2948 15.2278C13.2259 15.297 13.1432 15.3515 13.0518 15.388C12.9604 15.4244 12.8624 15.442 12.7637 15.4397C12.612 15.4545 12.4597 15.4188 12.3312 15.3384C12.2027 15.258 12.1056 15.1376 12.0556 14.9965L11.6425 13.8115H9.05575L8.64267 14.9965C8.59381 15.1404 8.49554 15.2632 8.36462 15.344C8.2337 15.4248 8.07822 15.4586 7.92468 15.4397C7.75836 15.444 7.59545 15.393 7.46241 15.2952C7.33279 15.1942 7.24534 15.0503 7.21652 14.8906C7.21131 14.8361 7.21131 14.7812 7.21652 14.7267C7.19964 14.6311 7.19964 14.5334 7.21652 14.4378C7.21652 14.3318 7.28537 14.2161 7.32471 14.1101L9.40983 8.57015ZM10.3934 9.83235L9.459 12.7228H11.3179L10.3934 9.83235Z" fill="#FEE500"/>
<path id="Vector_4" d="M13.7365 8.87862C13.7265 8.66241 13.8043 8.45112 13.9528 8.29092C14.0284 8.21629 14.119 8.15797 14.219 8.1198C14.3189 8.08163 14.426 8.06436 14.5331 8.06922C14.7174 8.06712 14.8972 8.12474 15.0446 8.23306C15.1812 8.34607 15.2719 8.50328 15.3003 8.67621C15.31 8.74332 15.31 8.81151 15.3003 8.87862V13.9465H18.005C18.1925 13.9441 18.3768 13.9941 18.5361 14.0909C18.6078 14.1342 18.6693 14.1918 18.7167 14.2598C18.7642 14.3279 18.7965 14.4049 18.8115 14.486C18.8115 14.486 18.8115 14.5823 18.8115 14.6305C18.8162 14.7265 18.7972 14.822 18.7561 14.9093C18.715 14.9965 18.6531 15.0728 18.5755 15.1315C18.404 15.2532 18.1971 15.3173 17.9854 15.3145H14.661C14.4493 15.3279 14.2388 15.2739 14.061 15.1605C13.902 15.044 13.796 14.871 13.766 14.6787C13.7588 14.5729 13.7588 14.4666 13.766 14.3607L13.7365 8.87862Z" fill="#FEE500"/>
<path id="Vector_5" d="M18.9888 8.87867C18.9829 8.66308 19.0602 8.45325 19.2052 8.29097C19.3526 8.15975 19.5417 8.08227 19.7405 8.07174C19.9394 8.06121 20.1359 8.11822 20.2969 8.2331C20.4365 8.34513 20.5307 8.50226 20.5625 8.67626C20.5673 8.74362 20.5673 8.81131 20.5625 8.87867V11.2391L23.0508 8.42575C23.1467 8.32977 23.2485 8.23977 23.3557 8.15607C23.4567 8.09714 23.5726 8.06702 23.6901 8.06927C23.862 8.06835 24.0301 8.11879 24.1721 8.21382C24.2389 8.25793 24.296 8.31484 24.34 8.38106C24.3839 8.44727 24.4138 8.52145 24.4278 8.59923C24.4318 8.6183 24.4318 8.63802 24.4278 8.65709C24.423 8.67933 24.423 8.70225 24.4278 8.72448C24.4274 8.82587 24.4003 8.92549 24.3491 9.01357C24.2969 9.10684 24.2342 9.194 24.1622 9.27361L22.5295 11.0272L24.4966 14.0139V14.1103C24.5988 14.2483 24.6784 14.4012 24.7327 14.5632V14.6113C24.7441 14.7229 24.7276 14.8356 24.6848 14.9396C24.642 15.0437 24.574 15.136 24.4868 15.2086C24.3227 15.3301 24.122 15.3946 23.9163 15.3917C23.7797 15.3973 23.644 15.3673 23.5229 15.3049C23.3919 15.2189 23.284 15.1033 23.2082 14.9678L21.3788 12.0773L20.5034 12.9734V14.5823C20.5093 14.7979 20.4321 15.0078 20.2871 15.17C20.2093 15.2445 20.1169 15.3026 20.0154 15.3407C19.9139 15.3788 19.8055 15.3962 19.6969 15.3917C19.5155 15.3955 19.3382 15.3376 19.1953 15.2279C19.0564 15.1194 18.9621 14.9655 18.9298 14.7944C18.9201 14.7241 18.9201 14.6527 18.9298 14.5823L18.9888 8.87867Z" fill="#FEE500"/>
</g>
</svg>
