<svg width="4" height="16" viewBox="0 0 4 16" fill="none" xmlns="http://www.w3.org/2000/svg">
<g id="Vector">
<path id="Vector_2" d="M2.00004 3.83333C2.32968 3.83333 2.65191 3.73559 2.92599 3.55245C3.20007 3.36931 3.4137 3.10902 3.53984 2.80447C3.66599 2.49993 3.69899 2.16482 3.63468 1.84152C3.57038 1.51822 3.41164 1.22124 3.17855 0.988156C2.94547 0.755068 2.64849 0.596334 2.32519 0.532025C2.00189 0.467717 1.66678 0.500722 1.36224 0.626868C1.05769 0.753014 0.797395 0.966635 0.614259 1.24072C0.431123 1.5148 0.333375 1.83703 0.333375 2.16667C0.333375 2.6087 0.50897 3.03262 0.821531 3.34518C1.13409 3.65774 1.55801 3.83333 2.00004 3.83333ZM2.00004 12.1667C1.67041 12.1667 1.34817 12.2644 1.07409 12.4476C0.80001 12.6307 0.586388 12.891 0.460242 13.1955C0.334096 13.5001 0.301091 13.8352 0.365399 14.1585C0.429708 14.4818 0.588443 14.7788 0.821531 15.0118C1.05462 15.2449 1.35159 15.4037 1.67489 15.468C1.99819 15.5323 2.3333 15.4993 2.63785 15.3731C2.94239 15.247 3.20269 15.0334 3.38582 14.7593C3.56896 14.4852 3.66671 14.163 3.66671 13.8333C3.66671 13.3913 3.49111 12.9674 3.17855 12.6548C2.86599 12.3423 2.44207 12.1667 2.00004 12.1667ZM2.00004 6.33333C1.67041 6.33333 1.34817 6.43108 1.07409 6.61422C0.80001 6.79735 0.586388 7.05765 0.460242 7.3622C0.334096 7.66674 0.301091 8.00185 0.365399 8.32515C0.429708 8.64845 0.588443 8.94543 0.821531 9.17851C1.05462 9.4116 1.35159 9.57033 1.67489 9.63464C1.99819 9.69895 2.3333 9.66595 2.63785 9.5398C2.94239 9.41365 3.20269 9.20003 3.38582 8.92595C3.56896 8.65187 3.66671 8.32964 3.66671 8C3.66671 7.55797 3.49111 7.13405 3.17855 6.82149C2.86599 6.50893 2.44207 6.33333 2.00004 6.33333Z" fill="#6B7684"/>
</g>
</svg>
