<svg width="29" height="28" viewBox="0 0 29 28" fill="none" xmlns="http://www.w3.org/2000/svg">
<g id="Communication / message">
<path id="Vector" d="M22.6666 4.66669H6.33325C5.40499 4.66669 4.51476 5.03544 3.85838 5.69181C3.202 6.34819 2.83325 7.23843 2.83325 8.16669V19.8334C2.83325 20.7616 3.202 21.6519 3.85838 22.3082C4.51476 22.9646 5.40499 23.3334 6.33325 23.3334H22.6666C23.5948 23.3334 24.4851 22.9646 25.1415 22.3082C25.7978 21.6519 26.1666 20.7616 26.1666 19.8334V8.16669C26.1666 7.23843 25.7978 6.34819 25.1415 5.69181C24.4851 5.03544 23.5948 4.66669 22.6666 4.66669ZM22.1883 7.00002L15.3283 13.86C15.2198 13.9694 15.0908 14.0562 14.9486 14.1154C14.8064 14.1746 14.6539 14.2051 14.4999 14.2051C14.3459 14.2051 14.1934 14.1746 14.0512 14.1154C13.9091 14.0562 13.78 13.9694 13.6716 13.86L6.81158 7.00002H22.1883ZM23.8333 19.8334C23.8333 20.1428 23.7103 20.4395 23.4915 20.6583C23.2728 20.8771 22.976 21 22.6666 21H6.33325C6.02383 21 5.72709 20.8771 5.50829 20.6583C5.2895 20.4395 5.16659 20.1428 5.16659 19.8334V8.64502L12.0266 15.505C12.6828 16.1605 13.5724 16.5286 14.4999 16.5286C15.4274 16.5286 16.317 16.1605 16.9733 15.505L23.8333 8.64502V19.8334Z" fill="#007BFF"/>
</g>
</svg>
