<svg width="current" height="current" viewBox="0 0 14 20" fill="none" xmlns="http://www.w3.org/2000/svg">
<g id="Vector">
<path id="Vector_2" d="M6.99967 12.4997C7.88373 12.4997 8.73158 12.1485 9.3567 11.5234C9.98182 10.8982 10.333 10.0504 10.333 9.16634V4.16634C10.333 3.28229 9.98182 2.43444 9.3567 1.80932C8.73158 1.1842 7.88373 0.833008 6.99967 0.833008C6.11562 0.833008 5.26777 1.1842 4.64265 1.80932C4.01753 2.43444 3.66634 3.28229 3.66634 4.16634V9.16634C3.66634 10.0504 4.01753 10.8982 4.64265 11.5234C5.26777 12.1485 6.11562 12.4997 6.99967 12.4997ZM5.33301 4.16634C5.33301 3.72431 5.5086 3.30039 5.82116 2.98783C6.13372 2.67527 6.55765 2.49967 6.99967 2.49967C7.4417 2.49967 7.86562 2.67527 8.17819 2.98783C8.49075 3.30039 8.66634 3.72431 8.66634 4.16634V9.16634C8.66634 9.60837 8.49075 10.0323 8.17819 10.3449C7.86562 10.6574 7.4417 10.833 6.99967 10.833C6.55765 10.833 6.13372 10.6574 5.82116 10.3449C5.5086 10.0323 5.33301 9.60837 5.33301 9.16634V4.16634ZM13.6663 9.16634C13.6663 8.94533 13.5785 8.73337 13.4223 8.57709C13.266 8.4208 13.054 8.33301 12.833 8.33301C12.612 8.33301 12.4 8.4208 12.2438 8.57709C12.0875 8.73337 11.9997 8.94533 11.9997 9.16634C11.9997 10.4924 11.4729 11.7642 10.5352 12.7019C9.59753 13.6396 8.32576 14.1663 6.99967 14.1663C5.67359 14.1663 4.40182 13.6396 3.46414 12.7019C2.52646 11.7642 1.99967 10.4924 1.99967 9.16634C1.99967 8.94533 1.91188 8.73337 1.7556 8.57709C1.59932 8.4208 1.38735 8.33301 1.16634 8.33301C0.945327 8.33301 0.733366 8.4208 0.577086 8.57709C0.420805 8.73337 0.333008 8.94533 0.333008 9.16634C0.334479 10.7891 0.927776 12.3556 2.00167 13.5721C3.07557 14.7887 4.55632 15.5718 6.16634 15.7747V17.4997H4.49967C4.27866 17.4997 4.0667 17.5875 3.91042 17.7437C3.75414 17.9 3.66634 18.112 3.66634 18.333C3.66634 18.554 3.75414 18.766 3.91042 18.9223C4.0667 19.0785 4.27866 19.1663 4.49967 19.1663H9.49967C9.72069 19.1663 9.93265 19.0785 10.0889 18.9223C10.2452 18.766 10.333 18.554 10.333 18.333C10.333 18.112 10.2452 17.9 10.0889 17.7437C9.93265 17.5875 9.72069 17.4997 9.49967 17.4997H7.83301V15.7747C9.44302 15.5718 10.9238 14.7887 11.9977 13.5721C13.0716 12.3556 13.6649 10.7891 13.6663 9.16634Z" fill="current"/>
</g>
</svg>
