<?xml version="1.0" encoding="UTF-8"?>
<svg version="1.1" xmlns="http://www.w3.org/2000/svg" width="current" height="current">
<path d="M0 0 C1.99954746 -0.04254356 4.00041636 -0.04080783 6 0 C8.04698414 2.04698414 7.70045693 6.30411241 8 9 C8.66 9 9.32 9 10 9 C9.95875 9.928125 9.9175 10.85625 9.875 11.8125 C9.72863661 15.15809719 9.72863661 15.15809719 12 18 C10.33333333 18 8.66666667 18 7 18 C7 18.66 7 19.32 7 20 C4.36 20 1.72 20 -1 20 C-0.67 19.01 -0.34 18.02 0 17 C-0.99 16.13375 -0.99 16.13375 -2 15.25 C-4 13 -4 13 -4 9 C-3.34 9 -2.68 9 -2 9 C-3.20381448 6.50638429 -4.45428722 4.31856917 -6 2 C-3 2 -3 2 -1 3 C-0.67 2.01 -0.34 1.02 0 0 Z " fill="current" transform="translate(9,2)"/>
</svg>
