<svg width="22" height="23" viewBox="0 0 22 23" fill="none" xmlns="http://www.w3.org/2000/svg">
<g id="Vector">
<path id="Vector_2" fill-rule="evenodd" clip-rule="evenodd" d="M17 12.747H14.989L14.269 15.366C14.2062 15.6002 14.0674 15.807 13.8746 15.9539C13.6817 16.1008 13.4455 16.1796 13.203 16.178H13.202C12.698 16.178 12.27 15.851 12.137 15.366L11 11.238L9.864 15.366C9.80117 15.6002 9.66245 15.807 9.46955 15.9539C9.27666 16.1008 9.04048 16.1796 8.798 16.178C8.294 16.178 7.866 15.852 7.732 15.367L7.011 12.747H5C4.76131 12.747 4.53239 12.6522 4.3636 12.4834C4.19482 12.3146 4.1 12.0857 4.1 11.847C4.1 11.6083 4.19482 11.3794 4.3636 11.2106C4.53239 11.0418 4.76131 10.947 5 10.947H6.516L5.885 8.655C5.8501 8.53999 5.83859 8.41916 5.85114 8.29964C5.8637 8.18011 5.90006 8.06431 5.9581 7.95907C6.01613 7.85382 6.09466 7.76127 6.18904 7.68686C6.28342 7.61246 6.39175 7.55771 6.50764 7.52585C6.62352 7.49399 6.74461 7.48566 6.86377 7.50136C6.98292 7.51706 7.09772 7.55646 7.2014 7.61725C7.30508 7.67803 7.39554 7.75897 7.46743 7.85527C7.53933 7.95158 7.5912 8.06132 7.62 8.178L8.798 12.456L9.934 8.329C9.99649 8.09452 10.1351 7.88745 10.328 7.74029C10.521 7.59314 10.7573 7.51424 11 7.516C11.504 7.516 11.933 7.843 12.066 8.329L13.203 12.456L14.38 8.178C14.4113 8.06401 14.4648 7.95731 14.5373 7.86399C14.6099 7.77066 14.7001 7.69254 14.8029 7.63409C14.9056 7.57563 15.0189 7.53799 15.1362 7.5233C15.2535 7.50862 15.3725 7.51718 15.4865 7.5485C15.6005 7.57982 15.7072 7.63329 15.8005 7.70584C15.8938 7.7784 15.972 7.86863 16.0304 7.97138C16.0889 8.07412 16.1265 8.18738 16.1412 8.30468C16.1559 8.42197 16.1473 8.54101 16.116 8.655L15.484 10.947H17C17.2387 10.947 17.4676 11.0418 17.6364 11.2106C17.8052 11.3794 17.9 11.6083 17.9 11.847C17.9 12.0857 17.8052 12.3146 17.6364 12.4834C17.4676 12.6522 17.2387 12.747 17 12.747ZM11 0.5C4.925 0.5 0 5.425 0 11.5C0 17.576 4.925 22.5 11 22.5C17.075 22.5 22 17.576 22 11.5C22 5.425 17.075 0.5 11 0.5Z" fill="white"/>
</g>
</svg>
