<svg width="49" height="48" viewBox="0 0 49 48" fill="none" xmlns="http://www.w3.org/2000/svg">
<g id="Icon">
<g id="Vector">
<path id="Vector_2" d="M42.8502 16.0078H5.64983C4.32444 16.0078 3.25 17.0822 3.25 18.4076V38.3961C3.25 39.7215 4.32444 40.796 5.64983 40.796H42.8502C44.1756 40.796 45.25 39.7215 45.25 38.3961V18.4076C45.25 17.0822 44.1756 16.0078 42.8502 16.0078Z" fill="#0C9D60"/>
<path id="Vector_3" d="M42.8502 11.4182H5.64983C4.32444 11.4182 3.25 12.4926 3.25 13.818V33.8065C3.25 35.1319 4.32444 36.2063 5.64983 36.2063H42.8502C44.1756 36.2063 45.25 35.1319 45.25 33.8065V13.818C45.25 12.4926 44.1756 11.4182 42.8502 11.4182Z" fill="#4FC378"/>
<path id="Vector_4" d="M28.5334 11.403H19.9678V36.1912H28.5334V11.403Z" fill="#7AD38D"/>
<path id="Vector_5" d="M28.5334 36.1912H19.9678V40.796H28.5334V36.1912Z" fill="#4FC378"/>
</g>
<g id="Vector_6">
<path id="Vector_7" d="M47.6926 8.33068H33.1033C32.8338 8.33068 32.6949 8.00935 32.8784 7.81241L39.9496 0.237383C40.2481 -0.0818708 40.755 -0.0787613 41.0483 0.244639L47.9196 7.81552C48.0989 8.01349 47.9589 8.33068 47.6915 8.33068H47.6926Z" fill="#1E6EF4"/>
<path id="Vector_8" d="M33.778 14.5935C35.8656 14.5935 37.5572 13.1082 37.5572 11.2745V8.32971H43.7671V12.6966C43.7671 16.0353 40.6855 18.7417 36.8834 18.7417C33.0814 18.7417 29.9998 16.0353 29.9998 12.6966V11.2735C29.9998 13.1061 31.6914 14.5925 33.779 14.5925L33.778 14.5935Z" fill="#1E6EF4"/>
</g>
</g>
</svg>
