<svg width="current" height="current" viewBox="0 0 25 24" fill="none" xmlns="http://www.w3.org/2000/svg">
<g id="User Interface / Reload">
<path id="Vector" d="M21.1668 11C20.9015 11 20.6472 11.1054 20.4596 11.2929C20.2721 11.4804 20.1668 11.7348 20.1668 12C20.1787 13.873 19.537 15.6916 18.3524 17.1425C17.1678 18.5933 15.5143 19.5857 13.6767 19.9486C11.8391 20.3115 9.93253 20.0223 8.28525 19.1308C6.63798 18.2392 5.35315 16.8012 4.65207 15.0643C3.95099 13.3273 3.87754 11.4003 4.44437 9.61508C5.0112 7.82983 6.18282 6.29813 7.75745 5.28378C9.33208 4.26942 11.2111 3.83591 13.071 4.05791C14.9309 4.27991 16.6551 5.14352 17.9468 6.5H15.5468C15.2815 6.5 15.0272 6.60536 14.8396 6.79289C14.6521 6.98043 14.5468 7.23478 14.5468 7.5C14.5468 7.76522 14.6521 8.01957 14.8396 8.20711C15.0272 8.39464 15.2815 8.5 15.5468 8.5H20.0768C20.342 8.5 20.5963 8.39464 20.7839 8.20711C20.9714 8.01957 21.0768 7.76522 21.0768 7.5V3C21.0768 2.73478 20.9714 2.48043 20.7839 2.29289C20.5963 2.10536 20.342 2 20.0768 2C19.8115 2 19.5572 2.10536 19.3696 2.29289C19.1821 2.48043 19.0768 2.73478 19.0768 3V4.77C17.4114 3.17806 15.2475 2.20995 12.9508 2.02933C10.654 1.84871 8.36538 2.46664 6.47167 3.77869C4.57796 5.09074 3.19536 7.01641 2.55758 9.23019C1.9198 11.444 2.06596 13.8101 2.97136 15.9285C3.87676 18.047 5.48585 19.7878 7.52665 20.8568C9.56744 21.9258 11.9148 22.2574 14.1718 21.7955C16.4288 21.3336 18.4571 20.1065 19.9139 18.3217C21.3706 16.5369 22.1664 14.3038 22.1668 12C22.1668 11.7348 22.0614 11.4804 21.8739 11.2929C21.6863 11.1054 21.432 11 21.1668 11Z" fill="current"/>
</g>
</svg>
