<svg width="223" height="139" viewBox="0 0 223 139" fill="none" xmlns="http://www.w3.org/2000/svg">
<g id="Vector">
<g id="Vector_2">
<path id="Vector_3" d="M174.829 58.927H68.5422C64.7554 58.927 61.6855 61.9968 61.6855 65.7837V122.894C61.6855 126.681 64.7554 129.75 68.5422 129.75H174.829C178.616 129.75 181.686 126.681 181.686 122.894V65.7837C181.686 61.9968 178.616 58.927 174.829 58.927Z" fill="#4592FB"/>
<path id="Vector_4" d="M174.829 45.7704H68.5422C64.7554 45.7704 61.6855 48.8402 61.6855 52.6271V109.737C61.6855 113.524 64.7554 116.594 68.5422 116.594H174.829C178.616 116.594 181.686 113.524 181.686 109.737V52.6271C181.686 48.8402 178.616 45.7704 174.829 45.7704Z" fill="#64A7FF"/>
<path id="Vector_5" d="M133.923 45.7704H109.449V116.594H133.923V45.7704Z" fill="#93C9FF"/>
<path id="Vector_6" d="M133.923 116.594H109.449V129.75H133.923V116.594Z" fill="#64A7FF"/>
<g id="Group">
<path id="Vector_7" d="M212.325 52C211.352 52 210.563 51.2111 210.563 50.2376V33.7624C210.563 32.7889 211.352 32 212.325 32C213.299 32 214.088 32.7889 214.088 33.7624V50.2376C214.088 51.2111 213.299 52 212.325 52Z" fill="#B0B8C1" stroke="#E6F2FF"/>
<path id="Vector_8" d="M220.563 43.7624H204.088C203.114 43.7624 202.325 42.9735 202.325 42C202.325 41.0264 203.114 40.2375 204.088 40.2375H220.563C221.536 40.2375 222.325 41.0264 222.325 42C222.325 42.9735 221.536 43.7624 220.563 43.7624Z" fill="#B0B8C1" stroke="#E6F2FF"/>
</g>
<g id="Group_2">
<path id="Vector_9" d="M193.326 33C191.768 33 190.506 31.7378 190.506 30.1801V3.81988C190.506 2.26218 191.768 1 193.326 1C194.883 1 196.146 2.26218 196.146 3.81988V30.1801C196.146 31.7378 194.883 33 193.326 33Z" fill="#B0B8C1" stroke="#B0B8C1"/>
<path id="Vector_10" d="M206.505 19.8199H180.145C178.587 19.8199 177.325 18.5578 177.325 17.0001C177.325 15.4424 178.587 14.1802 180.145 14.1802H206.505C208.063 14.1802 209.325 15.4424 209.325 17.0001C209.325 18.5578 208.063 19.8199 206.505 19.8199Z" fill="#B0B8C1" stroke="#B0B8C1"/>
</g>
</g>
<g id="Vector_11">
<g id="Vector_12">
<path id="Vector_13" d="M194.078 106.085L184.918 98.0129C183.785 97.0138 182.084 97.0138 180.951 98.0129L162.334 114.42C161.687 114.99 161.318 117.646 161.318 118.507V132.229C161.318 135.543 164.005 138.23 167.318 138.23H215.317C218.631 138.23 221.318 135.543 221.318 132.229V92.2181C221.318 89.6357 218.273 88.26 216.335 89.9681L198.047 106.085C196.913 107.084 195.211 107.084 194.078 106.085Z" fill="#7BD58F"/>
<path id="Vector_14" d="M216.333 89.9679L198.045 106.085C196.912 107.084 195.213 107.084 194.078 106.085L184.918 98.0127C183.785 97.0135 182.086 97.0135 180.951 98.0127L162.334 114.418C161.687 114.988 161.318 115.809 161.318 116.67V124.5L180.951 107.196C182.086 106.197 183.785 106.197 184.918 107.196L194.078 115.269C195.213 116.268 196.912 116.268 198.045 115.269L221.316 94.7599V92.2197C221.316 89.6373 218.271 88.2616 216.333 89.9679Z" fill="#23B169"/>
</g>
<g id="Vector_15">
<path id="Vector_16" d="M207.488 77.0968L193.508 91.0764C192.682 91.9025 191.344 91.9025 190.517 91.0764C189.691 90.2503 189.691 88.9116 190.517 88.0855L204.497 74.1058C205.323 73.2797 206.662 73.2797 207.488 74.1058C208.314 74.9319 208.314 76.2707 207.488 77.0968Z" fill="#078D5A"/>
<path id="Vector_17" d="M195.592 79.1814C196.847 77.926 196.847 75.8906 195.592 74.6352C194.336 73.3798 192.301 73.3798 191.046 74.6352C189.79 75.8906 189.79 77.926 191.046 79.1814C192.301 80.4368 194.336 80.4368 195.592 79.1814Z" fill="#078D5A"/>
<path id="Vector_18" d="M206.958 90.547C208.214 89.2916 208.214 87.2562 206.958 86.0008C205.703 84.7454 203.668 84.7454 202.412 86.0008C201.157 87.2562 201.157 89.2916 202.412 90.547C203.668 91.8024 205.703 91.8024 206.958 90.547Z" fill="#078D5A"/>
</g>
</g>
<g id="Vector_19">
<path id="Vector_20" d="M35.4699 67.5751C35.4699 67.9251 35.2299 68.2251 34.8899 68.3051L29.6799 69.4751C28.3999 69.7551 27.3699 71.0751 27.1299 72.7351L26.1999 79.2251C26.1399 79.5951 25.8299 79.8651 25.4499 79.8651C25.0799 79.8651 24.7599 79.5951 24.7099 79.2251L23.7699 72.7351C23.5299 71.0751 22.5099 69.7551 21.2299 69.4751L16.0199 68.3051C15.6799 68.2251 15.4399 67.9251 15.4399 67.5751C15.4399 67.2251 15.6799 66.9151 16.0199 66.8351L21.2299 65.6751C22.5099 65.3851 23.5299 64.0751 23.7699 62.4051L24.7099 55.9151C24.7599 55.5451 25.0799 55.2751 25.4499 55.2751C25.8299 55.2751 26.1399 55.5451 26.1999 55.9151L27.1299 62.4051C27.2499 63.2451 27.5699 63.9851 28.0099 64.5551C28.4599 65.1251 29.0399 65.5251 29.6799 65.6751L34.8899 66.8351C35.2299 66.9151 35.4699 67.2251 35.4699 67.5751Z" fill="#FFCD00"/>
<path id="Vector_21" d="M19.23 79.6051C19.23 79.9551 18.99 80.2551 18.64 80.3351L15 81.1451C14.2 81.3351 13.55 82.1751 13.39 83.2451L12.74 87.7851C12.69 88.1551 12.37 88.4251 12 88.4251C11.62 88.4251 11.31 88.1551 11.26 87.7851L10.6 83.2451C10.44 82.1751 9.80002 81.3351 8.99002 81.1451L5.35002 80.3351C5.01002 80.2551 4.77002 79.9551 4.77002 79.6051C4.77002 79.2551 5.01002 78.9451 5.35002 78.8651L8.99002 78.0551C9.80002 77.8751 10.44 77.0251 10.6 75.9551L11.26 71.4151C11.31 71.0451 11.62 70.7751 12 70.7751C12.37 70.7751 12.69 71.0451 12.74 71.4151L13.39 75.9551C13.55 77.0251 14.2 77.8751 15 78.0551L18.64 78.8651C18.99 78.9451 19.23 79.2551 19.23 79.6051Z" fill="#FFCD00"/>
<path id="Vector_22" d="M11.87 62.7552C11.87 63.1052 11.63 63.4052 11.29 63.4852L8.38 64.1352C7.79 64.2652 7.32 64.8952 7.21 65.6952L6.68 69.3252C6.63 69.6852 6.31 69.9652 5.94 69.9652C5.57 69.9652 5.25 69.6852 5.2 69.3252L4.67 65.6952C4.56 64.8952 4.09 64.2652 3.5 64.1352L0.59 63.4852C0.25 63.4052 0 63.1052 0 62.7552C0 62.4052 0.25 62.0952 0.59 62.0252L3.5 61.3652C4.09 61.2352 4.56 60.6152 4.67 59.8152L5.2 56.1852C5.25 55.8152 5.57 55.5452 5.94 55.5452C6.31 55.5452 6.63 55.8152 6.68 56.1852L7.21 59.8152C7.32 60.6152 7.79 61.2352 8.38 61.3652L11.29 62.0252C11.63 62.0952 11.87 62.4052 11.87 62.7552Z" fill="#FFCD00"/>
</g>
<g id="Vector_23">
<path id="Vector_24" d="M41.3936 87.5425C44.4539 87.5425 44.3955 88.6633 46.4569 88.7723C48.5183 88.8826 49.5964 88.2339 50.9884 88.4389C51.9561 88.5816 52.6839 89.0136 53.1873 89.4378C53.7373 89.9023 53.8281 90.7105 53.3897 91.2813L48.5949 97.5109C48.168 98.0182 48.2199 98.7693 48.7207 99.2026C56.1827 105.667 65.3936 113.442 65.3936 120.422C65.3936 132.153 55.765 135.782 41.3936 135.782C27.0221 135.782 17.3936 132.153 17.3936 120.422C17.3936 113.443 26.6044 105.667 34.0664 99.2026C34.5672 98.7693 34.6191 98.0169 34.1923 97.5109L29.3974 91.2813C28.959 90.7105 29.0498 89.9023 29.5998 89.4378C30.1032 89.0136 30.831 88.5816 31.7987 88.4389C33.1907 88.2339 34.2701 88.8826 36.3302 88.7723C38.3916 88.662 38.3332 87.5425 41.3936 87.5425Z" fill="#FFC522"/>
<path id="Vector_25" d="M41.501 100.486C38.983 100.486 36.4597 100.249 33.9974 99.7798C33.2126 99.6293 32.6988 98.8717 32.848 98.0869C32.9985 97.302 33.7574 96.7844 34.541 96.9362C39.1062 97.8066 43.9049 97.8105 48.4182 96.9362C49.2018 96.7792 49.962 97.2968 50.1138 98.0817C50.2655 98.8665 49.7518 99.6255 48.967 99.7772C46.5319 100.248 44.0204 100.484 41.501 100.484V100.486Z" fill="#99452E"/>
<path id="Vector_26" fill-rule="evenodd" clip-rule="evenodd" d="M52.3598 121.193H48.5788L47.2251 126.117C47.107 126.558 46.8462 126.946 46.4835 127.223C46.1208 127.499 45.6768 127.647 45.2209 127.644C44.2733 127.644 43.4667 127.029 43.2167 126.117L41.0789 118.356L38.9431 126.117C38.825 126.558 38.5641 126.946 38.2015 127.223C37.8388 127.499 37.3948 127.647 36.9389 127.644C35.9913 127.644 35.1866 127.031 34.9346 126.119L33.579 121.193H29.7981C29.3493 121.193 28.9189 121.015 28.6016 120.698C28.2842 120.38 28.106 119.95 28.106 119.501C28.106 119.052 28.2842 118.622 28.6016 118.305C28.9189 117.987 29.3493 117.809 29.7981 117.809H32.6484L31.462 113.5C31.3964 113.283 31.3747 113.056 31.3984 112.832C31.422 112.607 31.4903 112.389 31.5994 112.191C31.7086 111.993 31.8562 111.819 32.0336 111.679C32.2111 111.54 32.4148 111.437 32.6327 111.377C32.8505 111.317 33.0782 111.301 33.3022 111.331C33.5263 111.36 33.7421 111.434 33.937 111.549C34.132 111.663 34.302 111.815 34.4372 111.996C34.5724 112.177 34.6699 112.383 34.7241 112.603L36.9389 120.646L39.0747 112.887C39.1922 112.446 39.4528 112.057 39.8155 111.78C40.1783 111.503 40.6227 111.355 41.0789 111.358C42.0265 111.358 42.8331 111.973 43.0832 112.887L45.2209 120.646L47.4338 112.603C47.4927 112.389 47.5932 112.188 47.7296 112.012C47.8661 111.837 48.0357 111.69 48.2289 111.58C48.4221 111.47 48.635 111.4 48.8555 111.372C49.0761 111.344 49.2999 111.36 49.5142 111.419C49.7285 111.478 49.9291 111.579 50.1046 111.715C50.28 111.852 50.4269 112.021 50.5368 112.214C50.6467 112.408 50.7175 112.62 50.7451 112.841C50.7727 113.062 50.7566 113.285 50.6977 113.5L49.5095 117.809H52.3598C52.8086 117.809 53.239 117.987 53.5563 118.305C53.8736 118.622 54.0519 119.052 54.0519 119.501C54.0519 119.95 53.8736 120.38 53.5563 120.698C53.239 121.015 52.8086 121.193 52.3598 121.193Z" fill="#FFF3CC"/>
</g>
</g>
</svg>
