<svg width="current" height="current" viewBox="0 0 20 20" fill="none" xmlns="http://www.w3.org/2000/svg">
<g id="Left Icon">
<path id="Vector" d="M15 11.6667C14.5076 11.6699 14.0221 11.7822 13.5783 11.9955C13.1346 12.2087 12.7435 12.5176 12.4333 12.9L8.18334 10.9417C8.38316 10.3298 8.38316 9.6702 8.18334 9.05833L12.4333 7.09999C12.9347 7.70497 13.6336 8.11339 14.4068 8.25319C15.18 8.39299 15.9777 8.25518 16.6591 7.86408C17.3406 7.47298 17.862 6.85372 18.1313 6.11561C18.4006 5.3775 18.4005 4.56798 18.1311 3.82992C17.8616 3.09185 17.3401 2.4727 16.6586 2.08172C15.9771 1.69074 15.1793 1.55307 14.4062 1.69301C13.6331 1.83296 12.9342 2.24151 12.433 2.84657C11.9317 3.45163 11.6603 4.21431 11.6667 4.99999C11.6692 5.19852 11.6887 5.39647 11.725 5.59166L7.325 7.61666C6.8559 7.15798 6.26187 6.84792 5.61734 6.72535C4.97281 6.60278 4.30644 6.67313 3.70171 6.9276C3.09699 7.18207 2.58081 7.60934 2.21784 8.15588C1.85487 8.70241 1.66125 9.34391 1.66125 9.99999C1.66125 10.6561 1.85487 11.2976 2.21784 11.8441C2.58081 12.3906 3.09699 12.8179 3.70171 13.0724C4.30644 13.3269 4.97281 13.3972 5.61734 13.2746C6.26187 13.1521 6.8559 12.842 7.325 12.3833L11.725 14.4083C11.6887 14.6035 11.6692 14.8015 11.6667 15C11.6667 15.6593 11.8622 16.3037 12.2284 16.8519C12.5947 17.4001 13.1153 17.8273 13.7244 18.0796C14.3335 18.3319 15.0037 18.3979 15.6503 18.2693C16.2969 18.1407 16.8909 17.8232 17.357 17.357C17.8232 16.8908 18.1407 16.2969 18.2693 15.6503C18.3979 15.0037 18.3319 14.3335 18.0796 13.7244C17.8273 13.1153 17.4001 12.5947 16.8519 12.2284C16.3037 11.8622 15.6593 11.6667 15 11.6667ZM15 3.33333C15.3296 3.33333 15.6519 3.43108 15.926 3.61421C16.2 3.79735 16.4137 4.05764 16.5398 4.36219C16.6659 4.66673 16.699 5.00184 16.6346 5.32514C16.5703 5.64845 16.4116 5.94542 16.1785 6.1785C15.9454 6.41159 15.6485 6.57033 15.3252 6.63464C15.0019 6.69894 14.6667 6.66594 14.3622 6.53979C14.0577 6.41365 13.7974 6.20003 13.6142 5.92594C13.4311 5.65186 13.3333 5.32963 13.3333 4.99999C13.3333 4.55797 13.5089 4.13404 13.8215 3.82148C14.1341 3.50892 14.558 3.33333 15 3.33333ZM5 11.6667C4.67037 11.6667 4.34813 11.5689 4.07405 11.3858C3.79997 11.2026 3.58635 10.9423 3.4602 10.6378C3.33406 10.3333 3.30105 9.99815 3.36536 9.67484C3.42967 9.35154 3.5884 9.05457 3.82149 8.82148C4.05458 8.5884 4.35155 8.42966 4.67485 8.36535C4.99815 8.30104 5.33327 8.33405 5.63781 8.46019C5.94235 8.58634 6.20265 8.79996 6.38579 9.07404C6.56892 9.34812 6.66667 9.67036 6.66667 9.99999C6.66667 10.442 6.49108 10.8659 6.17851 11.1785C5.86595 11.4911 5.44203 11.6667 5 11.6667ZM15 16.6667C14.6704 16.6667 14.3481 16.5689 14.0741 16.3858C13.8 16.2026 13.5864 15.9423 13.4602 15.6378C13.3341 15.3333 13.3011 14.9981 13.3654 14.6748C13.4297 14.3515 13.5884 14.0546 13.8215 13.8215C14.0546 13.5884 14.3516 13.4297 14.6749 13.3654C14.9982 13.301 15.3333 13.334 15.6378 13.4602C15.9424 13.5863 16.2027 13.8 16.3858 14.074C16.5689 14.3481 16.6667 14.6704 16.6667 15C16.6667 15.442 16.4911 15.8659 16.1785 16.1785C15.866 16.4911 15.442 16.6667 15 16.6667Z" fill="current"/>
</g>
</svg>
