<?xml version="1.0" encoding="UTF-8"?>
<svg version="1.1" xmlns="http://www.w3.org/2000/svg" width="current" height="current">
<path d="M0 0 C0 5.94 0 11.88 0 18 C-4 17 -4 17 -5.4375 15.5 C-7.48513623 13.53426922 -9.23747349 13.37331439 -12 13 C-12 10.36 -12 7.72 -12 5 C-11.0925 4.731875 -10.185 4.46375 -9.25 4.1875 C-6.03404821 3.01244069 -3.31022501 0 0 0 Z " fill="current" transform="translate(12,3)"/>
<path d="M0 0 C1.875 0.25 1.875 0.25 4 1 C6.05350217 4.14149806 6.29722778 6.79394123 6.3125 10.5 C6.32925781 11.4384375 6.34601562 12.376875 6.36328125 13.34375 C5.94768059 16.38255053 5.01958576 17.74062173 3 20 C2.01 19.67 1.02 19.34 0 19 C0.33 18.13375 0.66 17.2675 1 16.375 C2.22865244 12.22829802 2.83853883 8.83430369 1 4.8125 C0.67 4.214375 0.34 3.61625 0 3 C0 2.01 0 1.02 0 0 Z " fill="current" transform="translate(18,2)"/>
<path d="M0 0 C3.875 0.875 3.875 0.875 5 2 C5.23880597 9.52238806 5.23880597 9.52238806 4 12 C2.68 11.67 1.36 11.34 0 11 C0.185625 9.9275 0.37125 8.855 0.5625 7.75 C0.9304568 4.59608454 1.04465343 2.90181508 0 0 Z " fill="current" transform="translate(14,6)"/>
</svg>
