<svg width="current" height="current" viewBox="0 0 18 17" fill="none" xmlns="http://www.w3.org/2000/svg">
<g id="Vector">
<path id="Vector_2" d="M17.328 6.11174C17.2754 5.95931 17.1797 5.82543 17.0525 5.72632C16.9253 5.62722 16.772 5.56715 16.6114 5.5534L11.8697 4.86174L9.74471 0.553405C9.67647 0.412512 9.56993 0.29369 9.43729 0.210549C9.30464 0.127409 9.15126 0.083313 8.99471 0.083313C8.83816 0.083313 8.68478 0.127409 8.55214 0.210549C8.41949 0.29369 8.31295 0.412512 8.24471 0.553405L6.11971 4.8534L1.37805 5.5534C1.22381 5.57533 1.07882 5.64004 0.959504 5.7402C0.840192 5.84037 0.751345 5.97197 0.703045 6.12007C0.658833 6.2648 0.654865 6.41884 0.691568 6.56565C0.728271 6.71246 0.80426 6.84651 0.911379 6.9534L4.35305 10.2867L3.51971 15.0201C3.48996 15.1763 3.50554 15.3378 3.5646 15.4854C3.62367 15.6331 3.72376 15.7608 3.85305 15.8534C3.97906 15.9435 4.12769 15.9967 4.28225 16.007C4.43681 16.0173 4.59119 15.9843 4.72805 15.9117L8.99471 13.6867L13.2447 15.9201C13.3617 15.9861 13.4938 16.0205 13.628 16.0201C13.8046 16.0207 13.9767 15.9653 14.1197 15.8617C14.249 15.7691 14.3491 15.6414 14.4082 15.4938C14.4672 15.3461 14.4828 15.1846 14.453 15.0284L13.6197 10.2951L17.0614 6.96174C17.1817 6.8598 17.2706 6.72582 17.3178 6.57536C17.365 6.4249 17.3686 6.26413 17.328 6.11174ZM12.203 9.44507C12.1053 9.5396 12.0322 9.65661 11.9901 9.78588C11.948 9.91516 11.9381 10.0528 11.9614 10.1867L12.5614 13.6784L9.42805 12.0117C9.30748 11.9475 9.17297 11.914 9.03638 11.914C8.89978 11.914 8.76528 11.9475 8.64471 12.0117L5.51138 13.6784L6.11138 10.1867C6.13466 10.0528 6.12481 9.91516 6.08268 9.78588C6.04056 9.65661 5.96744 9.5396 5.86971 9.44507L3.36971 6.94507L6.87805 6.43674C7.01304 6.41796 7.14138 6.36636 7.25179 6.28645C7.36221 6.20654 7.45134 6.10077 7.51138 5.9784L8.99471 2.8034L10.5614 5.98674C10.6214 6.1091 10.7105 6.21487 10.821 6.29478C10.9314 6.37469 11.0597 6.42629 11.1947 6.44507L14.703 6.9534L12.203 9.44507Z" fill="current"/>
</g>
</svg>
