<?xml version="1.0" encoding="UTF-8"?>
<svg version="1.1" xmlns="http://www.w3.org/2000/svg" width="current" height="current">
<path d="M0 0 C4.8846525 2.26787438 7.73212562 5.1153475 10 10 C10.75381535 15.5997712 10.77303575 20.33499991 8.375 25.5 C3.80134327 30.3143755 0.6912538 32.25156236 -6 32.5 C-12.6912538 32.25156236 -15.80134327 30.3143755 -20.375 25.5 C-22.77303575 20.33499991 -22.75381535 15.5997712 -22 10 C-17.52212837 0.3553534 -9.85292056 -1.32635469 0 0 Z M-11 10 C-11.33333333 12.5 -11.33333333 12.5 -11 15 C-9.11499729 17.31563087 -9.11499729 17.31563087 -6 17.25 C-2.88500271 17.31563087 -2.88500271 17.31563087 -1 15 C-0.66666667 12.5 -0.66666667 12.5 -1 10 C-2.88500271 7.68436913 -2.88500271 7.68436913 -6 7.75 C-9.11499729 7.68436913 -9.11499729 7.68436913 -11 10 Z M-15 23 C-15.04289755 24.93109581 -15.04289755 24.93109581 -14 27 C-9.90531169 29.50695202 -7.40172643 30.40503058 -2.6875 29.3125 C0.98282832 28.30320956 0.98282832 28.30320956 3 26 C2.83039198 23.37107576 2.19209319 22.21514438 0.4375 20.25 C-5.61283879 17.14726216 -10.3825045 18.3825045 -15 23 Z " fill="current" transform="translate(22,0)"/>
</svg>
