<svg width="40" height="41" viewBox="0 0 40 41" fill="none" xmlns="http://www.w3.org/2000/svg">
<g id="Icon">
<circle id="Ellipse 2" cx="20" cy="20.5" r="20" fill="#007CBD"/>
<g id="Vector">
<path id="Vector_2" d="M40 20.497C40 31.539 31.045 40.5 20.0091 40.5C8.97315 40.5 0 31.545 0 20.497C0 9.44888 8.95495 0.5 20.003 0.5C31.0511 0.5 40 9.45495 40 20.497Z" fill="white"/>
<path id="SVGID" d="M20.003 39.493C30.5293 39.493 39.0595 30.9567 39.0595 20.4304C39.0595 9.90404 30.5293 1.37378 19.9969 1.37378C9.4645 1.37378 0.940308 9.90404 0.940308 20.4304C0.940308 30.9567 9.47664 39.493 20.003 39.493Z" fill="#007CBD"/>
<g id="Clip path group">
<mask id="mask0_76_2018" style="mask-type:luminance" maskUnits="userSpaceOnUse" x="0" y="1" width="40" height="39">
<g id="clippath-1">
<path id="SVGID-2" d="M20.003 39.493C30.5293 39.493 39.0595 30.9567 39.0595 20.4304C39.0595 9.90404 30.5293 1.37378 19.9969 1.37378C9.4645 1.37378 0.940308 9.90404 0.940308 20.4304C0.940308 30.9567 9.47664 39.493 20.003 39.493Z" fill="white"/>
</g>
</mask>
<g mask="url(#mask0_76_2018)">
<g id="Group">
<path id="Vector_3" d="M20.0758 29.6281C28.4544 29.6281 35.6317 31.9578 38.7077 35.2826C39.7391 32.9104 40.3033 30.3015 40.3033 27.5653C40.3033 16.6325 31.2391 7.76855 20.0697 7.76855C8.90029 7.76855 -0.151733 16.6325 -0.151733 27.5714C-0.151733 30.3076 0.418568 32.9164 1.44997 35.2826C4.51989 31.9639 11.7033 29.6281 20.0758 29.6281Z" fill="#007CBD"/>
<path id="Vector_4" d="M20.0758 29.6524C28.4301 29.6524 35.5953 31.97 38.6592 35.2584C39.6906 32.9104 40.2548 30.3198 40.2548 27.6018C40.2548 16.7539 31.2149 7.93848 20.0758 7.93848C8.93674 7.93848 -0.103149 16.76 -0.103149 27.6078C-0.103149 30.3259 0.467152 32.9104 1.49248 35.2584C4.55027 31.964 11.7215 29.6524 20.0698 29.6524H20.0758Z" fill="#007EBF"/>
<path id="Vector_5" d="M20.0698 29.6707C28.4059 29.6707 35.5468 31.964 38.6046 35.2341C39.6299 32.9044 40.1942 30.332 40.1942 27.6382C40.1942 16.8753 31.1786 8.1084 20.0698 8.1084C8.96106 8.1084 -0.0545654 16.8813 -0.0545654 27.6443C-0.0545654 30.338 0.515736 32.9044 1.54107 35.2341C4.59279 31.964 11.7398 29.6707 20.0698 29.6707Z" fill="#0080C0"/>
<path id="Vector_6" d="M20.0698 29.695C28.3816 29.695 35.5043 31.9701 38.556 35.2099C39.5814 32.8984 40.1395 30.3502 40.1395 27.6807C40.1395 17.0088 31.1482 8.27832 20.0637 8.27832C8.97922 8.27832 0 17.0088 0 27.6807C0 30.3502 0.564235 32.8984 1.58956 35.2099C4.63522 31.9701 11.764 29.695 20.0758 29.695H20.0698Z" fill="#0082C2"/>
<path id="Vector_7" d="M20.0636 29.713C28.3512 29.713 35.4618 31.9699 38.5014 35.1854C39.5206 32.8921 40.0849 30.3682 40.0849 27.7169C40.0849 17.1299 31.1178 8.448 20.0636 8.448C9.00948 8.448 0.0484619 17.1299 0.0484619 27.723C0.0484619 30.3743 0.612697 32.8982 1.63196 35.1915C4.66548 31.976 11.7821 29.719 20.0697 29.719L20.0636 29.713Z" fill="#0083C3"/>
<path id="Vector_8" d="M20.0637 29.7373C28.3331 29.7373 35.4194 31.976 38.4529 35.1612C39.4721 32.8861 40.0303 30.3804 40.0303 27.7534C40.0303 17.2574 31.0814 8.61792 20.0576 8.61792C9.0338 8.61792 0.0970459 17.2574 0.0970459 27.7594C0.0970459 30.3865 0.661281 32.8922 1.67448 35.1612C4.70193 31.97 11.8004 29.7373 20.0637 29.7373Z" fill="#0086C5"/>
<path id="Vector_9" d="M20.0637 29.7555C28.3088 29.7555 35.383 31.976 38.4105 35.137C39.4297 32.88 39.9818 30.3986 39.9818 27.7898C39.9818 17.3787 31.0572 8.78174 20.0637 8.78174C9.07024 8.78174 0.14563 17.3848 0.14563 27.7958C0.14563 30.4047 0.703798 32.88 1.72306 35.137C4.74445 31.976 11.8186 29.7555 20.0637 29.7555Z" fill="#0088C8"/>
<path id="Vector_10" d="M20.0576 29.7798C28.2845 29.7798 35.3344 31.9822 38.3558 35.1128C39.369 32.8801 39.9271 30.4108 39.9271 27.8323C39.9271 17.5062 31.0268 8.95776 20.0576 8.95776C9.08837 8.95776 0.194092 17.5062 0.194092 27.8323C0.194092 30.4169 0.75226 32.8801 1.76546 35.1128C4.78077 31.9761 11.8367 29.7798 20.0576 29.7798Z" fill="#0089C8"/>
<path id="Vector_11" d="M20.0576 29.7978C28.2603 29.7978 35.298 31.9759 38.3073 35.0883C39.3205 32.8738 39.8726 30.4288 39.8726 27.8685C39.8726 17.6334 30.9965 9.12744 20.0576 9.12744C9.11876 9.12744 0.242676 17.6334 0.242676 27.8685C0.242676 30.4288 0.800843 32.8738 1.80797 35.0883C4.81116 31.982 11.855 29.7978 20.0516 29.7978H20.0576Z" fill="#008BCB"/>
<path id="Vector_12" d="M20.0515 29.8224C28.2299 29.8224 35.2494 31.9822 38.2526 35.0643C39.2658 32.868 39.8179 30.4412 39.8179 27.9052C39.8179 17.7611 30.9661 9.2915 20.0576 9.2915C9.14902 9.2915 0.291138 17.7611 0.291138 27.9052C0.291138 30.4473 0.849305 32.862 1.85643 35.0643C4.85355 31.9822 11.8731 29.8224 20.0576 29.8224H20.0515Z" fill="#008ECE"/>
<path id="Vector_13" d="M20.0515 29.8404C28.2117 29.8404 35.2131 31.982 38.2041 35.0398C39.2113 32.8618 39.7634 30.4592 39.7634 27.9414C39.7634 17.8822 30.9358 9.46118 20.0515 9.46118C9.16726 9.46118 0.339722 17.8822 0.339722 27.9475C0.339722 30.4653 0.89789 32.8678 1.89895 35.0398C4.89 31.982 11.8914 29.8404 20.0515 29.8404Z" fill="#0090D0"/>
<path id="Vector_14" d="M20.0454 29.8647C28.1874 29.8647 35.1645 31.9881 38.1495 35.0156C39.1566 32.8557 39.7026 30.4775 39.7026 27.9778C39.7026 18.0097 30.8994 9.6311 20.0454 9.6311C9.1915 9.6311 0.394287 18.0097 0.394287 27.9839C0.394287 30.4775 0.946388 32.8557 1.94745 35.0156C4.92637 31.9881 11.9156 29.8647 20.0515 29.8647H20.0454Z" fill="#0092D1"/>
<path id="Vector_15" d="M20.0455 29.8829C28.1632 29.8829 35.1281 31.9882 38.101 34.9914C39.1021 32.8497 39.6481 30.4896 39.6481 28.0203C39.6481 18.1371 30.8691 9.80103 20.0394 9.80103C9.20974 9.80103 0.442871 18.1371 0.442871 28.0203C0.442871 30.4957 0.994972 32.8497 1.99603 34.9914C4.96888 31.9882 11.9338 29.8829 20.0515 29.8829H20.0455Z" fill="#0094D3"/>
<path id="Vector_16" d="M20.0456 29.9072C28.1391 29.9072 35.0858 31.9943 38.0526 34.9672C39.0537 32.8437 39.5997 30.5079 39.5997 28.0568C39.5997 18.2585 30.8389 9.97095 20.0456 9.97095C9.25238 9.97095 0.491577 18.2646 0.491577 28.0568C0.491577 30.5079 1.04368 32.8437 2.03867 34.9672C5.00546 31.9943 11.9522 29.9072 20.0456 29.9072Z" fill="#0096D4"/>
<path id="Vector_17" d="M20.0394 29.9255C28.1146 29.9255 35.0432 31.9883 38.0039 34.9429C38.9989 32.8437 39.5449 30.5201 39.5449 28.0932C39.5449 18.386 30.8084 10.1409 20.0394 10.1409C9.27039 10.1409 0.539917 18.386 0.539917 28.0932C0.539917 30.5201 1.09202 32.8377 2.08095 34.9429C5.04166 31.9944 11.9702 29.9255 20.0394 29.9255Z" fill="#0098D5"/>
<path id="Vector_18" d="M20.0396 29.9437C28.0905 29.9437 35.0009 31.9883 37.9555 34.9126C38.9505 32.8316 39.4905 30.5322 39.4905 28.1236C39.4905 18.5012 30.7782 10.2986 20.0396 10.2986C9.30089 10.2986 0.588623 18.5134 0.588623 28.1296C0.588623 30.5382 1.13466 32.8316 2.12965 34.9126C5.07823 31.9883 11.9947 29.9437 20.0396 29.9437Z" fill="#009AD6"/>
<path id="Vector_19" d="M20.0394 29.9678C28.0721 29.9678 34.9582 31.9942 37.9068 34.8942C38.9018 32.8314 39.4418 30.5563 39.4418 28.172C39.4418 18.6406 30.7538 10.4805 20.0454 10.4805C9.3371 10.4805 0.636963 18.6346 0.636963 28.172C0.636963 30.5563 1.183 32.8314 2.17192 34.8942C5.11444 32.0003 12.0066 29.9678 20.0394 29.9678Z" fill="#009CD8"/>
<path id="Vector_20" d="M20.0335 29.9921C28.042 29.9921 34.9159 32.0003 37.8524 34.87C38.8413 32.8254 39.3813 30.5684 39.3813 28.2084C39.3813 18.762 30.7175 10.6443 20.0335 10.6443C9.3494 10.6443 0.685669 18.762 0.685669 28.2084C0.685669 30.5745 1.2317 32.8254 2.21456 34.87C5.14494 32.0003 12.025 29.9921 20.0335 29.9921Z" fill="#009ED8"/>
<path id="Vector_21" d="M20.0333 30.0103C28.0236 30.0103 34.8794 32.0003 37.8037 34.8458C38.7926 32.8194 39.3265 30.5867 39.3265 28.2448C39.3265 18.8894 30.687 10.8142 20.0333 10.8142C9.37958 10.8142 0.740112 18.8894 0.740112 28.2448C0.740112 30.5867 1.28008 32.8194 2.26294 34.8458C5.18725 32.0003 12.0491 30.0103 20.0333 30.0103Z" fill="#00A1D9"/>
<path id="Vector_22" d="M20.0274 30.0346C27.9934 30.0346 34.831 32.0064 37.7492 34.8215C38.7321 32.8133 39.2721 30.6049 39.2721 28.2813C39.2721 19.0108 30.6569 10.9841 20.0274 10.9841C9.39795 10.9841 0.788818 19.0108 0.788818 28.2813C0.788818 30.6049 1.32878 32.8133 2.31165 34.8215C5.22989 32.0064 12.0674 30.0346 20.0335 30.0346H20.0274Z" fill="#00A3DA"/>
<path id="Vector_23" d="M20.0272 30.0528C27.969 30.0528 34.7883 32.0064 37.7005 34.7973C38.6834 32.8073 39.2173 30.6171 39.2173 28.3177C39.2173 19.1382 30.6263 11.1479 20.0272 11.1479C9.42809 11.1479 0.837158 19.1382 0.837158 28.3177C0.837158 30.6171 1.37712 32.8073 2.35392 34.7973C5.2661 32.0064 12.0855 30.0528 20.0272 30.0528Z" fill="#00A5DA"/>
<path id="Vector_24" d="M20.0274 30.0711C27.9509 30.0711 34.7521 32.0064 37.6521 34.7669C38.6289 32.7952 39.1628 30.6292 39.1628 28.348C39.1628 19.2535 30.5901 11.3118 20.0213 11.3118C9.45253 11.3118 0.885864 19.2596 0.885864 28.3541C0.885864 30.6292 1.42583 32.8012 2.40262 34.7669C5.30267 32.0004 12.1038 30.0711 20.0274 30.0711Z" fill="#00A6DB"/>
<path id="Vector_25" d="M20.0214 30.0952C27.9267 30.0952 34.7036 32.0063 37.5976 34.7486C38.5744 32.8011 39.1083 30.6473 39.1083 28.3964C39.1083 19.3929 30.5598 11.4937 20.0214 11.4937C9.48291 11.4937 0.934448 19.3869 0.934448 28.3964C0.934448 30.6534 1.47442 32.8011 2.44514 34.7486C5.33912 32.0124 12.1221 30.0952 20.0214 30.0952Z" fill="#00A8DC"/>
<path id="Vector_26" d="M20.0213 30.1134C27.9024 30.1134 34.6671 32.0063 37.549 34.7183C38.5258 32.789 39.0536 30.6594 39.0536 28.4268C39.0536 19.5082 30.5294 11.6575 20.0152 11.6575C9.50104 11.6575 0.98291 19.5143 0.98291 28.4328C0.98291 30.6655 1.51681 32.795 2.48754 34.7244C5.37545 32.0124 12.1402 30.1195 20.0213 30.1195V30.1134Z" fill="#00AADC"/>
<path id="Vector_27" d="M20.015 30.1377C27.8718 30.1377 34.6184 32.0124 37.5002 34.7001C38.471 32.789 39.0049 30.6777 39.0049 28.4693C39.0049 19.6357 30.5049 11.8274 20.0211 11.8274C9.53724 11.8274 1.03125 19.6357 1.03125 28.4693C1.03125 30.6777 1.56515 32.789 2.52981 34.7001C5.40559 32.0124 12.1521 30.1377 20.009 30.1377H20.015Z" fill="#00ACDE"/>
<path id="Vector_28" d="M20.0152 30.162C27.8538 30.162 34.5822 32.0185 37.4519 34.6759C38.4226 32.783 38.9505 30.6959 38.9505 28.5057C38.9505 19.7631 30.4748 11.9973 20.0152 11.9973C9.55565 11.9973 1.08606 19.7631 1.08606 28.5057C1.08606 30.6959 1.61996 32.783 2.58462 34.6759C5.45433 32.0185 12.1827 30.162 20.0213 30.162H20.0152Z" fill="#00AEDF"/>
<path id="Vector_29" d="M20.015 30.1803C27.8294 30.1803 34.5395 32.0186 37.4032 34.6517C38.3678 32.777 38.8957 30.7142 38.8957 28.5482C38.8957 19.8906 30.4443 12.1672 20.015 12.1672C9.58579 12.1672 1.1344 19.8906 1.1344 28.5422C1.1344 30.7081 1.66223 32.777 2.62689 34.6456C5.49053 32.0125 12.2007 30.1742 20.015 30.1742V30.1803Z" fill="#00B0E0"/>
<path id="Vector_30" d="M20.0091 30.2046C27.8053 30.2046 34.4972 32.0247 37.3487 34.6275C38.3134 32.771 38.8412 30.7264 38.8412 28.5847C38.8412 20.018 30.4141 12.3372 20.0152 12.3372C9.61629 12.3372 1.18311 20.012 1.18311 28.5786C1.18311 30.7203 1.71094 32.771 2.66953 34.6214C5.52711 32.0186 12.2191 30.1985 20.0091 30.1985V30.2046Z" fill="#11B1E1"/>
<path id="Vector_31" d="M20.0092 30.2228C27.7811 30.2228 34.4548 32.0186 37.3002 34.5971C38.2588 32.7588 38.7867 30.7385 38.7867 28.615C38.7867 20.1333 30.3838 12.501 20.0092 12.501C9.63454 12.501 1.23169 20.1394 1.23169 28.6211C1.23169 30.7446 1.75952 32.771 2.71811 34.6032C5.56356 32.0247 12.2373 30.2289 20.0092 30.2289V30.2228Z" fill="#20B4E2"/>
<path id="Vector_32" d="M20.003 30.2408C27.7567 30.2408 34.4123 32.0245 37.2456 34.5727C38.2042 32.7586 38.7259 30.7504 38.7259 28.6512C38.7259 20.2605 30.3473 12.6707 20.003 12.6707C9.65874 12.6707 1.28015 20.2666 1.28015 28.6573C1.28015 30.7565 1.80798 32.7647 2.76051 34.5727C5.59988 32.0245 12.2554 30.2408 20.003 30.2408Z" fill="#27B5E3"/>
<path id="Vector_33" d="M20.0031 30.2652C27.7325 30.2652 34.3698 32.0246 37.1971 34.5546C38.1557 32.7587 38.6714 30.7748 38.6714 28.6999C38.6714 20.3941 30.3171 12.8467 19.997 12.8467C9.67698 12.8467 1.32874 20.388 1.32874 28.6938C1.32874 30.7687 1.85657 32.7587 2.80303 34.5485C5.63633 32.0246 12.2737 30.2591 19.997 30.2591L20.0031 30.2652Z" fill="#2FB7E5"/>
<path id="Vector_34" d="M19.9969 30.2834C27.7021 30.2834 34.3273 32.0246 37.1424 34.5242C38.0949 32.7466 38.6167 30.7869 38.6167 28.7302C38.6167 20.5154 30.2806 13.0105 19.9969 13.0105C9.71331 13.0105 1.3772 20.5154 1.3772 28.7302C1.3772 30.7869 1.89896 32.7526 2.84542 34.5242C5.67266 32.0246 12.2857 30.2834 19.9969 30.2834Z" fill="#3AB9E7"/>
<path id="Vector_35" d="M19.9971 30.3319C27.6962 30.3319 34.3032 32.067 37.1243 34.5485C38.0769 32.783 38.5926 30.8354 38.5926 28.7908C38.5926 20.6307 30.2686 13.1682 19.9971 13.1682C9.72559 13.1682 1.40161 20.6246 1.40161 28.7908C1.40161 30.8354 1.92338 32.789 2.86984 34.5485C5.69101 32.067 12.298 30.3379 19.9971 30.3319Z" fill="#4ABCE8"/>
<path id="Vector_36" d="M19.997 30.3806C27.684 30.3806 34.2849 32.1036 37.1 34.5668C38.0525 32.8134 38.5682 30.878 38.5682 28.8456C38.5682 20.734 30.2564 13.314 19.997 13.314C9.73766 13.314 1.43188 20.74 1.43188 28.8517C1.43188 30.878 1.95365 32.8195 2.90011 34.5729C5.71522 32.1036 12.3162 30.3866 20.0031 30.3866L19.997 30.3806Z" fill="#56BFEA"/>
<path id="Vector_37" d="M19.9969 30.4291C27.6717 30.4291 34.2666 32.14 37.0756 34.585C38.0221 32.8437 38.5439 30.9205 38.5439 28.9002C38.5439 20.8431 30.2442 13.4717 19.9969 13.4717C9.7497 13.4717 1.45605 20.8553 1.45605 28.9062C1.45605 30.9266 1.97782 32.8498 2.91821 34.591C5.73332 32.14 12.3221 30.4351 19.9969 30.4291Z" fill="#60C2EC"/>
<path id="Vector_38" d="M19.997 30.4776C27.6657 30.4776 34.2484 32.1764 37.0514 34.6093C37.9979 32.8741 38.5196 30.969 38.5196 28.9669C38.5196 20.9645 30.2321 13.6355 19.997 13.6355C9.76186 13.6355 1.48035 20.9645 1.48035 28.9669C1.48035 30.969 2.00211 32.8802 2.9425 34.6093C5.75154 32.1764 12.3343 30.4776 19.997 30.4776Z" fill="#6AC4EE"/>
<path id="Vector_39" d="M19.9969 30.5261C27.6535 30.5261 34.2241 32.2127 37.027 34.6274C37.9735 32.9044 38.4892 31.0114 38.4892 29.0214C38.4892 21.0736 30.2138 13.7871 19.9969 13.7871C9.77996 13.7871 1.50452 21.0797 1.50452 29.0275C1.50452 31.0175 2.02628 32.9165 2.96667 34.6335C5.77571 32.2188 12.3463 30.5321 20.0029 30.5321L19.9969 30.5261Z" fill="#73C7EF"/>
<path id="Vector_40" d="M20.0031 30.5806C27.6475 30.5806 34.2121 32.2551 37.009 34.6516C37.9494 32.9468 38.4711 31.0599 38.4711 29.0821C38.4711 21.1888 30.2018 13.9387 20.0031 13.9387C9.80437 13.9387 1.52893 21.1888 1.52893 29.0821C1.52893 31.0599 2.0507 32.9468 2.98502 34.6516C5.78799 32.2551 12.3525 30.5745 19.997 30.5745L20.0031 30.5806Z" fill="#7BCAF2"/>
<path id="Vector_41" d="M20.003 30.6291C27.6353 30.6291 34.1938 32.2915 36.9846 34.6758C37.925 32.9771 38.4407 31.1084 38.4407 29.1427C38.4407 21.298 30.1835 14.0964 19.9969 14.0964C9.81034 14.0964 1.5531 21.3041 1.5531 29.1427C1.5531 31.1084 2.07487 32.9831 3.00919 34.6758C5.8061 32.2915 12.3646 30.6291 19.9969 30.6291H20.003Z" fill="#83CCF1"/>
<path id="Vector_42" d="M20.003 30.6777C27.6232 30.6777 34.1756 32.3279 36.9664 34.7001C37.9068 33.0135 38.4225 31.157 38.4225 29.2094C38.4225 21.4194 30.1774 14.2603 20.003 14.2603C9.82857 14.2603 1.57739 21.4133 1.57739 29.2034C1.57739 31.157 2.09309 33.0135 3.03348 34.7001C5.83039 32.334 12.3767 30.6777 19.9969 30.6777H20.003Z" fill="#8ACEF2"/>
<path id="Vector_43" d="M20.0032 30.7264C27.6173 30.7264 34.1515 32.3706 36.9424 34.7185C37.8827 33.044 38.3984 31.1996 38.3984 29.2642C38.3984 21.5287 30.1655 14.4121 20.0032 14.4121C9.84089 14.4121 1.60791 21.5287 1.60791 29.2582C1.60791 31.1935 2.12361 33.044 3.05793 34.7124C5.84877 32.3584 12.389 30.7203 20.0032 30.7203V30.7264Z" fill="#90D1F1"/>
<path id="Vector_44" d="M19.997 30.7688C27.599 30.7688 34.1272 32.4008 36.9119 34.7366C37.8462 33.0743 38.3619 31.242 38.3619 29.3188C38.3619 21.6379 30.1411 14.5637 19.997 14.5637C9.85292 14.5637 1.63208 21.6379 1.63208 29.3188C1.63208 31.2481 2.14778 33.0803 3.0821 34.7366C5.87294 32.4008 12.4011 30.7688 20.0031 30.7688H19.997Z" fill="#97D3F1"/>
<path id="Vector_45" d="M19.9969 30.8173C27.5928 30.8173 34.1088 32.4372 36.8876 34.7548C37.8219 33.1045 38.3376 31.2844 38.3376 29.3733C38.3376 21.747 30.1228 14.7153 19.9969 14.7153C9.87102 14.7153 1.65625 21.7531 1.65625 29.3794C1.65625 31.2905 2.17195 33.1106 3.10627 34.7608C5.89104 32.4432 12.4131 30.8233 20.003 30.8233L19.9969 30.8173Z" fill="#9CD5F2"/>
<path id="Vector_46" d="M20.003 30.8658C27.5868 30.8658 34.0967 32.4735 36.8694 34.779C37.8037 33.1409 38.3194 31.3329 38.3194 29.4339C38.3194 21.8562 30.1168 14.873 20.003 14.873C9.88925 14.873 1.68054 21.8623 1.68054 29.4339C1.68054 31.3329 2.19624 33.1409 3.1245 34.779C5.9032 32.4735 12.4192 30.8658 19.9969 30.8658H20.003Z" fill="#A1D7F1"/>
<path id="Vector_47" d="M20.0032 30.9204C27.5748 30.9204 34.0726 32.516 36.8513 34.8033C37.7856 33.1773 38.2953 31.3815 38.2953 29.5007C38.2953 21.9776 30.1048 15.0369 20.0032 15.0369C9.90153 15.0369 1.70496 21.9776 1.70496 29.4946C1.70496 31.3815 2.22065 33.1773 3.14891 34.8033C5.92762 32.516 12.4315 30.9204 20.0032 30.9204Z" fill="#A8D9F1"/>
<path id="Vector_48" d="M20.0031 30.9689C27.5626 30.9689 34.0543 32.5523 36.827 34.8214C37.7552 33.2076 38.2709 31.4239 38.2709 29.5552C38.2709 22.0867 30.0925 15.1885 20.0031 15.1885C9.91357 15.1885 1.72913 22.0867 1.72913 29.5552C1.72913 31.4299 2.24482 33.2076 3.17308 34.8214C5.94572 32.5523 12.4435 30.9689 20.0031 30.9689Z" fill="#ADDBF2"/>
<path id="Vector_49" d="M20.003 31.0174C27.5504 31.0174 34.036 32.5948 36.8026 34.8457C37.7309 33.244 38.2465 31.4724 38.2465 29.6159C38.2465 22.2019 30.0803 15.3462 20.003 15.3462C9.9256 15.3462 1.7533 22.2019 1.7533 29.6098C1.7533 31.4724 2.26899 33.2379 3.19118 34.8396C5.96382 32.5827 12.4495 31.0113 19.9969 31.0113L20.003 31.0174Z" fill="#B2DCF1"/>
<path id="Vector_50" d="M20.003 31.0661C27.5443 31.0661 34.0179 32.6314 36.7784 34.864C37.7066 33.2745 38.2223 31.515 38.2223 29.6707C38.2223 22.3113 30.0682 15.498 20.003 15.498C9.93779 15.498 1.78369 22.3113 1.78369 29.6707C1.78369 31.515 2.29939 33.2745 3.22158 34.864C5.98815 32.6253 12.4617 31.0661 20.003 31.0661Z" fill="#BADFF1"/>
<path id="Vector_51" d="M20.0032 31.1146C27.5324 31.1146 33.9938 32.6677 36.7543 34.8883C37.6764 33.3109 38.1922 31.5635 38.1922 29.7374C38.1922 22.4266 30.0502 15.6558 20.0032 15.6558C9.95614 15.6558 1.80811 22.4266 1.80811 29.7313C1.80811 31.5635 2.31774 33.3109 3.23993 34.8883C6.00043 32.6677 12.4679 31.1206 20.0032 31.1146Z" fill="#BFE0F1"/>
<path id="Vector_52" d="M20.0031 31.1631C27.5201 31.1631 33.9755 32.7041 36.7299 34.9064C37.6521 33.3411 38.1678 31.6059 38.1678 29.7919C38.1678 22.5357 30.0379 15.8074 20.0031 15.8074C9.96818 15.8074 1.83228 22.5357 1.83228 29.7919C1.83228 31.612 2.34191 33.3411 3.2641 34.9064C6.0246 32.7041 12.4799 31.1631 20.0031 31.1631Z" fill="#C4E2F1"/>
<path id="Vector_53" d="M20.003 31.2055C27.514 31.2055 33.9572 32.7344 36.7055 34.9246C37.6277 33.3714 38.1434 31.6484 38.1434 29.8464C38.1434 22.6449 30.0197 15.959 20.003 15.959C9.98628 15.959 1.85645 22.6509 1.85645 29.8464C1.85645 31.6544 2.36608 33.3714 3.28827 34.9246C6.0427 32.7344 12.498 31.2115 20.003 31.2055Z" fill="#CAE4F2"/>
<path id="Vector_54" d="M20.003 31.2542C27.5019 31.2542 33.939 32.7709 36.6874 34.9429C37.6035 33.3958 38.1192 31.691 38.1192 29.9012C38.1192 22.7542 30.0075 16.1108 20.003 16.1108C9.99844 16.1108 1.88074 22.7603 1.88074 29.9073C1.88074 31.7031 2.39037 33.408 3.30649 34.949C6.06093 32.777 12.4981 31.2602 19.9969 31.2602L20.003 31.2542Z" fill="#CEE5F2"/>
<path id="Vector_55" d="M20.0031 31.3086C27.4899 31.3086 33.9209 32.8132 36.6632 34.9731C37.5793 33.4442 38.0951 31.7454 38.0951 29.9738C38.0951 22.8815 29.9956 16.2805 20.0031 16.2805C10.0107 16.2805 1.90515 22.8754 1.90515 29.9678C1.90515 31.7515 2.41478 33.4381 3.33091 34.9731C6.07928 32.8193 12.5103 31.3146 19.9971 31.3086H20.0031Z" fill="#D3E7F3"/>
<path id="Vector_56" d="M20.003 31.3573C27.4837 31.3573 33.8966 32.8559 36.6389 34.9914C37.555 33.4686 38.0646 31.7881 38.0646 30.0286C38.0646 22.9848 29.9773 16.4324 20.003 16.4324C10.0288 16.4324 1.92932 22.9848 1.92932 30.0225C1.92932 31.7941 2.43895 33.4686 3.35508 34.9914C6.09738 32.8559 12.5224 31.3573 20.003 31.3573Z" fill="#D9EAF3"/>
<path id="Vector_57" d="M20.0029 31.4058C27.4715 31.4058 33.8783 32.8922 36.6145 35.0157C37.5306 33.505 38.0403 31.8366 38.0403 30.0893C38.0403 23.1 29.965 16.5901 20.0029 16.5901C10.0409 16.5901 1.95349 23.1 1.95349 30.0832C1.95349 31.8366 2.46312 33.505 3.37318 35.0096C6.11548 32.8862 12.5283 31.4058 19.9969 31.3997L20.0029 31.4058Z" fill="#DDECF5"/>
<path id="Vector_58" d="M20.003 31.4543C27.4594 31.4543 33.8601 32.9286 36.5903 35.0338C37.5003 33.5353 38.016 31.885 38.016 30.1438C38.016 23.2092 29.9529 16.7417 20.003 16.7417C10.0531 16.7417 1.98389 23.2092 1.98389 30.1438C1.98389 31.885 2.49352 33.5413 3.40357 35.0338C6.13981 32.9286 12.5466 31.4543 20.003 31.4543Z" fill="#E2EEF6"/>
<path id="Vector_59" d="M20.0031 31.5028C27.4474 31.5028 33.8421 32.9649 36.5662 35.0581C37.4762 33.5716 37.9859 31.9275 37.9859 30.2044C37.9859 23.3244 29.9288 16.8994 19.9971 16.8994C10.0653 16.8994 2.0083 23.3244 2.0083 30.1984C2.0083 31.9275 2.51793 33.5656 3.42799 35.052C6.16422 32.9589 12.5589 31.5028 20.0031 31.4967V31.5028Z" fill="#E6F0F7"/>
<path id="Vector_60" d="M20.003 31.5513C27.4412 31.5513 33.8177 33.0074 36.5418 35.0762C37.4519 33.6019 37.9615 31.976 37.9615 30.2651C37.9615 23.4397 29.9166 17.0571 19.997 17.0571C10.0774 17.0571 2.03247 23.4336 2.03247 30.259C2.03247 31.976 2.53604 33.6019 3.44609 35.0762C6.17626 33.0013 12.5649 31.5513 20.003 31.5513Z" fill="#EAF3F8"/>
<path id="Vector_61" d="M20.0029 31.6C27.429 31.6 33.7994 33.0379 36.5235 35.0946C37.4336 33.6325 37.9432 32.0186 37.9432 30.3199C37.9432 23.543 29.9104 17.209 20.009 17.209C10.1076 17.209 2.05664 23.549 2.05664 30.3199C2.05664 32.0247 2.5602 33.6385 3.47026 35.1007C6.19436 33.044 12.5769 31.6061 20.0029 31.6Z" fill="#F0F5F9"/>
<path id="Vector_62" d="M20.0031 31.6485C27.417 31.6485 33.7813 33.0803 36.4994 35.1189C37.4034 33.6688 37.913 32.0671 37.913 30.3805C37.913 23.6582 29.8924 17.3667 20.0031 17.3667C10.1138 17.3667 2.08105 23.6582 2.08105 30.3744C2.08105 32.0671 2.58462 33.6628 3.48861 35.1128C6.21271 33.0743 12.5831 31.6485 19.997 31.6424L20.0031 31.6485Z" fill="#F4F8FB"/>
<path id="Vector_63" d="M20.0031 31.697C27.4049 31.697 33.7632 33.1167 36.4751 35.137C37.3791 33.6991 37.8888 32.1095 37.8888 30.435C37.8888 23.7674 29.8803 17.5183 20.0031 17.5183C10.126 17.5183 2.10535 23.7734 2.10535 30.435C2.10535 32.1156 2.60891 33.6991 3.5129 35.137C6.23093 33.1106 12.5953 31.697 19.997 31.6909L20.0031 31.697Z" fill="#F7FAFC"/>
<path id="Vector_64" d="M20.003 31.7455C27.3987 31.7455 33.7388 33.1531 36.4508 35.1613C37.3548 33.7355 37.8644 32.1581 37.8644 30.5018C37.8644 23.8887 29.862 17.6821 20.003 17.6821C10.1441 17.6821 2.12952 23.8887 2.12952 30.4957C2.12952 32.1581 2.63308 33.7355 3.53707 35.1613C6.2551 33.1531 12.6073 31.7516 20.003 31.7455Z" fill="#FCFDFE"/>
<path id="Vector_65" d="M20.0032 31.794C27.3868 31.794 33.7207 33.1894 36.4327 35.1794C37.3306 33.7658 37.8403 32.2005 37.8403 30.5563C37.8403 23.9918 29.85 17.8276 20.0032 17.8276C10.1564 17.8276 2.15393 23.9978 2.15393 30.5502C2.15393 32.2005 2.6575 33.7658 3.55542 35.1794C6.26738 33.1894 12.6135 31.794 19.9971 31.794H20.0032Z" fill="white"/>
</g>
</g>
</g>
<path id="Vector_66" d="M19.997 25.2415C13.5356 25.2415 7.5414 26.3335 2.5907 28.19C5.55748 34.8516 12.2312 39.4929 20.0031 39.4929C27.775 39.4929 34.4427 34.8516 37.4155 28.19C32.4648 26.3396 26.4645 25.2415 19.997 25.2415Z" fill="#007CBD"/>
</g>
</g>
</svg>
