<svg width="25" height="24" viewBox="0 0 25 24" fill="none" xmlns="http://www.w3.org/2000/svg">
<g id="icon-coin-mono">
<path id="Vector" fill-rule="evenodd" clip-rule="evenodd" d="M18.75 13.247H16.739L16.019 15.866C15.9562 16.1002 15.8174 16.307 15.6246 16.4539C15.4317 16.6008 15.1955 16.6796 14.953 16.678H14.952C14.448 16.678 14.02 16.351 13.887 15.866L12.75 11.738L11.614 15.866C11.5512 16.1002 11.4124 16.307 11.2196 16.4539C11.0267 16.6008 10.7905 16.6796 10.548 16.678C10.044 16.678 9.616 16.352 9.482 15.867L8.761 13.247H6.75C6.51131 13.247 6.28239 13.1522 6.1136 12.9834C5.94482 12.8146 5.85 12.5857 5.85 12.347C5.85 12.1083 5.94482 11.8794 6.1136 11.7106C6.28239 11.5418 6.51131 11.447 6.75 11.447H8.266L7.635 9.155C7.6001 9.03999 7.58859 8.91916 7.60114 8.79964C7.6137 8.68011 7.65006 8.56431 7.7081 8.45907C7.76613 8.35382 7.84466 8.26127 7.93904 8.18686C8.03342 8.11246 8.14175 8.05771 8.25764 8.02585C8.37352 7.99399 8.49461 7.98566 8.61377 8.00136C8.73292 8.01706 8.84772 8.05646 8.9514 8.11725C9.05508 8.17803 9.14554 8.25897 9.21743 8.35527C9.28933 8.45158 9.3412 8.56132 9.37 8.678L10.548 12.956L11.684 8.829C11.7465 8.59452 11.8851 8.38745 12.078 8.24029C12.271 8.09314 12.5073 8.01424 12.75 8.016C13.254 8.016 13.683 8.343 13.816 8.829L14.953 12.956L16.13 8.678C16.1613 8.56401 16.2148 8.45731 16.2873 8.36399C16.3599 8.27066 16.4501 8.19254 16.5529 8.13409C16.6556 8.07563 16.7689 8.03799 16.8862 8.0233C17.0035 8.00862 17.1225 8.01718 17.2365 8.0485C17.3505 8.07982 17.4572 8.13329 17.5505 8.20584C17.6438 8.2784 17.722 8.36863 17.7804 8.47138C17.8389 8.57412 17.8765 8.68738 17.8912 8.80468C17.9059 8.92197 17.8973 9.04101 17.866 9.155L17.234 11.447H18.75C18.9887 11.447 19.2176 11.5418 19.3864 11.7106C19.5552 11.8794 19.65 12.1083 19.65 12.347C19.65 12.5857 19.5552 12.8146 19.3864 12.9834C19.2176 13.1522 18.9887 13.247 18.75 13.247ZM12.75 1C6.675 1 1.75 5.925 1.75 12C1.75 18.076 6.675 23 12.75 23C18.825 23 23.75 18.076 23.75 12C23.75 5.925 18.825 1 12.75 1Z" fill="#B0B8C1"/>
</g>
</svg>
