<svg width="14" height="8" viewBox="0 0 14 8" fill="none" xmlns="http://www.w3.org/2000/svg">
<g id="Vector">
<path id="Vector_2" d="M6.22792 0.334792L0.309834 6.22087C0.211658 6.31755 0.133734 6.43257 0.0805564 6.55929C0.0273787 6.68602 0 6.82195 0 6.95923C0 7.09652 0.0273787 7.23244 0.0805564 7.35917C0.133734 7.4859 0.211658 7.60092 0.309834 7.69759C0.506087 7.89128 0.771565 8 1.04829 8C1.32501 8 1.59049 7.89128 1.78674 7.69759L7.02399 2.54987L12.2089 7.69759C12.4051 7.89128 12.6706 8 12.9473 8C13.224 8 13.4895 7.89128 13.6858 7.69759C13.7847 7.60128 13.8635 7.48642 13.9174 7.35968C13.9714 7.23293 13.9994 7.09682 14 6.95923C13.9994 6.82164 13.9714 6.68553 13.9174 6.55879C13.8635 6.43204 13.7847 6.31719 13.6858 6.22087L7.76768 0.334792C7.66959 0.229232 7.55055 0.144988 7.41804 0.0873675C7.28554 0.029747 7.14245 0 6.9978 0C6.85315 0 6.71006 0.029747 6.57756 0.0873675C6.44506 0.144988 6.32601 0.229232 6.22792 0.334792Z" fill="#6B7684"/>
</g>
</svg>
