<svg width="14" height="8" viewBox="0 0 14 8" fill="none" xmlns="http://www.w3.org/2000/svg">
<g id="Vector">
<path id="Vector_2" d="M6.22792 7.66521L0.309834 1.77913C0.211658 1.68245 0.133734 1.56743 0.0805564 1.44071C0.0273787 1.31398 0 1.17805 0 1.04077C0 0.903483 0.0273787 0.767556 0.0805564 0.64083C0.133734 0.514103 0.211658 0.399084 0.309834 0.302408C0.506087 0.108717 0.771565 0 1.04829 0C1.32501 0 1.59049 0.108717 1.78674 0.302408L7.02399 5.45013L12.2089 0.302408C12.4051 0.108717 12.6706 0 12.9473 0C13.224 0 13.4895 0.108717 13.6858 0.302408C13.7847 0.398722 13.8635 0.513578 13.9174 0.640322C13.9714 0.767065 13.9994 0.903176 14 1.04077C13.9994 1.17836 13.9714 1.31447 13.9174 1.44121C13.8635 1.56796 13.7847 1.68281 13.6858 1.77913L7.76768 7.66521C7.66959 7.77077 7.55055 7.85501 7.41804 7.91263C7.28554 7.97025 7.14245 8 6.9978 8C6.85315 8 6.71006 7.97025 6.57756 7.91263C6.44506 7.85501 6.32601 7.77077 6.22792 7.66521Z" fill="white"/>
</g>
</svg>
