<svg width="12" height="8" viewBox="0 0 12 8" fill="none" xmlns="http://www.w3.org/2000/svg">
<g id="Vector">
<path id="Vector_2" d="M5.35668 7.05433L0.424943 2.14926C0.34313 2.0687 0.278193 1.97285 0.233878 1.86724C0.189564 1.76164 0.166748 1.64837 0.166748 1.53396C0.166748 1.41956 0.189564 1.30629 0.233878 1.20068C0.278193 1.09508 0.34313 0.999226 0.424943 0.918663C0.588487 0.757254 0.809718 0.666656 1.04032 0.666656C1.27092 0.666656 1.49215 0.757254 1.6557 0.918663L6.02007 5.20843L10.3408 0.918663C10.5043 0.757254 10.7256 0.666656 10.9562 0.666656C11.1868 0.666656 11.408 0.757254 11.5716 0.918663C11.654 0.998925 11.7196 1.09464 11.7646 1.20026C11.8095 1.30588 11.8329 1.4193 11.8334 1.53396C11.8329 1.64862 11.8095 1.76205 11.7646 1.86767C11.7196 1.97329 11.654 2.069 11.5716 2.14926L6.63981 7.05433C6.55807 7.1423 6.45887 7.2125 6.34845 7.26052C6.23803 7.30853 6.11879 7.33332 5.99825 7.33332C5.8777 7.33332 5.75846 7.30853 5.64805 7.26052C5.53763 7.2125 5.43842 7.1423 5.35668 7.05433Z" fill="#6B7684"/>
</g>
</svg>
