<svg width="24" height="24" viewBox="0 0 24 24" fill="none" xmlns="http://www.w3.org/2000/svg">
<g id="icon-home-mono">
<path id="Vector" fill-rule="evenodd" clip-rule="evenodd" d="M21.069 8.204L12.622 1.487C12.4453 1.34616 12.226 1.26946 12 1.26946C11.7741 1.26946 11.5548 1.34616 11.378 1.487L2.93005 8.204C2.6946 8.39128 2.50443 8.62926 2.37371 8.90022C2.24299 9.17119 2.17508 9.46815 2.17505 9.769V19.187C2.17505 19.8235 2.42791 20.434 2.87799 20.8841C3.32808 21.3341 3.93853 21.587 4.57505 21.587H10V16.835C10 16.5698 10.1054 16.3154 10.2929 16.1279C10.4805 15.9404 10.7348 15.835 11 15.835H13C13.2653 15.835 13.5196 15.9404 13.7072 16.1279C13.8947 16.3154 14 16.5698 14 16.835V21.587H19.424C20.0606 21.587 20.671 21.3341 21.1211 20.8841C21.5712 20.434 21.824 19.8235 21.824 19.187V9.77C21.824 9.46915 21.7561 9.17219 21.6254 8.90122C21.4947 8.63026 21.3045 8.39228 21.069 8.205" fill="black"/>
</g>
</svg>
