<svg width="17" height="18" viewBox="0 0 17 18" fill="none" xmlns="http://www.w3.org/2000/svg">
<g id="Vector">
<path id="Vector_2" d="M11.4228 9.94107C11.3437 9.94107 11.3437 9.86201 11.2647 9.86201C12.4506 8.99231 13.0831 7.64824 13.0831 6.14605C13.0831 5.98792 13.0831 5.8298 13.0831 5.67167V5.59261L13.3203 3.6951C13.4784 2.43009 12.6087 1.32321 11.4228 1.08602L10.7112 0.927892C9.12997 0.690703 7.54871 0.690703 5.96745 0.927892L5.33495 1.08602C4.06994 1.32321 3.20025 2.43009 3.35837 3.6951L3.59556 5.59261V5.67167C3.59556 5.8298 3.59556 5.98792 3.59556 6.14605C3.59556 7.56918 4.22807 8.99231 5.41401 9.86201C5.33495 9.86201 5.33495 9.94107 5.25589 9.94107C2.64681 11.048 0.82836 13.4989 0.512108 16.3452C0.433045 16.7405 0.749297 17.1358 1.22367 17.2149C1.69805 17.2939 15.0597 17.2149 15.455 17.2149H15.5341C15.9294 17.1358 16.2456 16.7405 16.2456 16.3452C15.8503 13.4989 14.0319 11.048 11.4228 9.94107ZM8.33934 12.392L6.99527 11.048C7.86496 10.8898 8.73466 10.8898 9.60435 11.048L8.33934 12.392ZM8.33934 9.30857C6.59996 9.30857 5.25589 7.9645 5.17682 6.22511H11.5019C11.4228 7.9645 10.0787 9.30857 8.33934 9.30857Z" fill="#007BFF"/>
</g>
</svg>
