<svg width="18" height="20" viewBox="0 0 18 20" fill="none" xmlns="http://www.w3.org/2000/svg">
<g id="Vector">
<path id="Vector_2" d="M18 9.38V7C18 6.2 17.68 5.44 17.12 4.88C16.56 4.32 15.79 4 15 4H3C2.2 4 1.44 4.32 0.88 4.88C0.32 5.44 0 6.2 0 7V9.38V17C0 17.8 0.32 18.56 0.88 19.12C1.44 19.68 2.21 20 3 20H15C15.8 20 16.56 19.68 17.12 19.12C17.68 18.56 18 17.79 18 17V9.38Z" fill="#8B95A1"/>
<path id="Vector_3" d="M12.5398 0.200076L8.99979 2.23918L5.45979 0.200076C3.71979 -0.581262 3.52979 1.20057 3.52979 1.20057V4.00195H14.4698V1.20057C14.4698 1.20057 14.2898 -0.581262 12.5398 0.200076Z" fill="#B0B8C1"/>
<path id="Vector_4" d="M10.5 4H7.5V20H10.5V4Z" fill="#B0B8C1"/>
</g>
</svg>
