<svg width="16" height="18" viewBox="0 0 16 18" fill="none" xmlns="http://www.w3.org/2000/svg">
<g id="Vector">
<path id="Vector_2" d="M11.3333 15.75H4.66667C4.00363 15.75 3.36774 15.4866 2.8989 15.0178C2.43006 14.5489 2.16667 13.913 2.16667 13.25V4.91667C2.16667 4.69565 2.07887 4.48369 1.92259 4.32741C1.76631 4.17113 1.55435 4.08333 1.33333 4.08333C1.11232 4.08333 0.900358 4.17113 0.744078 4.32741C0.587797 4.48369 0.5 4.69565 0.5 4.91667V13.25C0.5 14.3551 0.938987 15.4149 1.72039 16.1963C2.50179 16.9777 3.5616 17.4167 4.66667 17.4167H11.3333C11.5543 17.4167 11.7663 17.3289 11.9226 17.1726C12.0789 17.0163 12.1667 16.8043 12.1667 16.5833C12.1667 16.3623 12.0789 16.1504 11.9226 15.9941C11.7663 15.8378 11.5543 15.75 11.3333 15.75ZM15.5 6.53333C15.4913 6.45678 15.4746 6.38136 15.45 6.30833V6.23333C15.4099 6.14765 15.3565 6.06889 15.2917 6L10.2917 1C10.2228 0.93518 10.144 0.881734 10.0583 0.841667H9.98333L9.71667 0.75H6.33333C5.67029 0.75 5.03441 1.01339 4.56557 1.48223C4.09673 1.95107 3.83333 2.58696 3.83333 3.25V11.5833C3.83333 12.2464 4.09673 12.8823 4.56557 13.3511C5.03441 13.8199 5.67029 14.0833 6.33333 14.0833H13C13.663 14.0833 14.2989 13.8199 14.7678 13.3511C15.2366 12.8823 15.5 12.2464 15.5 11.5833V6.58333C15.5 6.58333 15.5 6.58333 15.5 6.53333ZM10.5 3.59167L12.6583 5.75H11.3333C11.1123 5.75 10.9004 5.6622 10.7441 5.50592C10.5878 5.34964 10.5 5.13768 10.5 4.91667V3.59167ZM13.8333 11.5833C13.8333 11.8043 13.7455 12.0163 13.5893 12.1726C13.433 12.3289 13.221 12.4167 13 12.4167H6.33333C6.11232 12.4167 5.90036 12.3289 5.74408 12.1726C5.5878 12.0163 5.5 11.8043 5.5 11.5833V3.25C5.5 3.02899 5.5878 2.81702 5.74408 2.66074C5.90036 2.50446 6.11232 2.41667 6.33333 2.41667H8.83333V4.91667C8.83333 5.57971 9.09672 6.21559 9.56557 6.68443C10.0344 7.15327 10.6703 7.41667 11.3333 7.41667H13.8333V11.5833Z" fill="#6B7684"/>
</g>
</svg>
