<svg width="18" height="20" viewBox="0 0 18 20" fill="none" xmlns="http://www.w3.org/2000/svg">
<g id="Vector">
<path id="Vector_2" d="M7 4C7 3.47 7.21 2.96 7.59 2.59C7.97 2.21 8.47 2 9 2C9.53 2 10.04 2.21 10.41 2.59C10.79 2.97 11 3.47 11 4V5H13V4C13 2.94 12.58 1.92 11.83 1.17C11.08 0.42 10.06 0 9 0C7.94 0 6.92 0.42 6.17 1.17C5.42 1.92 5 2.94 5 4V5H7V4Z" fill="#8B95A1"/>
<path id="Vector_3" d="M16 5H2C1.73 5 1.48 5.11 1.29 5.29C1.1 5.48 1 5.73 1 6L0 17C0 17.8 0.32 18.56 0.88 19.12C1.44 19.68 2.21 20 3 20H15C15.8 20 16.56 19.68 17.12 19.12C17.68 18.56 18 17.79 18 17L17 6C17 5.73 16.89 5.48 16.71 5.29C16.52 5.1 16.27 5 16 5Z" fill="#B0B8C1"/>
</g>
</svg>
