<svg width="24" height="25" viewBox="0 0 24 25" fill="none" xmlns="http://www.w3.org/2000/svg">
<g clip-path="url(#clip0_38_1803)">
<path d="M18.0013 14.5129C17.4107 14.5168 16.8282 14.6513 16.2959 14.9068C15.7635 15.1623 15.2944 15.5324 14.9223 15.9905L9.82395 13.6443C10.0637 12.9113 10.0637 12.121 9.82395 11.388L14.9223 9.04176C15.5237 9.76656 16.3622 10.2559 17.2897 10.4234C18.2172 10.5909 19.1741 10.4258 19.9916 9.95718C20.8091 9.48862 21.4345 8.74672 21.7576 7.86241C22.0807 6.97811 22.0806 6.00825 21.7574 5.124C21.4341 4.23976 20.8085 3.49797 19.991 3.02955C19.1734 2.56114 18.2164 2.3962 17.289 2.56386C16.3615 2.73152 15.5231 3.22099 14.9218 3.9459C14.3205 4.6708 13.995 5.58453 14.0026 6.52583C14.0056 6.76368 14.029 7.00083 14.0726 7.23468L8.79429 9.66076C8.23155 9.11123 7.51895 8.73977 6.74576 8.59292C5.97257 8.44606 5.17319 8.53036 4.44775 8.83523C3.72232 9.1401 3.1031 9.65199 2.66768 10.3068C2.23226 10.9616 2 11.7301 2 12.5161C2 13.3022 2.23226 14.0707 2.66768 14.7255C3.1031 15.3803 3.72232 15.8922 4.44775 16.1971C5.17319 16.5019 5.97257 16.5862 6.74576 16.4394C7.51895 16.2925 8.23155 15.9211 8.79429 15.3715L14.0726 17.7976C14.029 18.0315 14.0056 18.2686 14.0026 18.5065C14.0026 19.2963 14.2371 20.0684 14.6765 20.7251C15.1159 21.3819 15.7404 21.8937 16.4711 22.196C17.2017 22.4983 18.0057 22.5774 18.7814 22.4233C19.5571 22.2692 20.2696 21.8888 20.8288 21.3303C21.388 20.7718 21.7689 20.0602 21.9232 19.2856C22.0775 18.5109 21.9983 17.7079 21.6956 16.9782C21.393 16.2485 20.8804 15.6248 20.2229 15.1859C19.5653 14.7471 18.7922 14.5129 18.0013 14.5129ZM18.0013 4.52906C18.3967 4.52906 18.7833 4.64617 19.1121 4.86558C19.4409 5.08498 19.6971 5.39684 19.8485 5.7617C19.9998 6.12656 20.0394 6.52805 19.9622 6.91538C19.8851 7.30272 19.6947 7.65851 19.4151 7.93776C19.1354 8.21701 18.7792 8.40719 18.3914 8.48423C18.0035 8.56128 17.6015 8.52174 17.2362 8.37061C16.8708 8.21948 16.5586 7.96354 16.3389 7.63518C16.1192 7.30681 16.0019 6.92075 16.0019 6.52583C16.0019 5.99625 16.2126 5.48837 16.5875 5.1139C16.9625 4.73943 17.471 4.52906 18.0013 4.52906ZM6.0052 14.5129C5.60976 14.5129 5.22321 14.3958 4.89442 14.1764C4.56563 13.957 4.30936 13.6451 4.15804 13.2803C4.00671 12.9154 3.96712 12.5139 4.04426 12.1266C4.12141 11.7393 4.31183 11.3835 4.59144 11.1042C4.87106 10.825 5.22731 10.6348 5.61514 10.5577C6.00298 10.4807 6.40498 10.5202 6.77031 10.6714C7.13565 10.8225 7.4479 11.0784 7.66759 11.4068C7.88729 11.7352 8.00455 12.1212 8.00455 12.5161C8.00455 13.0457 7.7939 13.5536 7.41895 13.9281C7.044 14.3025 6.53546 14.5129 6.0052 14.5129ZM18.0013 20.5032C17.6059 20.5032 17.2193 20.3861 16.8905 20.1667C16.5617 19.9473 16.3055 19.6355 16.1541 19.2706C16.0028 18.9057 15.9632 18.5042 16.0404 18.1169C16.1175 17.7296 16.3079 17.3738 16.5875 17.0945C16.8672 16.8153 17.2234 16.6251 17.6112 16.5481C17.9991 16.471 18.4011 16.5105 18.7664 16.6617C19.1318 16.8128 19.444 17.0687 19.6637 17.3971C19.8834 17.7255 20.0006 18.1115 20.0006 18.5065C20.0006 19.036 19.79 19.5439 19.4151 19.9184C19.0401 20.2929 18.5316 20.5032 18.0013 20.5032Z" fill="black"/>
</g>
<defs>
<clipPath id="clip0_38_1803">
<rect width="24" height="24" fill="white" transform="translate(0 0.5)"/>
</clipPath>
</defs>
</svg>
