<svg width="19" height="26" viewBox="0 0 19 26" fill="none" xmlns="http://www.w3.org/2000/svg">
<path d="M9.50001 16.5001C10.7377 16.5001 11.9247 16.0084 12.7998 15.1332C13.675 14.2581 14.1667 13.0711 14.1667 11.8334V4.83342C14.1667 3.59574 13.675 2.40875 12.7998 1.53358C11.9247 0.658413 10.7377 0.166748 9.50001 0.166748C8.26233 0.166748 7.07534 0.658413 6.20017 1.53358C5.325 2.40875 4.83334 3.59574 4.83334 4.83342V11.8334C4.83334 13.0711 5.325 14.2581 6.20017 15.1332C7.07534 16.0084 8.26233 16.5001 9.50001 16.5001ZM18.8333 11.8334C18.8333 11.524 18.7104 11.2273 18.4916 11.0085C18.2728 10.7897 17.9761 10.6667 17.6667 10.6667C17.3573 10.6667 17.0605 10.7897 16.8417 11.0085C16.6229 11.2273 16.5 11.524 16.5 11.8334C16.5 13.6899 15.7625 15.4704 14.4498 16.7832C13.137 18.0959 11.3565 18.8334 9.50001 18.8334C7.64349 18.8334 5.86301 18.0959 4.55026 16.7832C3.2375 15.4704 2.50001 13.6899 2.50001 11.8334C2.50001 11.524 2.37709 11.2273 2.1583 11.0085C1.9395 10.7897 1.64276 10.6667 1.33334 10.6667C1.02392 10.6667 0.727173 10.7897 0.508381 11.0085C0.289588 11.2273 0.166672 11.524 0.166672 11.8334C0.168732 14.1053 0.999347 16.2983 2.5028 18.0015C4.00626 19.7047 6.07932 20.8011 8.33334 21.0851V23.5001H6.00001C5.69059 23.5001 5.39384 23.623 5.17505 23.8418C4.95626 24.0606 4.83334 24.3573 4.83334 24.6667C4.83334 24.9762 4.95626 25.2729 5.17505 25.4917C5.39384 25.7105 5.69059 25.8334 6.00001 25.8334H13C13.3094 25.8334 13.6062 25.7105 13.825 25.4917C14.0438 25.2729 14.1667 24.9762 14.1667 24.6667C14.1667 24.3573 14.0438 24.0606 13.825 23.8418C13.6062 23.623 13.3094 23.5001 13 23.5001H10.6667V21.0851C12.9207 20.8011 14.9938 19.7047 16.4972 18.0015C18.0007 16.2983 18.8313 14.1053 18.8333 11.8334Z" fill="white"/>
</svg>
