<svg width="16" height="16" viewBox="0 0 16 16" fill="none" xmlns="http://www.w3.org/2000/svg">
<g id="Vector">
<path id="Vector_2" d="M9.40998 7.99915L15.7061 1.71303C15.8943 1.52485 16 1.26961 16 1.00347C16 0.737334 15.8943 0.482097 15.7061 0.29391C15.5179 0.105723 15.2627 0 14.9965 0C14.7304 0 14.4752 0.105723 14.287 0.29391L8.00085 6.59002L1.71474 0.29391C1.52655 0.105723 1.27131 2.36288e-07 1.00518 2.38271e-07C0.73904 2.40254e-07 0.483803 0.105723 0.295616 0.29391C0.107428 0.482097 0.00170579 0.737334 0.00170578 1.00347C0.00170578 1.26961 0.107428 1.52485 0.295616 1.71303L6.59172 7.99915L0.295616 14.2853C0.201945 14.3782 0.127597 14.4887 0.0768596 14.6105C0.0261223 14.7323 0 14.8629 0 14.9948C0 15.1268 0.0261223 15.2574 0.0768596 15.3792C0.127597 15.5009 0.201945 15.6115 0.295616 15.7044C0.388521 15.7981 0.499054 15.8724 0.620838 15.9231C0.742622 15.9739 0.873247 16 1.00518 16C1.13711 16 1.26773 15.9739 1.38952 15.9231C1.5113 15.8724 1.62183 15.7981 1.71474 15.7044L8.00085 9.40828L14.287 15.7044C14.3799 15.7981 14.4904 15.8724 14.6122 15.9231C14.734 15.9739 14.8646 16 14.9965 16C15.1285 16 15.2591 15.9739 15.3809 15.9231C15.5027 15.8724 15.6132 15.7981 15.7061 15.7044C15.7998 15.6115 15.8741 15.5009 15.9248 15.3792C15.9756 15.2574 16.0017 15.1268 16.0017 14.9948C16.0017 14.8629 15.9756 14.7323 15.9248 14.6105C15.8741 14.4887 15.7998 14.3782 15.7061 14.2853L9.40998 7.99915Z" fill="black"/>
</g>
</svg>
