<svg width="18" height="17" viewBox="0 0 18 17" fill="none" xmlns="http://www.w3.org/2000/svg">
<g id="Vector">
<path id="Vector_2" d="M17.0994 15.3424L14.0096 12.2758C15.2089 10.7794 15.7898 8.88018 15.6326 6.96851C15.4755 5.05685 14.5923 3.27808 13.1647 1.99796C11.7371 0.717849 9.87353 0.0336856 7.95727 0.0861526C6.041 0.13862 4.21766 0.923729 2.86214 2.28005C1.50663 3.63636 0.721991 5.46079 0.669556 7.3782C0.61712 9.2956 1.30088 11.1602 2.58023 12.5887C3.85959 14.0172 5.63729 14.9009 7.54782 15.0581C9.45835 15.2153 11.3565 14.6342 12.8519 13.4341L15.9168 16.5008C15.9942 16.5789 16.0863 16.6409 16.1878 16.6832C16.2893 16.7255 16.3981 16.7473 16.5081 16.7473C16.618 16.7473 16.7269 16.7255 16.8284 16.6832C16.9299 16.6409 17.022 16.5789 17.0994 16.5008C17.2495 16.3454 17.3334 16.1377 17.3334 15.9216C17.3334 15.7055 17.2495 15.4978 17.0994 15.3424ZM8.1797 13.4341C7.02666 13.4341 5.89951 13.092 4.9408 12.451C3.98208 11.81 3.23485 10.899 2.7936 9.83308C2.35235 8.76718 2.2369 7.59429 2.46185 6.46273C2.6868 5.33118 3.24204 4.29178 4.05736 3.47597C4.87268 2.66017 5.91147 2.10459 7.04235 1.87951C8.17323 1.65443 9.34542 1.76995 10.4107 2.21146C11.476 2.65297 12.3865 3.40065 13.0271 4.35993C13.6677 5.31922 14.0096 6.44704 14.0096 7.60076C14.0096 9.14786 13.3954 10.6316 12.302 11.7256C11.2087 12.8195 9.72588 13.4341 8.1797 13.4341Z" fill="#6B7684"/>
</g>
</svg>
